<svg width="400" height="400" viewBox="0 0 400 400" fill="none" xmlns="http://www.w3.org/2000/svg">
<g clip-path="url(#clip0_106_41)">
<rect width="400" height="400" rx="20" fill="#070815"/>
<path d="M166.267 104.483L165.841 105.225C159.364 117.162 149.828 127.162 138.212 134.198C133.064 137.283 119.346 144.546 103.497 144.546C94.3019 144.645 85.2442 142.308 77.2446 137.772C69.0756 133.035 62.4498 126.037 58.1646 117.622C53.3769 108.683 50.986 97.9188 50.9919 85.3307V32.5268C50.9919 15.6846 52.8234 2.8857 56.4863 -5.8699C60.1491 -14.6255 65.0605 -20.4096 71.2203 -23.2221C77.3683 -26.0382 85.3124 -27.4403 95.0526 -27.4285H130.404C132.331 -27.5209 134.263 -27.3964 136.163 -27.0575C137.172 -26.5852 138.02 -25.8264 138.601 -24.8757L150.385 -8.03584C150.579 -7.73666 150.842 -7.48905 151.153 -7.31426C151.464 -7.13948 151.812 -7.04274 152.169 -7.03237C152.307 -7.01073 152.447 -7.02155 152.58 -7.06399C152.713 -7.10642 152.834 -7.17929 152.933 -7.27677C153.033 -7.37426 153.108 -7.49366 153.153 -7.62546C153.199 -7.75725 153.212 -7.89778 153.194 -8.03584V-28.6599C153.194 -29.0126 153.055 -29.3512 152.807 -29.6017C152.559 -29.8523 152.221 -29.9945 151.869 -29.9973H95.0526C79.9782 -30.1207 65.1654 -26.0572 52.2639 -18.2595C39.2878 -10.4316 28.6339 0.715069 21.4002 14.0316C13.7614 27.8899 9.83603 43.488 10.0052 59.3113C9.85577 75.2214 13.7784 90.9053 21.4002 104.872C28.6337 118.351 39.2755 129.698 52.2639 137.78C65.0829 145.683 79.841 149.879 94.9004 149.904C109.96 149.929 124.731 145.78 137.576 137.919C143.291 134.407 148.572 130.233 153.308 125.484C158.911 119.795 163.71 113.368 167.572 106.381C167.774 106.017 167.938 105.713 168.051 105.497C168.122 105.38 168.169 105.25 168.188 105.114C168.208 104.978 168.2 104.84 168.166 104.708C168.132 104.575 168.071 104.451 167.988 104.342C167.905 104.233 167.8 104.142 167.681 104.074C167.563 104.006 167.431 103.962 167.295 103.946C167.159 103.929 167.021 103.94 166.89 103.977C166.758 104.015 166.635 104.078 166.528 104.164C166.421 104.249 166.332 104.356 166.267 104.476V104.483Z" fill="#989795" fill-opacity="0.25"/>
<path d="M294.863 48.8578C289.205 38.8123 280.981 30.4499 271.03 24.6262C261.117 18.7739 249.815 15.687 238.303 15.687C226.791 15.687 215.489 18.7739 205.575 24.6262C195.686 30.4803 187.514 38.8384 181.884 48.8578C176.172 59.187 173.175 70.7975 173.175 82.6012C173.175 94.4049 176.172 106.015 181.884 116.345C187.483 126.426 195.659 134.839 205.575 140.725C215.489 146.577 226.791 149.664 238.303 149.664C249.815 149.664 261.117 146.577 271.03 140.725C281.008 134.87 289.237 126.452 294.863 116.345C300.576 106.015 303.572 94.4049 303.572 82.6012C303.572 70.7975 300.576 59.187 294.863 48.8578ZM265.147 101.932C265.147 114.355 263.993 123.882 261.685 130.511C259.376 137.141 256.344 141.564 252.586 143.779C248.187 146.146 243.233 147.289 238.241 147.088C233.335 147.272 228.471 146.129 224.161 143.779C220.398 141.579 217.365 137.156 215.062 130.511C212.76 123.866 211.606 114.34 211.6 101.932V62.9011C211.6 50.6522 212.754 41.2959 215.062 34.8323C217.371 28.3686 220.445 23.9867 224.284 21.6865C228.533 19.2795 233.361 18.0865 238.241 18.238C243.19 18.0759 248.094 19.217 252.463 21.5469C256.296 23.7635 259.37 28.1449 261.685 34.6909C263.981 41.2559 265.136 50.6593 265.147 62.9011V101.932Z" fill="#989795" fill-opacity="0.25"/>
<path d="M455.223 48.8578C449.571 38.8083 441.345 30.4447 431.391 24.6262C421.482 18.7082 410.142 15.6166 398.601 15.6868C390.622 15.627 382.766 17.6531 375.811 21.5645C370.042 24.7652 365.08 29.243 361.307 34.6555C361.148 34.8862 360.919 35.0601 360.655 35.152C360.39 35.244 360.103 35.2492 359.835 35.1668C359.567 35.0845 359.333 34.919 359.165 34.6942C358.998 34.4695 358.906 34.1973 358.904 33.9171V18.3262C358.902 18.0902 358.837 17.8591 358.716 17.6566C358.595 17.4542 358.422 17.2878 358.214 17.1747C358.007 17.0615 357.774 17.0058 357.538 17.0132C357.302 17.0206 357.072 17.0909 356.873 17.2168L323.659 37.9822C323.471 38.1002 323.316 38.2637 323.208 38.4576C323.1 38.6516 323.042 38.8696 323.041 39.0916V198.35C323.041 198.523 323.076 198.695 323.142 198.856C323.209 199.016 323.307 199.162 323.43 199.284C323.553 199.407 323.699 199.504 323.86 199.57C324.02 199.636 324.192 199.67 324.366 199.669H357.579C357.929 199.667 358.264 199.528 358.512 199.281C358.76 199.034 358.901 198.699 358.904 198.35V131.426C358.905 131.146 358.995 130.872 359.162 130.646C359.33 130.42 359.564 130.254 359.833 130.171C360.101 130.089 360.389 130.094 360.655 130.187C360.92 130.279 361.148 130.454 361.307 130.686C365.08 136.099 370.042 140.578 375.811 143.779C382.766 147.69 390.622 149.716 398.601 149.657C410.142 149.727 421.482 146.635 431.391 140.717C441.372 134.868 449.602 126.449 455.223 116.337C460.936 106.008 463.933 94.3978 463.933 82.594C463.933 70.7903 460.936 59.1798 455.223 48.8507V48.8578ZM425.508 101.932C425.508 114.355 424.353 123.882 422.045 130.511C419.737 137.141 416.704 141.564 412.947 143.779C408.55 146.155 403.595 147.304 398.601 147.106C388.597 147.183 378.874 143.801 371.077 137.532C362.95 131.144 358.893 119.277 358.904 101.932V62.901C358.904 45.8845 362.962 34.188 371.077 27.8115C378.868 21.5328 388.595 18.1478 398.601 18.2326C403.553 18.0652 408.46 19.2131 412.823 21.5592C416.674 23.7581 419.748 28.1336 422.045 34.6856C424.342 41.2375 425.496 50.6409 425.508 62.8957V101.932Z" fill="#989795" fill-opacity="0.25"/>
<path d="M70.3014 69V43.296H83.1174C85.6134 43.296 87.5814 43.86 89.0214 44.988C90.4614 46.116 91.1814 47.652 91.1814 49.596C91.1814 50.748 90.9414 51.756 90.4614 52.62C90.0054 53.46 89.3094 54.168 88.3734 54.744C87.4374 55.32 86.2494 55.776 84.8094 56.112L84.4494 55.536C86.0094 55.56 87.3654 55.848 88.5174 56.4C89.6694 56.952 90.5694 57.696 91.2174 58.632C91.8654 59.568 92.1894 60.648 92.1894 61.872C92.1894 63.408 91.8414 64.704 91.1454 65.76C90.4494 66.816 89.4174 67.62 88.0494 68.172C86.7054 68.724 85.0494 69 83.0814 69H70.3014ZM77.5374 63.456H82.5054C82.9134 63.456 83.2854 63.348 83.6214 63.132C83.9814 62.892 84.2574 62.58 84.4494 62.196C84.6654 61.812 84.7734 61.392 84.7734 60.936C84.7734 60.48 84.6654 60.072 84.4494 59.712C84.2574 59.328 83.9934 59.028 83.6574 58.812C83.3214 58.596 82.9374 58.488 82.5054 58.488H77.5374V63.456ZM77.5374 53.34H81.8214C82.2534 53.34 82.6374 53.244 82.9734 53.052C83.3094 52.86 83.5614 52.596 83.7294 52.26C83.9214 51.924 84.0174 51.54 84.0174 51.108C84.0174 50.436 83.8134 49.896 83.4054 49.488C82.9974 49.056 82.4694 48.84 81.8214 48.84H77.5374V53.34ZM94.8723 69V50.496H101.676V56.292L101.28 55.932C101.52 54.684 101.88 53.664 102.36 52.872C102.864 52.056 103.512 51.456 104.304 51.072C105.12 50.688 106.104 50.496 107.256 50.496H108.48V56.976H106.392C105.36 56.976 104.496 57.192 103.8 57.624C103.104 58.032 102.576 58.644 102.216 59.46C101.856 60.276 101.676 61.284 101.676 62.484V69H94.8723ZM115.373 69.504C113.693 69.504 112.361 69.036 111.377 68.1C110.393 67.14 109.901 65.892 109.901 64.356C109.901 63.228 110.141 62.256 110.621 61.44C111.125 60.624 111.893 59.94 112.925 59.388C113.957 58.836 115.277 58.404 116.885 58.092L119.477 57.588C119.981 57.492 120.365 57.312 120.629 57.048C120.917 56.76 121.061 56.388 121.061 55.932V55.896C121.061 55.536 120.977 55.248 120.809 55.032C120.665 54.792 120.461 54.624 120.197 54.528C119.933 54.408 119.633 54.348 119.297 54.348C118.769 54.348 118.301 54.432 117.893 54.6C117.509 54.768 117.269 55.116 117.173 55.644H110.621C110.861 54.228 111.389 53.112 112.205 52.296C113.045 51.456 114.089 50.868 115.337 50.532C116.609 50.172 117.989 49.992 119.477 49.992C121.277 49.992 122.789 50.256 124.013 50.784C125.237 51.288 126.149 52.08 126.749 53.16C127.373 54.24 127.685 55.656 127.685 57.408V69H121.349V64.68L122.033 65.436C121.625 66.348 121.085 67.104 120.413 67.704C119.765 68.304 119.021 68.748 118.181 69.036C117.341 69.348 116.405 69.504 115.373 69.504ZM117.929 64.788C118.457 64.788 118.913 64.656 119.297 64.392C119.705 64.128 120.029 63.792 120.269 63.384C120.533 62.952 120.725 62.508 120.845 62.052C120.989 61.572 121.061 61.128 121.061 60.72V58.452L121.925 59.568C121.757 59.88 121.541 60.108 121.277 60.252C121.013 60.396 120.485 60.6 119.693 60.864L118.253 61.332C117.653 61.524 117.209 61.788 116.921 62.124C116.633 62.436 116.489 62.808 116.489 63.24C116.489 63.792 116.621 64.188 116.885 64.428C117.149 64.668 117.497 64.788 117.929 64.788ZM131.118 69V50.496H137.958V55.104L137.31 54.564C137.694 53.484 138.234 52.608 138.93 51.936C139.626 51.264 140.394 50.772 141.234 50.46C142.074 50.148 142.914 49.992 143.754 49.992C144.882 49.992 145.842 50.172 146.634 50.532C147.426 50.892 148.062 51.396 148.542 52.044C149.022 52.692 149.37 53.46 149.586 54.348C149.826 55.236 149.946 56.208 149.946 57.264V69H143.106V58.344C143.106 57.72 143.01 57.192 142.818 56.76C142.65 56.304 142.398 55.956 142.062 55.716C141.726 55.476 141.318 55.356 140.838 55.356C140.166 55.356 139.614 55.524 139.182 55.86C138.774 56.172 138.462 56.592 138.246 57.12C138.054 57.648 137.958 58.224 137.958 58.848V69H131.118ZM159.636 69.504C158.436 69.504 157.284 69.168 156.18 68.496C155.1 67.8 154.212 66.732 153.516 65.292C152.82 63.852 152.472 62.004 152.472 59.748C152.472 58.38 152.604 57.168 152.868 56.112C153.132 55.056 153.492 54.144 153.948 53.376C154.428 52.608 154.968 51.972 155.568 51.468C156.168 50.964 156.816 50.592 157.512 50.352C158.208 50.112 158.916 49.992 159.636 49.992C160.668 49.992 161.592 50.136 162.408 50.424C163.248 50.712 163.968 51.108 164.568 51.612C165.168 52.116 165.624 52.704 165.936 53.376L165.36 54.384V43.296H172.164V69H165.36V65.112L165.936 66.12C165.624 66.768 165.168 67.356 164.568 67.884C163.968 68.388 163.248 68.784 162.408 69.072C161.592 69.36 160.668 69.504 159.636 69.504ZM162.372 64.5C162.756 64.5 163.104 64.44 163.416 64.32C163.752 64.176 164.04 63.972 164.28 63.708C164.544 63.444 164.76 63.12 164.928 62.736C165.12 62.352 165.252 61.908 165.324 61.404C165.42 60.9 165.468 60.348 165.468 59.748C165.468 58.74 165.348 57.888 165.108 57.192C164.868 56.472 164.508 55.932 164.028 55.572C163.572 55.188 163.02 54.996 162.372 54.996C161.988 54.996 161.628 55.068 161.292 55.212C160.98 55.332 160.692 55.524 160.428 55.788C160.188 56.052 159.984 56.376 159.816 56.76C159.648 57.144 159.516 57.588 159.42 58.092C159.348 58.596 159.312 59.148 159.312 59.748C159.312 60.756 159.432 61.62 159.672 62.34C159.912 63.036 160.26 63.576 160.716 63.96C161.172 64.32 161.724 64.5 162.372 64.5ZM184.489 69V43.296H191.725V69H184.489ZM201.718 69.504C200.518 69.504 199.366 69.168 198.262 68.496C197.182 67.8 196.294 66.732 195.598 65.292C194.902 63.852 194.554 62.004 194.554 59.748C194.554 58.38 194.686 57.168 194.95 56.112C195.214 55.056 195.574 54.144 196.03 53.376C196.51 52.608 197.05 51.972 197.65 51.468C198.25 50.964 198.898 50.592 199.594 50.352C200.29 50.112 200.998 49.992 201.718 49.992C202.75 49.992 203.674 50.136 204.49 50.424C205.33 50.712 206.05 51.108 206.65 51.612C207.25 52.116 207.706 52.704 208.018 53.376L207.442 54.384V43.296H214.246V69H207.442V65.112L208.018 66.12C207.706 66.768 207.25 67.356 206.65 67.884C206.05 68.388 205.33 68.784 204.49 69.072C203.674 69.36 202.75 69.504 201.718 69.504ZM204.454 64.5C204.838 64.5 205.186 64.44 205.498 64.32C205.834 64.176 206.122 63.972 206.362 63.708C206.626 63.444 206.842 63.12 207.01 62.736C207.202 62.352 207.334 61.908 207.406 61.404C207.502 60.9 207.55 60.348 207.55 59.748C207.55 58.74 207.43 57.888 207.19 57.192C206.95 56.472 206.59 55.932 206.11 55.572C205.654 55.188 205.102 54.996 204.454 54.996C204.07 54.996 203.71 55.068 203.374 55.212C203.062 55.332 202.774 55.524 202.51 55.788C202.27 56.052 202.066 56.376 201.898 56.76C201.73 57.144 201.598 57.588 201.502 58.092C201.43 58.596 201.394 59.148 201.394 59.748C201.394 60.756 201.514 61.62 201.754 62.34C201.994 63.036 202.342 63.576 202.798 63.96C203.254 64.32 203.806 64.5 204.454 64.5ZM226.669 69.504C224.749 69.504 223.057 69.084 221.593 68.244C220.129 67.38 218.989 66.216 218.173 64.752C217.357 63.288 216.949 61.62 216.949 59.748C216.949 58.62 217.093 57.564 217.381 56.58C217.693 55.596 218.125 54.708 218.677 53.916C219.253 53.1 219.937 52.404 220.729 51.828C221.521 51.228 222.409 50.772 223.393 50.46C224.401 50.148 225.481 49.992 226.633 49.992C228.001 49.992 229.261 50.208 230.413 50.64C231.565 51.048 232.561 51.696 233.401 52.584C234.241 53.472 234.889 54.636 235.345 56.076C235.801 57.516 236.017 59.268 235.993 61.332H221.377V57.696H229.837C229.717 57.072 229.549 56.556 229.333 56.148C229.141 55.74 228.901 55.416 228.613 55.176C228.325 54.936 228.013 54.768 227.677 54.672C227.341 54.576 226.981 54.528 226.597 54.528C226.165 54.528 225.769 54.6 225.409 54.744C225.049 54.888 224.737 55.104 224.473 55.392C224.209 55.68 223.981 56.04 223.789 56.472C223.621 56.88 223.489 57.36 223.393 57.912C223.297 58.464 223.249 59.076 223.249 59.748C223.249 60.876 223.369 61.836 223.609 62.628C223.873 63.396 224.269 63.984 224.797 64.392C225.325 64.776 225.997 64.968 226.813 64.968C227.389 64.968 227.893 64.86 228.325 64.644C228.781 64.428 229.117 64.092 229.333 63.636H235.993C235.849 64.62 235.405 65.568 234.661 66.48C233.941 67.368 232.909 68.1 231.565 68.676C230.245 69.228 228.613 69.504 226.669 69.504ZM238.696 69V50.496H245.536V55.104L244.888 54.564C245.272 53.484 245.812 52.608 246.508 51.936C247.204 51.264 247.972 50.772 248.812 50.46C249.652 50.148 250.492 49.992 251.332 49.992C252.46 49.992 253.42 50.172 254.212 50.532C255.004 50.892 255.64 51.396 256.12 52.044C256.6 52.692 256.948 53.46 257.164 54.348C257.404 55.236 257.524 56.208 257.524 57.264V69H250.684V58.344C250.684 57.72 250.588 57.192 250.396 56.76C250.228 56.304 249.976 55.956 249.64 55.716C249.304 55.476 248.896 55.356 248.416 55.356C247.744 55.356 247.192 55.524 246.76 55.86C246.352 56.172 246.04 56.592 245.824 57.12C245.632 57.648 245.536 58.224 245.536 58.848V69H238.696ZM269.158 69C267.31 69 265.834 68.484 264.73 67.452C263.626 66.396 263.074 64.968 263.074 63.168V45.492H269.878V61.332C269.878 62.148 270.082 62.796 270.49 63.276C270.922 63.756 271.546 63.996 272.362 63.996H274.198V69H269.158ZM259.798 55.536V50.496H263.65V55.536H259.798ZM269.302 55.536V50.496H274.198V55.536H269.302ZM277.437 69V50.496H284.277V69H277.437ZM277.437 48.192V43.296H284.277V48.192H277.437ZM296.018 69C294.17 69 292.694 68.484 291.59 67.452C290.486 66.396 289.934 64.968 289.934 63.168V45.492H296.738V61.332C296.738 62.148 296.942 62.796 297.35 63.276C297.782 63.756 298.406 63.996 299.222 63.996H301.058V69H296.018ZM286.658 55.536V50.496H290.51V55.536H286.658ZM296.162 55.536V50.496H301.058V55.536H296.162ZM303.665 75.84V70.836H307.013C307.661 70.836 308.201 70.692 308.633 70.404C309.089 70.116 309.461 69.6 309.749 68.856L310.325 67.524L311.477 72.24L302.261 50.496H309.677L314.573 64.572H311.765L316.085 50.496H322.673L315.509 70.152C314.765 72.168 313.781 73.62 312.557 74.508C311.333 75.396 309.737 75.84 307.769 75.84H303.665ZM48.6803 109V83.296H59.8403C61.5683 83.296 63.1883 83.584 64.7003 84.16C66.2363 84.712 67.5923 85.54 68.7683 86.644C69.9443 87.724 70.8563 89.068 71.5043 90.676C72.1763 92.26 72.5123 94.084 72.5123 96.148C72.5123 97.804 72.2963 99.316 71.8643 100.684C71.4323 102.028 70.8203 103.228 70.0283 104.284C69.2603 105.316 68.3483 106.18 67.2923 106.876C66.2363 107.572 65.0723 108.1 63.8003 108.46C62.5523 108.82 61.2323 109 59.8403 109H48.6803ZM55.9163 103.276H59.2283C59.7083 103.276 60.2123 103.216 60.7403 103.096C61.2923 102.952 61.8203 102.724 62.3243 102.412C62.8523 102.076 63.3203 101.644 63.7283 101.116C64.1363 100.564 64.4603 99.88 64.7003 99.064C64.9403 98.248 65.0603 97.276 65.0603 96.148C65.0603 94.732 64.8683 93.568 64.4843 92.656C64.1243 91.72 63.6443 90.988 63.0443 90.46C62.4683 89.932 61.8443 89.56 61.1723 89.344C60.5003 89.128 59.8523 89.02 59.2283 89.02H55.9163V103.276ZM84.3563 109.504C82.4363 109.504 80.7443 109.084 79.2803 108.244C77.8163 107.38 76.6763 106.216 75.8603 104.752C75.0443 103.288 74.6363 101.62 74.6363 99.748C74.6363 98.62 74.7803 97.564 75.0683 96.58C75.3803 95.596 75.8123 94.708 76.3643 93.916C76.9403 93.1 77.6243 92.404 78.4163 91.828C79.2083 91.228 80.0963 90.772 81.0803 90.46C82.0883 90.148 83.1683 89.992 84.3203 89.992C85.6883 89.992 86.9483 90.208 88.1003 90.64C89.2523 91.048 90.2483 91.696 91.0883 92.584C91.9283 93.472 92.5763 94.636 93.0323 96.076C93.4883 97.516 93.7043 99.268 93.6803 101.332H79.0643V97.696H87.5243C87.4043 97.072 87.2363 96.556 87.0203 96.148C86.8283 95.74 86.5883 95.416 86.3003 95.176C86.0123 94.936 85.7003 94.768 85.3643 94.672C85.0283 94.576 84.6683 94.528 84.2843 94.528C83.8523 94.528 83.4563 94.6 83.0963 94.744C82.7363 94.888 82.4243 95.104 82.1603 95.392C81.8963 95.68 81.6683 96.04 81.4763 96.472C81.3083 96.88 81.1763 97.36 81.0803 97.912C80.9843 98.464 80.9363 99.076 80.9363 99.748C80.9363 100.876 81.0563 101.836 81.2963 102.628C81.5603 103.396 81.9563 103.984 82.4843 104.392C83.0123 104.776 83.6843 104.968 84.5003 104.968C85.0763 104.968 85.5803 104.86 86.0123 104.644C86.4683 104.428 86.8043 104.092 87.0203 103.636H93.6803C93.5363 104.62 93.0923 105.568 92.3483 106.48C91.6283 107.368 90.5963 108.1 89.2523 108.676C87.9323 109.228 86.3003 109.504 84.3563 109.504ZM104.124 109.504C102.756 109.504 101.544 109.348 100.488 109.036C99.432 108.748 98.532 108.34 97.788 107.812C97.068 107.284 96.504 106.66 96.096 105.94C95.688 105.22 95.448 104.428 95.376 103.564H102.18C102.276 103.924 102.42 104.212 102.612 104.428C102.828 104.62 103.092 104.764 103.404 104.86C103.716 104.932 104.04 104.968 104.376 104.968C104.76 104.968 105.084 104.92 105.348 104.824C105.612 104.728 105.816 104.584 105.96 104.392C106.128 104.176 106.212 103.924 106.212 103.636C106.212 103.372 106.128 103.156 105.96 102.988C105.792 102.796 105.552 102.652 105.24 102.556L101.172 101.62C99.468 101.236 98.16 100.588 97.248 99.676C96.36 98.764 95.916 97.624 95.916 96.256C95.916 95.248 96.12 94.36 96.528 93.592C96.96 92.824 97.548 92.176 98.292 91.648C99.036 91.096 99.9 90.688 100.884 90.424C101.892 90.136 102.972 89.992 104.124 89.992C105.756 89.992 107.184 90.208 108.408 90.64C109.632 91.048 110.604 91.672 111.324 92.512C112.068 93.328 112.5 94.336 112.62 95.536H105.816C105.792 95.296 105.696 95.104 105.528 94.96C105.384 94.792 105.192 94.672 104.952 94.6C104.712 94.504 104.424 94.456 104.088 94.456C103.776 94.456 103.488 94.516 103.224 94.636C102.984 94.732 102.792 94.876 102.648 95.068C102.504 95.236 102.432 95.452 102.432 95.716C102.432 96.076 102.552 96.364 102.792 96.58C103.032 96.772 103.368 96.928 103.8 97.048L108.048 97.984C108.744 98.128 109.464 98.392 110.208 98.776C110.952 99.16 111.576 99.712 112.08 100.432C112.584 101.152 112.836 102.1 112.836 103.276C112.836 104.356 112.608 105.292 112.152 106.084C111.72 106.876 111.108 107.524 110.316 108.028C109.524 108.532 108.6 108.904 107.544 109.144C106.488 109.384 105.348 109.504 104.124 109.504ZM115.542 109V90.496H122.382V109H115.542ZM115.542 88.192V83.296H122.382V88.192H115.542ZM134.591 116.344C132.623 116.344 130.967 116.08 129.623 115.552C128.279 115.048 127.235 114.34 126.491 113.428C125.771 112.54 125.327 111.52 125.159 110.368H131.891C132.011 110.752 132.287 111.052 132.719 111.268C133.151 111.484 133.775 111.592 134.591 111.592C135.143 111.592 135.623 111.508 136.031 111.34C136.439 111.172 136.751 110.884 136.967 110.476C137.207 110.092 137.327 109.576 137.327 108.928V104.032L137.939 104.86C137.627 105.58 137.207 106.192 136.679 106.696C136.175 107.2 135.563 107.584 134.843 107.848C134.123 108.088 133.271 108.208 132.287 108.208C130.919 108.208 129.683 107.86 128.579 107.164C127.499 106.444 126.635 105.412 125.987 104.068C125.339 102.7 125.015 101.056 125.015 99.136C125.015 97.96 125.135 96.892 125.375 95.932C125.615 94.972 125.951 94.132 126.383 93.412C126.839 92.668 127.367 92.044 127.967 91.54C128.567 91.036 129.227 90.652 129.947 90.388C130.691 90.124 131.471 89.992 132.287 89.992C133.271 89.992 134.123 90.136 134.843 90.424C135.587 90.688 136.211 91.072 136.715 91.576C137.219 92.056 137.615 92.632 137.903 93.304L137.327 94.204V90.496H144.167V108.892C144.167 110.188 143.915 111.304 143.411 112.24C142.931 113.176 142.259 113.944 141.395 114.544C140.531 115.144 139.511 115.588 138.335 115.876C137.183 116.188 135.935 116.344 134.591 116.344ZM134.627 103.312C134.963 103.312 135.275 103.264 135.563 103.168C135.875 103.048 136.139 102.88 136.355 102.664C136.595 102.424 136.799 102.148 136.967 101.836C137.135 101.5 137.267 101.104 137.363 100.648C137.459 100.192 137.507 99.688 137.507 99.136C137.507 98.176 137.387 97.384 137.147 96.76C136.907 96.112 136.571 95.632 136.139 95.32C135.707 95.008 135.203 94.852 134.627 94.852C134.291 94.852 133.967 94.912 133.655 95.032C133.367 95.128 133.103 95.296 132.863 95.536C132.623 95.752 132.419 96.04 132.251 96.4C132.083 96.736 131.951 97.132 131.855 97.588C131.759 98.044 131.711 98.56 131.711 99.136C131.711 100.072 131.831 100.852 132.071 101.476C132.335 102.1 132.683 102.568 133.115 102.88C133.571 103.168 134.075 103.312 134.627 103.312ZM147.782 109V90.496H154.622V95.104L153.974 94.564C154.358 93.484 154.898 92.608 155.594 91.936C156.29 91.264 157.058 90.772 157.898 90.46C158.738 90.148 159.578 89.992 160.418 89.992C161.546 89.992 162.506 90.172 163.298 90.532C164.09 90.892 164.726 91.396 165.206 92.044C165.686 92.692 166.034 93.46 166.25 94.348C166.49 95.236 166.61 96.208 166.61 97.264V109H159.77V98.344C159.77 97.72 159.674 97.192 159.482 96.76C159.314 96.304 159.062 95.956 158.726 95.716C158.39 95.476 157.982 95.356 157.502 95.356C156.83 95.356 156.278 95.524 155.846 95.86C155.438 96.172 155.126 96.592 154.91 97.12C154.718 97.648 154.622 98.224 154.622 98.848V109H147.782ZM197.046 109L184.338 94.276C183.666 93.508 183.03 92.656 182.43 91.72C181.83 90.784 181.53 89.704 181.53 88.48C181.53 87.4 181.794 86.452 182.322 85.636C182.874 84.796 183.642 84.136 184.626 83.656C185.61 83.176 186.762 82.936 188.082 82.936C189.402 82.936 190.506 83.176 191.394 83.656C192.282 84.136 192.954 84.772 193.41 85.564C193.866 86.356 194.094 87.232 194.094 88.192C194.094 89.152 193.914 90.004 193.554 90.748C193.194 91.492 192.714 92.164 192.114 92.764C191.538 93.34 190.89 93.856 190.17 94.312C189.474 94.768 188.778 95.188 188.082 95.572L187.11 93.412C187.638 93.148 188.19 92.776 188.766 92.296C189.342 91.792 189.834 91.204 190.242 90.532C190.65 89.86 190.854 89.116 190.854 88.3C190.854 87.364 190.578 86.656 190.026 86.176C189.474 85.672 188.79 85.42 187.974 85.42C187.398 85.42 186.87 85.54 186.39 85.78C185.934 86.02 185.562 86.356 185.274 86.788C184.986 87.22 184.842 87.736 184.842 88.336C184.842 88.888 184.95 89.416 185.166 89.92C185.406 90.4 185.706 90.88 186.066 91.36C186.426 91.816 186.798 92.272 187.182 92.728L201.294 109H197.046ZM186.642 109.36C185.586 109.36 184.566 109.228 183.582 108.964C182.598 108.676 181.722 108.256 180.954 107.704C180.186 107.128 179.574 106.408 179.118 105.544C178.662 104.68 178.434 103.672 178.434 102.52C178.434 101.752 178.542 101.008 178.758 100.288C178.974 99.544 179.346 98.812 179.874 98.092C180.426 97.372 181.158 96.676 182.07 96.004C183.006 95.308 184.17 94.648 185.562 94.024L186.93 96.04C185.778 96.568 184.83 97.156 184.086 97.804C183.366 98.452 182.826 99.148 182.466 99.892C182.106 100.612 181.926 101.356 181.926 102.124C181.926 103.084 182.142 103.912 182.574 104.608C183.03 105.28 183.63 105.796 184.374 106.156C185.142 106.516 185.97 106.696 186.858 106.696C187.818 106.696 188.658 106.552 189.378 106.264C190.122 105.976 190.794 105.556 191.394 105.004C192.018 104.452 192.606 103.792 193.158 103.024L195.318 104.788C194.718 105.7 194.022 106.504 193.23 107.2C192.462 107.872 191.538 108.4 190.458 108.784C189.402 109.168 188.13 109.36 186.642 109.36ZM195.786 104.176L193.338 102.628C193.746 102.124 194.106 101.524 194.418 100.828C194.73 100.108 194.994 99.352 195.21 98.56C195.426 97.768 195.594 97.012 195.714 96.292H199.026C198.882 97.324 198.63 98.32 198.27 99.28C197.934 100.216 197.55 101.104 197.118 101.944C196.686 102.76 196.242 103.504 195.786 104.176ZM223.019 109.468C221.315 109.468 219.803 109.252 218.483 108.82C217.187 108.388 216.083 107.8 215.171 107.056C214.283 106.312 213.587 105.472 213.083 104.536C212.603 103.576 212.339 102.58 212.291 101.548H215.747C215.891 102.316 216.155 103.024 216.539 103.672C216.947 104.296 217.463 104.836 218.087 105.292C218.711 105.748 219.431 106.096 220.247 106.336C221.087 106.576 222.011 106.696 223.019 106.696C224.315 106.696 225.467 106.528 226.475 106.192C227.483 105.856 228.275 105.352 228.851 104.68C229.427 103.984 229.715 103.108 229.715 102.052C229.715 101.356 229.559 100.744 229.247 100.216C228.959 99.664 228.503 99.208 227.879 98.848C227.279 98.464 226.511 98.176 225.575 97.984L220.247 96.796C219.455 96.604 218.639 96.364 217.799 96.076C216.959 95.788 216.191 95.392 215.495 94.888C214.799 94.384 214.235 93.736 213.803 92.944C213.371 92.128 213.155 91.12 213.155 89.92C213.155 88.864 213.383 87.904 213.839 87.04C214.295 86.176 214.943 85.432 215.783 84.808C216.647 84.16 217.655 83.668 218.807 83.332C219.983 82.996 221.279 82.828 222.695 82.828C224.207 82.828 225.539 83.02 226.691 83.404C227.867 83.764 228.863 84.28 229.679 84.952C230.495 85.624 231.131 86.392 231.587 87.256C232.043 88.12 232.295 89.044 232.343 90.028H228.923C228.755 89.14 228.395 88.372 227.843 87.724C227.315 87.052 226.607 86.524 225.719 86.14C224.855 85.756 223.811 85.564 222.587 85.564C221.411 85.564 220.379 85.744 219.491 86.104C218.603 86.44 217.907 86.92 217.403 87.544C216.923 88.144 216.683 88.864 216.683 89.704C216.683 90.376 216.839 90.964 217.151 91.468C217.463 91.972 217.931 92.404 218.555 92.764C219.203 93.1 220.019 93.388 221.003 93.628L226.511 94.888C227.975 95.224 229.199 95.692 230.183 96.292C231.191 96.892 231.947 97.648 232.451 98.56C232.955 99.448 233.207 100.516 233.207 101.764C233.207 102.964 232.967 104.044 232.487 105.004C232.031 105.94 231.359 106.744 230.471 107.416C229.583 108.088 228.515 108.604 227.267 108.964C226.019 109.3 224.603 109.468 223.019 109.468ZM243.682 109C242.29 109 241.138 108.616 240.226 107.848C239.338 107.056 238.894 105.892 238.894 104.356V85.492H242.17V103.96C242.17 104.752 242.398 105.352 242.854 105.76C243.31 106.168 243.91 106.372 244.654 106.372H246.706V109H243.682ZM235.294 93.088V90.496H239.47V93.088H235.294ZM241.594 93.088V90.496H246.706V93.088H241.594ZM250.317 109V90.496H253.593V95.68L253.269 95.608C253.653 94.264 254.121 93.22 254.673 92.476C255.225 91.732 255.861 91.216 256.581 90.928C257.325 90.64 258.141 90.496 259.029 90.496H260.181V93.736H258.777C257.697 93.736 256.761 93.988 255.969 94.492C255.201 94.972 254.613 95.668 254.205 96.58C253.797 97.492 253.593 98.584 253.593 99.856V109H250.317ZM268.333 109.468C266.461 109.468 264.973 108.964 263.869 107.956C262.765 106.948 262.213 105.628 262.213 103.996C262.213 102.964 262.453 102.076 262.933 101.332C263.413 100.564 264.121 99.928 265.057 99.424C266.017 98.92 267.181 98.572 268.549 98.38L272.725 97.768C273.541 97.648 274.057 97.42 274.273 97.084C274.513 96.748 274.633 96.352 274.633 95.896V95.86C274.633 95.236 274.489 94.684 274.201 94.204C273.913 93.724 273.469 93.352 272.869 93.088C272.293 92.8 271.549 92.656 270.637 92.656C269.269 92.656 268.225 92.896 267.505 93.376C266.785 93.832 266.329 94.504 266.137 95.392H262.861C262.981 94.312 263.377 93.376 264.049 92.584C264.721 91.768 265.609 91.144 266.713 90.712C267.841 90.256 269.149 90.028 270.637 90.028C272.269 90.028 273.625 90.292 274.705 90.82C275.785 91.324 276.589 92.044 277.117 92.98C277.645 93.916 277.909 95.02 277.909 96.292V109H274.813V104.644L275.173 104.86C274.717 106.084 274.129 107.032 273.409 107.704C272.713 108.352 271.933 108.808 271.069 109.072C270.205 109.336 269.293 109.468 268.333 109.468ZM269.197 106.84C270.037 106.84 270.781 106.696 271.429 106.408C272.101 106.12 272.677 105.712 273.157 105.184C273.637 104.656 273.997 104.02 274.237 103.276C274.501 102.532 274.633 101.716 274.633 100.828V98.56L275.461 99.28C275.005 99.52 274.573 99.7 274.165 99.82C273.781 99.916 273.313 100.012 272.761 100.108L269.089 100.72C268.009 100.888 267.145 101.224 266.497 101.728C265.873 102.232 265.561 102.94 265.561 103.852C265.561 104.764 265.885 105.496 266.533 106.048C267.205 106.576 268.093 106.84 269.197 106.84ZM289.034 109C287.642 109 286.49 108.616 285.578 107.848C284.69 107.056 284.246 105.892 284.246 104.356V85.492H287.522V103.96C287.522 104.752 287.75 105.352 288.206 105.76C288.662 106.168 289.262 106.372 290.006 106.372H292.058V109H289.034ZM280.646 93.088V90.496H284.822V93.088H280.646ZM286.946 93.088V90.496H292.058V93.088H286.946ZM303.268 109.468C301.468 109.468 299.896 109.06 298.552 108.244C297.232 107.404 296.212 106.252 295.492 104.788C294.772 103.324 294.412 101.644 294.412 99.748C294.412 98.596 294.544 97.528 294.808 96.544C295.072 95.56 295.456 94.672 295.96 93.88C296.464 93.064 297.076 92.368 297.796 91.792C298.516 91.216 299.332 90.784 300.244 90.496C301.18 90.184 302.188 90.028 303.268 90.028C304.42 90.028 305.512 90.208 306.544 90.568C307.576 90.928 308.476 91.516 309.244 92.332C310.036 93.124 310.636 94.192 311.044 95.536C311.452 96.88 311.596 98.548 311.476 100.54H296.752V98.164H308.272C308.224 97.228 308.068 96.412 307.804 95.716C307.564 95.02 307.228 94.456 306.796 94.024C306.388 93.568 305.884 93.232 305.284 93.016C304.708 92.8 304.036 92.692 303.268 92.692C302.452 92.692 301.732 92.812 301.108 93.052C300.484 93.268 299.956 93.592 299.524 94.024C299.116 94.456 298.78 94.96 298.516 95.536C298.252 96.112 298.06 96.76 297.94 97.48C297.82 98.2 297.76 98.956 297.76 99.748C297.76 101.068 297.928 102.268 298.264 103.348C298.624 104.404 299.2 105.244 299.992 105.868C300.808 106.492 301.9 106.804 303.268 106.804C304.54 106.804 305.584 106.54 306.4 106.012C307.24 105.46 307.792 104.812 308.056 104.068H311.368C311.2 105.004 310.768 105.88 310.072 106.696C309.376 107.512 308.452 108.184 307.3 108.712C306.148 109.216 304.804 109.468 303.268 109.468ZM323.27 116.272C321.662 116.272 320.258 116.056 319.058 115.624C317.858 115.192 316.898 114.568 316.178 113.752C315.458 112.936 315.014 111.94 314.846 110.764H318.194C318.506 111.748 319.07 112.48 319.886 112.96C320.702 113.44 321.866 113.68 323.378 113.68C324.266 113.68 325.106 113.512 325.898 113.176C326.714 112.84 327.374 112.288 327.878 111.52C328.382 110.776 328.634 109.78 328.634 108.532V104.176L329.03 104.5C328.55 105.484 327.974 106.288 327.302 106.912C326.654 107.512 325.934 107.956 325.142 108.244C324.35 108.508 323.486 108.64 322.55 108.64C321.086 108.64 319.742 108.244 318.518 107.452C317.318 106.66 316.346 105.568 315.602 104.176C314.882 102.76 314.522 101.14 314.522 99.316C314.522 98.212 314.654 97.192 314.918 96.256C315.206 95.296 315.59 94.432 316.07 93.664C316.574 92.896 317.162 92.248 317.834 91.72C318.506 91.168 319.238 90.748 320.03 90.46C320.822 90.172 321.662 90.028 322.55 90.028C323.486 90.028 324.374 90.172 325.214 90.46C326.054 90.748 326.798 91.18 327.446 91.756C328.094 92.332 328.598 93.052 328.958 93.916L328.634 94.348V90.496H331.91V108.496C331.91 109.936 331.67 111.148 331.19 112.132C330.71 113.116 330.062 113.908 329.246 114.508C328.43 115.132 327.506 115.576 326.474 115.84C325.442 116.128 324.374 116.272 323.27 116.272ZM323.306 105.904C323.954 105.904 324.554 105.808 325.106 105.616C325.682 105.424 326.198 105.148 326.654 104.788C327.11 104.404 327.494 103.948 327.806 103.42C328.142 102.868 328.394 102.244 328.562 101.548C328.73 100.852 328.814 100.096 328.814 99.28C328.814 97.864 328.574 96.676 328.094 95.716C327.638 94.732 327.002 93.988 326.186 93.484C325.37 92.98 324.41 92.728 323.306 92.728C322.658 92.728 322.046 92.824 321.47 93.016C320.918 93.184 320.414 93.448 319.958 93.808C319.526 94.168 319.154 94.612 318.842 95.14C318.53 95.668 318.29 96.28 318.122 96.976C317.954 97.672 317.87 98.44 317.87 99.28C317.87 100.648 318.098 101.836 318.554 102.844C319.01 103.828 319.646 104.584 320.462 105.112C321.278 105.64 322.226 105.904 323.306 105.904ZM336.038 115.84V113.212H338.234C339.146 113.212 339.89 113.008 340.466 112.6C341.066 112.216 341.534 111.58 341.87 110.692L343.166 107.38L343.202 110.26L335.066 90.496H338.594L344.894 106.444L343.598 106.408L349.466 90.496H352.67L344.39 111.916C343.886 113.26 343.154 114.244 342.194 114.868C341.258 115.516 339.998 115.84 338.414 115.84H336.038Z" fill="#F0EDE4"/>
<g clip-path="url(#clip1_106_41)">
<mask id="mask0_106_41" style="mask-type:luminance" maskUnits="userSpaceOnUse" x="36" y="162" width="329" height="188">
<path d="M365 350V162L36 162V350H365Z" fill="white"/>
</mask>
<g mask="url(#mask0_106_41)">
<path d="M365 350V162L36 162V350H365Z" fill="white"/>
<path d="M200.5 162H36V296.841H200.5V162Z" fill="#D85000"/>
<path d="M365 162H200.5V296.841H365V162Z" fill="#FFFBF6"/>
<path d="M56.4638 255.101C56.3809 254.763 56.2502 254.466 56.0716 254.21C55.893 253.948 55.6697 253.729 55.4019 253.55C55.1404 253.364 54.8342 253.227 54.4834 253.138C54.139 253.042 53.7595 252.994 53.3448 252.994C52.4519 252.994 51.6897 253.208 51.0582 253.636C50.4332 254.064 49.9549 254.68 49.6231 255.484C49.2979 256.289 49.1352 257.259 49.1352 258.396C49.1352 259.544 49.2915 260.528 49.604 261.345C49.9166 262.162 50.3822 262.788 51.0009 263.222C51.6195 263.656 52.3882 263.873 53.3066 263.873C54.1166 263.873 54.7895 263.755 55.3253 263.519C55.8675 263.283 56.2725 262.948 56.5404 262.513C56.8083 262.079 56.9422 261.568 56.9422 260.981L57.8607 261.077H53.3831V257.284H62.0703V260.005C62.0703 261.792 61.6908 263.321 60.9318 264.592C60.1792 265.856 59.1395 266.826 57.8128 267.503C56.4926 268.173 54.9777 268.509 53.2683 268.509C51.3612 268.509 49.6869 268.103 48.2455 267.292C46.804 266.481 45.6782 265.326 44.8682 263.825C44.0645 262.325 43.6627 260.541 43.6627 258.472C43.6627 256.85 43.9082 255.414 44.3994 254.162C44.8969 252.911 45.5857 251.854 46.4659 250.992C47.3461 250.124 48.3635 249.47 49.5179 249.029C50.6724 248.583 51.9097 248.359 53.2301 248.359C54.3909 248.359 55.4688 248.525 56.4638 248.857C57.4652 249.182 58.3486 249.648 59.114 250.255C59.8857 250.855 60.5077 251.567 60.9797 252.391C61.4516 253.214 61.7386 254.118 61.8407 255.101H56.4638ZM64.8201 268.24V248.627H73.2777C74.7319 248.627 76.0043 248.892 77.095 249.422C78.1857 249.952 79.034 250.715 79.6399 251.71C80.2458 252.707 80.5488 253.9 80.5488 255.292C80.5488 256.697 80.2363 257.881 79.6112 258.845C78.9925 259.809 78.1219 260.537 76.9994 261.029C75.8832 261.521 74.5788 261.767 73.0863 261.767H68.0347V257.629H72.0148C72.6398 257.629 73.1724 257.553 73.6125 257.399C74.059 257.24 74.4002 256.987 74.6362 256.643C74.8785 256.298 74.9998 255.848 74.9998 255.292C74.9998 254.731 74.8785 254.274 74.6362 253.923C74.4002 253.565 74.059 253.304 73.6125 253.138C73.1724 252.966 72.6398 252.879 72.0148 252.879H70.1395V268.24H64.8201ZM76.301 259.238L81.1994 268.24H75.4207L70.637 259.238H76.301ZM102.067 258.434C102.067 260.617 101.643 262.459 100.795 263.96C99.9466 265.453 98.8017 266.586 97.3603 267.359C95.9187 268.125 94.3114 268.509 92.5383 268.509C90.7524 268.509 89.1387 268.122 87.6972 267.349C86.2621 266.571 85.1204 265.434 84.2721 263.94C83.4301 262.44 83.0092 260.604 83.0092 258.434C83.0092 256.25 83.4301 254.411 84.2721 252.918C85.1204 251.417 86.2621 250.284 87.6972 249.517C89.1387 248.745 90.7524 248.359 92.5383 248.359C94.3114 248.359 95.9187 248.745 97.3603 249.517C98.8017 250.284 99.9466 251.417 100.795 252.918C101.643 254.411 102.067 256.25 102.067 258.434ZM96.5949 258.434C96.5949 257.259 96.4386 256.269 96.1261 255.465C95.8199 254.654 95.3638 254.041 94.7579 253.626C94.1583 253.205 93.4185 252.994 92.5383 252.994C91.6581 252.994 90.915 253.205 90.3091 253.626C89.7095 254.041 89.2535 254.654 88.941 255.465C88.6348 256.269 88.4817 257.259 88.4817 258.434C88.4817 259.608 88.6348 260.601 88.941 261.412C89.2535 262.216 89.7095 262.83 90.3091 263.251C90.915 263.666 91.6581 263.873 92.5383 263.873C93.4185 263.873 94.1583 263.666 94.7579 263.251C95.3638 262.83 95.8199 262.216 96.1261 261.412C96.4386 260.601 96.5949 259.608 96.5949 258.434ZM123.779 258.434C123.779 260.617 123.355 262.459 122.508 263.96C121.659 265.453 120.514 266.586 119.072 267.359C117.631 268.125 116.024 268.509 114.251 268.509C112.465 268.509 110.851 268.122 109.41 267.349C107.975 266.571 106.833 265.434 105.984 263.94C105.142 262.44 104.721 260.604 104.721 258.434C104.721 256.25 105.142 254.411 105.984 252.918C106.833 251.417 107.975 250.284 109.41 249.517C110.851 248.745 112.465 248.359 114.251 248.359C116.024 248.359 117.631 248.745 119.072 249.517C120.514 250.284 121.659 251.417 122.508 252.918C123.355 254.411 123.779 256.25 123.779 258.434ZM118.307 258.434C118.307 257.259 118.151 256.269 117.838 255.465C117.532 254.654 117.076 254.041 116.47 253.626C115.871 253.205 115.131 252.994 114.251 252.994C113.371 252.994 112.627 253.205 112.022 253.626C111.422 254.041 110.966 254.654 110.653 255.465C110.347 256.269 110.194 257.259 110.194 258.434C110.194 259.608 110.347 260.601 110.653 261.412C110.966 262.216 111.422 262.83 112.022 263.251C112.627 263.666 113.371 263.873 114.251 263.873C115.131 263.873 115.871 263.666 116.47 263.251C117.076 262.83 117.532 262.216 117.838 261.412C118.151 260.601 118.307 259.608 118.307 258.434ZM130.631 248.627L134.65 262.456H134.803L138.821 248.627H144.83L138.362 268.24H131.091L124.623 248.627H130.631ZM146.986 268.24V248.627H161.107V252.918H152.305V256.289H160.38V260.579H152.305V263.95H161.069V268.24H146.986ZM54.3016 279.391C54.2506 278.752 54.0114 278.254 53.584 277.897C53.1631 277.539 52.5221 277.36 51.661 277.36C51.1125 277.36 50.6628 277.428 50.312 277.562C49.9676 277.689 49.7124 277.865 49.5466 278.088C49.3808 278.312 49.2947 278.567 49.2883 278.854C49.2755 279.09 49.317 279.304 49.4127 279.496C49.5147 279.681 49.6742 279.85 49.8911 280.004C50.1079 280.15 50.3853 280.285 50.7234 280.406C51.0615 280.527 51.4633 280.636 51.9289 280.731L53.5362 281.076C54.6205 281.306 55.5486 281.609 56.3203 281.986C57.0921 282.363 57.7235 282.806 58.2146 283.317C58.7058 283.822 59.0661 284.389 59.2958 285.021C59.5318 285.654 59.653 286.343 59.6593 287.09C59.653 288.38 59.3308 289.472 58.693 290.366C58.0552 291.259 57.1431 291.939 55.9568 292.405C54.7768 292.871 53.3576 293.105 51.6993 293.105C49.9963 293.105 48.5102 292.853 47.2409 292.348C45.978 291.844 44.9958 291.068 44.2941 290.021C43.5989 288.968 43.2481 287.62 43.2417 285.98H48.2933C48.3252 286.58 48.4751 287.084 48.7429 287.493C49.0109 287.901 49.3871 288.211 49.8719 288.422C50.3631 288.632 50.9466 288.737 51.6227 288.737C52.1904 288.737 52.6656 288.667 53.0483 288.527C53.431 288.387 53.7212 288.192 53.9189 287.943C54.1166 287.694 54.2187 287.41 54.2251 287.09C54.2187 286.791 54.1198 286.529 53.9285 286.305C53.7435 286.075 53.4373 285.871 53.01 285.692C52.5826 285.507 52.0054 285.335 51.2783 285.175L49.3266 284.754C47.5917 284.377 46.2236 283.748 45.2222 282.867C44.2271 281.98 43.7329 280.769 43.7392 279.238C43.7329 277.992 44.0645 276.904 44.7342 275.972C45.4103 275.034 46.3447 274.302 47.5375 273.778C48.7366 273.255 50.1111 272.993 51.661 272.993C53.2428 272.993 54.611 273.259 55.7654 273.788C56.9199 274.318 57.8097 275.065 58.4347 276.029C59.0661 276.987 59.385 278.108 59.3915 279.391H54.3016ZM61.4165 277.552V273.262H78.4464V277.552H72.5529V292.875H67.31V277.552H61.4165ZM92.3135 273.262H97.6329V285.826C97.6329 287.32 97.2757 288.613 96.5614 289.705C95.8534 290.79 94.8648 291.63 93.5955 292.224C92.3262 292.811 90.8529 293.105 89.1753 293.105C87.4851 293.105 86.0053 292.811 84.7361 292.224C83.4668 291.63 82.4782 290.79 81.7702 289.705C81.0686 288.613 80.7178 287.32 80.7178 285.826V273.262H86.0373V285.366C86.0373 285.973 86.1712 286.516 86.4391 286.995C86.7069 287.467 87.0769 287.838 87.5489 288.105C88.0273 288.374 88.5694 288.508 89.1753 288.508C89.7877 288.508 90.3298 288.374 90.8018 288.105C91.2738 287.838 91.6438 287.467 91.9116 286.995C92.1795 286.516 92.3135 285.973 92.3135 285.366V273.262ZM107.969 292.875H100.431V273.262H107.893C109.908 273.262 111.65 273.654 113.117 274.44C114.59 275.218 115.725 276.342 116.523 277.811C117.326 279.273 117.729 281.025 117.729 283.068C117.729 285.111 117.33 286.867 116.532 288.335C115.735 289.797 114.606 290.921 113.145 291.707C111.685 292.485 109.96 292.875 107.969 292.875ZM105.75 288.354H107.778C108.748 288.354 109.574 288.198 110.256 287.886C110.945 287.572 111.468 287.033 111.825 286.267C112.189 285.501 112.371 284.434 112.371 283.068C112.371 281.702 112.185 280.636 111.816 279.87C111.452 279.103 110.916 278.564 110.208 278.251C109.507 277.938 108.645 277.782 107.625 277.782H105.75V288.354ZM125.778 273.262V292.875H120.459V273.262H125.778ZM147.55 283.068C147.55 285.252 147.126 287.093 146.278 288.594C145.43 290.088 144.285 291.221 142.843 291.994C141.402 292.76 139.794 293.143 138.022 293.143C136.235 293.143 134.622 292.757 133.181 291.984C131.745 291.205 130.604 290.069 129.755 288.575C128.913 287.075 128.492 285.239 128.492 283.068C128.492 280.885 128.913 279.046 129.755 277.552C130.604 276.051 131.745 274.918 133.181 274.152C134.622 273.38 136.235 272.993 138.022 272.993C139.794 272.993 141.402 273.38 142.843 274.152C144.285 274.918 145.43 276.051 146.278 277.552C147.126 279.046 147.55 280.885 147.55 283.068ZM142.078 283.068C142.078 281.894 141.922 280.904 141.609 280.099C141.303 279.289 140.847 278.676 140.241 278.261C139.641 277.839 138.902 277.629 138.022 277.629C137.141 277.629 136.398 277.839 135.793 278.261C135.193 278.676 134.737 279.289 134.424 280.099C134.118 280.904 133.965 281.894 133.965 283.068C133.965 284.243 134.118 285.235 134.424 286.046C134.737 286.851 135.193 287.464 135.793 287.886C136.398 288.3 137.141 288.508 138.022 288.508C138.902 288.508 139.641 288.3 140.241 287.886C140.847 287.464 141.303 286.851 141.609 286.046C141.922 285.235 142.078 284.243 142.078 283.068Z" fill="#FFFBF6"/>
<path d="M149.7 187.988C149.7 194.976 148.325 201.896 145.654 208.352C142.981 214.809 139.066 220.675 134.129 225.617C129.193 230.558 123.332 234.478 116.882 237.152C110.432 239.826 103.519 241.203 96.5373 241.203C89.5559 241.203 82.6428 239.826 76.1928 237.152C69.7428 234.478 63.8822 230.558 58.9455 225.617C54.0089 220.675 50.093 214.809 47.4213 208.352C44.7496 201.896 43.3745 194.976 43.3745 187.988H64.6396C64.6396 192.181 65.4647 196.333 67.0677 200.207C68.6707 204.08 71.0203 207.6 73.9823 210.565C76.9442 213.53 80.4606 215.882 84.3306 217.486C88.2006 219.091 92.3484 219.917 96.5373 219.917C100.726 219.917 104.874 219.091 108.744 217.486C112.614 215.882 116.13 213.53 119.093 210.565C122.054 207.6 124.404 204.08 126.007 200.207C127.61 196.333 128.435 192.181 128.435 187.988H149.7Z" fill="#FFFBF6"/>
<path d="M98.0558 209.273H128.435V187.987H98.0558V209.273Z" fill="#FFFBF6"/>
<path d="M158.054 241.203C162.668 241.203 166.408 237.459 166.408 232.84C166.408 228.222 162.668 224.478 158.054 224.478C153.44 224.478 149.7 228.222 149.7 232.84C149.7 237.459 153.44 241.203 158.054 241.203Z" fill="#FFFBF6"/>
<path d="M220.964 255.101C220.881 254.763 220.75 254.466 220.571 254.21C220.393 253.948 220.17 253.729 219.902 253.55C219.64 253.364 219.334 253.227 218.983 253.138C218.639 253.042 218.259 252.994 217.845 252.994C216.952 252.994 216.189 253.208 215.558 253.636C214.933 254.064 214.454 254.68 214.123 255.484C213.798 256.289 213.635 257.259 213.635 258.396C213.635 259.544 213.791 260.528 214.104 261.345C214.416 262.162 214.882 262.788 215.501 263.222C216.12 263.656 216.888 263.873 217.807 263.873C218.616 263.873 219.29 263.755 219.825 263.519C220.367 263.283 220.772 262.948 221.04 262.513C221.308 262.079 221.442 261.568 221.442 260.981L222.361 261.077H217.883V257.284H226.57V260.005C226.57 261.792 226.191 263.321 225.432 264.592C224.679 265.856 223.639 266.826 222.313 267.503C220.992 268.173 219.478 268.509 217.768 268.509C215.861 268.509 214.187 268.103 212.745 267.292C211.304 266.481 210.178 265.326 209.368 263.825C208.564 262.325 208.163 260.541 208.163 258.472C208.163 256.85 208.408 255.414 208.899 254.162C209.397 252.911 210.085 251.854 210.966 250.992C211.846 250.124 212.863 249.47 214.018 249.029C215.172 248.583 216.41 248.359 217.73 248.359C218.891 248.359 219.968 248.525 220.964 248.857C221.965 249.182 222.848 249.648 223.614 250.255C224.385 250.855 225.008 251.567 225.479 252.391C225.951 253.214 226.238 254.118 226.341 255.101H220.964ZM229.32 268.24V248.627H237.777C239.232 248.627 240.504 248.892 241.595 249.422C242.686 249.952 243.534 250.715 244.14 251.71C244.746 252.707 245.049 253.9 245.049 255.292C245.049 256.697 244.736 257.881 244.111 258.845C243.493 259.809 242.622 260.537 241.499 261.029C240.383 261.521 239.079 261.767 237.586 261.767H232.535V257.629H236.514C237.14 257.629 237.672 257.553 238.113 257.399C238.559 257.24 238.9 256.987 239.136 256.643C239.378 256.298 239.5 255.848 239.5 255.292C239.5 254.731 239.378 254.274 239.136 253.923C238.9 253.565 238.559 253.304 238.113 253.138C237.672 252.966 237.14 252.879 236.514 252.879H234.639V268.24H229.32ZM240.801 259.238L245.699 268.24H239.921L235.137 259.238H240.801ZM266.567 258.434C266.567 260.617 266.143 262.459 265.295 263.96C264.446 265.453 263.302 266.586 261.86 267.359C260.419 268.125 258.811 268.509 257.038 268.509C255.252 268.509 253.638 268.122 252.197 267.349C250.762 266.571 249.621 265.434 248.772 263.94C247.93 262.44 247.509 260.604 247.509 258.434C247.509 256.25 247.93 254.411 248.772 252.918C249.621 251.417 250.762 250.284 252.197 249.517C253.638 248.745 255.252 248.359 257.038 248.359C258.811 248.359 260.419 248.745 261.86 249.517C263.302 250.284 264.446 251.417 265.295 252.918C266.143 254.411 266.567 256.25 266.567 258.434ZM261.095 258.434C261.095 257.259 260.939 256.269 260.626 255.465C260.32 254.654 259.864 254.041 259.258 253.626C258.658 253.205 257.918 252.994 257.038 252.994C256.158 252.994 255.415 253.205 254.809 253.626C254.21 254.041 253.753 254.654 253.441 255.465C253.135 256.269 252.982 257.259 252.982 258.434C252.982 259.608 253.135 260.601 253.441 261.412C253.753 262.216 254.21 262.83 254.809 263.251C255.415 263.666 256.158 263.873 257.038 263.873C257.918 263.873 258.658 263.666 259.258 263.251C259.864 262.83 260.32 262.216 260.626 261.412C260.939 260.601 261.095 259.608 261.095 258.434ZM288.279 258.434C288.279 260.617 287.855 262.459 287.007 263.96C286.159 265.453 285.014 266.586 283.572 267.359C282.131 268.125 280.524 268.509 278.751 268.509C276.964 268.509 275.351 268.122 273.91 267.349C272.474 266.571 271.333 265.434 270.484 263.94C269.642 262.44 269.221 260.604 269.221 258.434C269.221 256.25 269.642 254.411 270.484 252.918C271.333 251.417 272.474 250.284 273.91 249.517C275.351 248.745 276.964 248.359 278.751 248.359C280.524 248.359 282.131 248.745 283.572 249.517C285.014 250.284 286.159 251.417 287.007 252.918C287.855 254.411 288.279 256.25 288.279 258.434ZM282.807 258.434C282.807 257.259 282.651 256.269 282.338 255.465C282.032 254.654 281.576 254.041 280.97 253.626C280.37 253.205 279.631 252.994 278.751 252.994C277.871 252.994 277.127 253.205 276.521 253.626C275.922 254.041 275.466 254.654 275.153 255.465C274.847 256.269 274.694 257.259 274.694 258.434C274.694 259.608 274.847 260.601 275.153 261.412C275.466 262.216 275.922 262.83 276.521 263.251C277.127 263.666 277.871 263.873 278.751 263.873C279.631 263.873 280.37 263.666 280.97 263.251C281.576 262.83 282.032 262.216 282.338 261.412C282.651 260.601 282.807 259.608 282.807 258.434ZM295.131 248.627L299.15 262.456H299.303L303.321 248.627H309.329L302.862 268.24H295.591L289.123 248.627H295.131ZM311.486 268.24V248.627H325.607V252.918H316.805V256.289H324.88V260.579H316.805V263.95H325.569V268.24H311.486ZM218.801 279.391C218.75 278.752 218.511 278.254 218.084 277.897C217.663 277.539 217.022 277.36 216.161 277.36C215.612 277.36 215.163 277.428 214.812 277.562C214.467 277.689 214.212 277.865 214.046 278.088C213.881 278.312 213.795 278.567 213.788 278.854C213.775 279.09 213.817 279.304 213.912 279.496C214.015 279.681 214.174 279.85 214.391 280.004C214.608 280.15 214.885 280.285 215.223 280.406C215.561 280.527 215.963 280.636 216.428 280.731L218.036 281.076C219.121 281.306 220.048 281.609 220.82 281.986C221.592 282.363 222.224 282.806 222.714 283.317C223.205 283.822 223.566 284.389 223.795 285.021C224.032 285.654 224.153 286.343 224.159 287.09C224.153 288.38 223.831 289.472 223.193 290.366C222.555 291.259 221.643 291.939 220.457 292.405C219.277 292.871 217.858 293.105 216.199 293.105C214.496 293.105 213.01 292.853 211.741 292.348C210.478 291.844 209.496 291.068 208.794 290.021C208.099 288.968 207.748 287.62 207.742 285.98H212.793C212.825 286.58 212.975 287.084 213.243 287.493C213.511 287.901 213.887 288.211 214.372 288.422C214.863 288.632 215.447 288.737 216.123 288.737C216.69 288.737 217.165 288.667 217.548 288.527C217.931 288.387 218.221 288.192 218.419 287.943C218.616 287.694 218.719 287.41 218.725 287.09C218.719 286.791 218.619 286.529 218.428 286.305C218.243 286.075 217.937 285.871 217.51 285.692C217.083 285.507 216.506 285.335 215.778 285.175L213.826 284.754C212.091 284.377 210.723 283.748 209.722 282.867C208.727 281.98 208.233 280.769 208.239 279.238C208.233 277.992 208.564 276.904 209.234 275.972C209.91 275.034 210.845 274.302 212.037 273.778C213.236 273.255 214.611 272.993 216.161 272.993C217.743 272.993 219.111 273.259 220.265 273.788C221.42 274.318 222.31 275.065 222.935 276.029C223.566 276.987 223.885 278.108 223.891 279.391H218.801ZM225.916 277.552V273.262H242.946V277.552H237.052V292.875H231.81V277.552H225.916ZM256.813 273.262H262.133V285.826C262.133 287.32 261.775 288.613 261.061 289.705C260.353 290.79 259.365 291.63 258.096 292.224C256.826 292.811 255.353 293.105 253.675 293.105C251.985 293.105 250.505 292.811 249.236 292.224C247.966 291.63 246.978 290.79 246.27 289.705C245.568 288.613 245.218 287.32 245.218 285.826V273.262H250.537V285.366C250.537 285.973 250.671 286.516 250.939 286.995C251.207 287.467 251.577 287.838 252.049 288.105C252.527 288.374 253.069 288.508 253.675 288.508C254.287 288.508 254.829 288.374 255.302 288.105C255.774 287.838 256.144 287.467 256.412 286.995C256.679 286.516 256.813 285.973 256.813 285.366V273.262ZM272.469 292.875H264.93V273.262H272.393C274.408 273.262 276.15 273.654 277.617 274.44C279.09 275.218 280.225 276.342 281.023 277.811C281.826 279.273 282.228 281.025 282.228 283.068C282.228 285.111 281.83 286.867 281.032 288.335C280.235 289.797 279.106 290.921 277.645 291.707C276.185 292.485 274.459 292.875 272.469 292.875ZM270.25 288.354H272.278C273.248 288.354 274.073 288.198 274.756 287.886C275.445 287.572 275.968 287.033 276.325 286.267C276.689 285.501 276.871 284.434 276.871 283.068C276.871 281.702 276.685 280.636 276.316 279.87C275.952 279.103 275.416 278.564 274.708 278.251C274.007 277.938 273.145 277.782 272.125 277.782H270.25V288.354ZM290.278 273.262V292.875H284.959V273.262H290.278ZM312.05 283.068C312.05 285.252 311.626 287.093 310.778 288.594C309.93 290.088 308.785 291.221 307.343 291.994C305.902 292.76 304.294 293.143 302.522 293.143C300.735 293.143 299.121 292.757 297.68 291.984C296.245 291.205 295.104 290.069 294.255 288.575C293.413 287.075 292.992 285.239 292.992 283.068C292.992 280.885 293.413 279.046 294.255 277.552C295.104 276.051 296.245 274.918 297.68 274.152C299.121 273.38 300.735 272.993 302.522 272.993C304.294 272.993 305.902 273.38 307.343 274.152C308.785 274.918 309.93 276.051 310.778 277.552C311.626 279.046 312.05 280.885 312.05 283.068ZM306.578 283.068C306.578 281.894 306.422 280.904 306.109 280.099C305.803 279.289 305.347 278.676 304.741 278.261C304.141 277.839 303.402 277.629 302.522 277.629C301.641 277.629 300.898 277.839 300.292 278.261C299.693 278.676 299.237 279.289 298.924 280.099C298.618 280.904 298.465 281.894 298.465 283.068C298.465 284.243 298.618 285.235 298.924 286.046C299.237 286.851 299.693 287.464 300.292 287.886C300.898 288.3 301.641 288.508 302.522 288.508C303.402 288.508 304.141 288.3 304.741 287.886C305.347 287.464 305.803 286.851 306.109 286.046C306.422 285.235 306.578 284.243 306.578 283.068Z" fill="#0D263A"/>
<path d="M314.2 187.988C314.2 194.976 312.825 201.896 310.153 208.352C307.481 214.809 303.566 220.675 298.629 225.617C293.692 230.558 287.832 234.478 281.381 237.152C274.932 239.826 268.019 241.203 261.037 241.203C254.056 241.203 247.143 239.826 240.693 237.152C234.242 234.478 228.382 230.558 223.446 225.617C218.509 220.675 214.593 214.809 211.921 208.352C209.249 201.896 207.875 194.976 207.875 187.988H229.14C229.14 192.181 229.965 196.333 231.568 200.207C233.171 204.08 235.52 207.6 238.482 210.565C241.444 213.53 244.96 215.882 248.83 217.486C252.7 219.091 256.848 219.917 261.037 219.917C265.226 219.917 269.374 219.091 273.244 217.486C277.114 215.882 280.63 213.53 283.592 210.565C286.554 207.6 288.904 204.08 290.507 200.207C292.11 196.333 292.935 192.181 292.935 187.988H314.2Z" fill="#0D263A"/>
<path d="M262.556 209.273H292.935V187.987H262.556V209.273Z" fill="#0D263A"/>
<path d="M322.554 241.203C327.168 241.203 330.908 237.459 330.908 232.84C330.908 228.222 327.168 224.478 322.554 224.478C317.94 224.478 314.2 228.222 314.2 232.84C314.2 237.459 317.94 241.203 322.554 241.203Z" fill="#0D263A"/>
<path d="M118.898 296.258H36V350.065H118.898V296.258Z" fill="#0D263A"/>
<path d="M200.5 296.258H118.25V350.065H200.5V296.258Z" fill="#D85000"/>
<path d="M365 296.258H282.75V350.065H365V296.258Z" fill="#FFFBF6"/>
<path d="M282.75 296.258H200.5V350.065H282.75V296.258Z" fill="#D2C5D4"/>
</g>
</g>
<rect x="279" y="151" width="111" height="20" rx="10" fill="#F0EDE4"/>
<path d="M285.56 165V156.6H288.512C289.104 156.6 289.592 156.696 289.976 156.888C290.368 157.072 290.66 157.328 290.852 157.656C291.044 157.976 291.14 158.336 291.14 158.736C291.14 159.168 291.044 159.528 290.852 159.816C290.668 160.104 290.424 160.324 290.12 160.476C289.824 160.628 289.508 160.72 289.172 160.752L289.34 160.632C289.7 160.64 290.032 160.736 290.336 160.92C290.64 161.104 290.88 161.352 291.056 161.664C291.24 161.976 291.332 162.324 291.332 162.708C291.332 163.132 291.228 163.52 291.02 163.872C290.812 164.216 290.504 164.492 290.096 164.7C289.696 164.9 289.2 165 288.608 165H285.56ZM286.568 164.16H288.5C289.068 164.16 289.508 164.028 289.82 163.764C290.14 163.492 290.3 163.116 290.3 162.636C290.3 162.164 290.136 161.788 289.808 161.508C289.488 161.22 289.044 161.076 288.476 161.076H286.568V164.16ZM286.568 160.272H288.44C288.984 160.272 289.396 160.144 289.676 159.888C289.964 159.632 290.108 159.284 290.108 158.844C290.108 158.42 289.964 158.08 289.676 157.824C289.396 157.568 288.972 157.44 288.404 157.44H286.568V160.272ZM292.719 165V158.844H293.631L293.715 159.996C293.851 159.716 294.027 159.48 294.243 159.288C294.467 159.096 294.735 158.952 295.047 158.856C295.359 158.752 295.711 158.7 296.103 158.7V159.756H295.635C295.387 159.756 295.147 159.792 294.915 159.864C294.691 159.928 294.487 160.036 294.303 160.188C294.127 160.332 293.987 160.532 293.883 160.788C293.779 161.044 293.727 161.364 293.727 161.748V165H292.719ZM299.14 165.144C298.652 165.144 298.244 165.056 297.916 164.88C297.596 164.704 297.356 164.472 297.196 164.184C297.036 163.896 296.956 163.58 296.956 163.236C296.956 162.828 297.06 162.48 297.268 162.192C297.484 161.904 297.784 161.688 298.168 161.544C298.552 161.392 299.004 161.316 299.524 161.316H301.108C301.108 160.924 301.056 160.6 300.952 160.344C300.848 160.08 300.684 159.884 300.46 159.756C300.244 159.62 299.968 159.552 299.632 159.552C299.256 159.552 298.932 159.648 298.66 159.84C298.388 160.024 298.22 160.3 298.156 160.668H297.124C297.172 160.244 297.316 159.888 297.556 159.6C297.796 159.304 298.1 159.08 298.468 158.928C298.836 158.776 299.224 158.7 299.632 158.7C300.192 158.7 300.656 158.804 301.024 159.012C301.392 159.212 301.664 159.496 301.84 159.864C302.024 160.224 302.116 160.652 302.116 161.148V165H301.216L301.156 163.92C301.076 164.088 300.972 164.248 300.844 164.4C300.724 164.544 300.58 164.672 300.412 164.784C300.252 164.896 300.064 164.984 299.848 165.048C299.632 165.112 299.396 165.144 299.14 165.144ZM299.284 164.292C299.556 164.292 299.804 164.232 300.028 164.112C300.26 163.992 300.456 163.832 300.616 163.632C300.776 163.432 300.896 163.208 300.976 162.96C301.064 162.704 301.108 162.44 301.108 162.168V162.096H299.608C299.224 162.096 298.912 162.144 298.672 162.24C298.44 162.328 298.272 162.456 298.168 162.624C298.064 162.792 298.012 162.98 298.012 163.188C298.012 163.412 298.06 163.608 298.156 163.776C298.252 163.936 298.396 164.064 298.588 164.16C298.78 164.248 299.012 164.292 299.284 164.292ZM303.688 165V158.844H304.6L304.66 159.876C304.844 159.508 305.112 159.22 305.464 159.012C305.816 158.804 306.22 158.7 306.676 158.7C307.148 158.7 307.556 158.792 307.9 158.976C308.244 159.16 308.512 159.44 308.704 159.816C308.896 160.184 308.992 160.652 308.992 161.22V165H307.984V161.328C307.984 160.744 307.848 160.304 307.576 160.008C307.304 159.712 306.928 159.564 306.448 159.564C306.128 159.564 305.832 159.644 305.56 159.804C305.296 159.964 305.084 160.196 304.924 160.5C304.772 160.796 304.696 161.164 304.696 161.604V165H303.688ZM313.23 165.144C312.654 165.144 312.146 165.004 311.706 164.724C311.274 164.444 310.934 164.06 310.686 163.572C310.446 163.084 310.326 162.532 310.326 161.916C310.326 161.292 310.446 160.74 310.686 160.26C310.934 159.78 311.274 159.4 311.706 159.12C312.146 158.84 312.658 158.7 313.242 158.7C313.73 158.7 314.158 158.8 314.526 159C314.894 159.2 315.178 159.48 315.378 159.84V156.36H316.386V165H315.474L315.39 164.004C315.27 164.196 315.11 164.38 314.91 164.556C314.71 164.732 314.47 164.876 314.19 164.988C313.918 165.092 313.598 165.144 313.23 165.144ZM313.35 164.268C313.75 164.268 314.098 164.172 314.394 163.98C314.698 163.788 314.93 163.516 315.09 163.164C315.258 162.812 315.342 162.4 315.342 161.928C315.342 161.448 315.258 161.036 315.09 160.692C314.93 160.34 314.698 160.068 314.394 159.876C314.098 159.676 313.75 159.576 313.35 159.576C312.966 159.576 312.622 159.676 312.318 159.876C312.022 160.068 311.786 160.34 311.61 160.692C311.442 161.036 311.358 161.448 311.358 161.928C311.358 162.4 311.442 162.812 311.61 163.164C311.786 163.516 312.022 163.788 312.318 163.98C312.622 164.172 312.966 164.268 313.35 164.268ZM321.349 165V156.6H322.357V165H321.349ZM324.102 165V156.36H325.11V165H324.102ZM326.774 165V156.36H327.782V165H326.774ZM331.677 165.144C331.213 165.144 330.805 165.056 330.453 164.88C330.109 164.696 329.841 164.416 329.649 164.04C329.465 163.664 329.373 163.192 329.373 162.624V158.844H330.381V162.516C330.381 163.108 330.513 163.552 330.777 163.848C331.049 164.136 331.421 164.28 331.893 164.28C332.229 164.28 332.529 164.204 332.793 164.052C333.057 163.892 333.265 163.66 333.417 163.356C333.577 163.052 333.657 162.684 333.657 162.252V158.844H334.665V165H333.753L333.693 163.968C333.509 164.336 333.241 164.624 332.889 164.832C332.537 165.04 332.133 165.144 331.677 165.144ZM338.604 165.144C338.076 165.144 337.624 165.06 337.248 164.892C336.88 164.724 336.592 164.488 336.384 164.184C336.176 163.88 336.048 163.524 336 163.116H337.032C337.072 163.324 337.152 163.52 337.272 163.704C337.4 163.88 337.572 164.024 337.788 164.136C338.012 164.24 338.288 164.292 338.616 164.292C338.896 164.292 339.128 164.252 339.312 164.172C339.504 164.084 339.644 163.968 339.732 163.824C339.828 163.672 339.876 163.508 339.876 163.332C339.876 163.076 339.816 162.88 339.696 162.744C339.584 162.608 339.416 162.504 339.192 162.432C338.976 162.352 338.708 162.288 338.388 162.24C338.084 162.192 337.8 162.128 337.536 162.048C337.28 161.96 337.052 161.848 336.852 161.712C336.66 161.576 336.508 161.408 336.396 161.208C336.292 161 336.24 160.752 336.24 160.464C336.24 160.12 336.328 159.816 336.504 159.552C336.688 159.288 336.944 159.08 337.272 158.928C337.608 158.776 338.004 158.7 338.46 158.7C339.116 158.7 339.644 158.856 340.044 159.168C340.444 159.48 340.68 159.928 340.752 160.512H339.756C339.716 160.216 339.58 159.984 339.348 159.816C339.124 159.64 338.824 159.552 338.448 159.552C338.056 159.552 337.76 159.628 337.56 159.78C337.36 159.932 337.26 160.132 337.26 160.38C337.26 160.556 337.308 160.712 337.404 160.848C337.508 160.976 337.668 161.088 337.884 161.184C338.108 161.272 338.388 161.344 338.724 161.4C339.148 161.464 339.524 161.556 339.852 161.676C340.18 161.796 340.44 161.98 340.632 162.228C340.824 162.468 340.916 162.808 340.908 163.248C340.916 163.632 340.824 163.968 340.632 164.256C340.44 164.544 340.172 164.764 339.828 164.916C339.484 165.068 339.076 165.144 338.604 165.144ZM344.49 165C344.13 165 343.818 164.944 343.554 164.832C343.29 164.72 343.086 164.532 342.942 164.268C342.806 163.996 342.738 163.632 342.738 163.176V159.696H341.658V158.844H342.738L342.87 157.344H343.746V158.844H345.51V159.696H343.746V163.176C343.746 163.552 343.822 163.808 343.974 163.944C344.126 164.072 344.394 164.136 344.778 164.136H345.45V165H344.49ZM346.778 165V158.844H347.69L347.774 159.996C347.91 159.716 348.086 159.48 348.302 159.288C348.526 159.096 348.794 158.952 349.105 158.856C349.418 158.752 349.77 158.7 350.162 158.7V159.756H349.694C349.446 159.756 349.206 159.792 348.974 159.864C348.75 159.928 348.546 160.036 348.362 160.188C348.186 160.332 348.046 160.532 347.942 160.788C347.838 161.044 347.786 161.364 347.786 161.748V165H346.778ZM353.199 165.144C352.711 165.144 352.303 165.056 351.975 164.88C351.655 164.704 351.415 164.472 351.255 164.184C351.095 163.896 351.015 163.58 351.015 163.236C351.015 162.828 351.119 162.48 351.327 162.192C351.543 161.904 351.843 161.688 352.227 161.544C352.611 161.392 353.063 161.316 353.583 161.316H355.167C355.167 160.924 355.115 160.6 355.011 160.344C354.907 160.08 354.743 159.884 354.519 159.756C354.303 159.62 354.027 159.552 353.691 159.552C353.315 159.552 352.991 159.648 352.719 159.84C352.447 160.024 352.279 160.3 352.215 160.668H351.183C351.231 160.244 351.375 159.888 351.615 159.6C351.855 159.304 352.159 159.08 352.527 158.928C352.895 158.776 353.283 158.7 353.691 158.7C354.251 158.7 354.715 158.804 355.083 159.012C355.451 159.212 355.723 159.496 355.899 159.864C356.083 160.224 356.175 160.652 356.175 161.148V165H355.275L355.215 163.92C355.135 164.088 355.031 164.248 354.903 164.4C354.783 164.544 354.639 164.672 354.471 164.784C354.311 164.896 354.123 164.984 353.907 165.048C353.691 165.112 353.455 165.144 353.199 165.144ZM353.343 164.292C353.615 164.292 353.863 164.232 354.087 164.112C354.319 163.992 354.515 163.832 354.675 163.632C354.835 163.432 354.955 163.208 355.035 162.96C355.123 162.704 355.167 162.44 355.167 162.168V162.096H353.667C353.283 162.096 352.971 162.144 352.731 162.24C352.499 162.328 352.331 162.456 352.227 162.624C352.123 162.792 352.071 162.98 352.071 163.188C352.071 163.412 352.119 163.608 352.215 163.776C352.311 163.936 352.455 164.064 352.647 164.16C352.839 164.248 353.071 164.292 353.343 164.292ZM359.994 165C359.634 165 359.322 164.944 359.058 164.832C358.794 164.72 358.59 164.532 358.446 164.268C358.31 163.996 358.242 163.632 358.242 163.176V159.696H357.162V158.844H358.242L358.374 157.344H359.25V158.844H361.014V159.696H359.25V163.176C359.25 163.552 359.326 163.808 359.478 163.944C359.63 164.072 359.898 164.136 360.282 164.136H360.954V165H359.994ZM362.389 165V158.844H363.397V165H362.389ZM362.893 157.596C362.693 157.596 362.525 157.532 362.389 157.404C362.261 157.268 362.197 157.1 362.197 156.9C362.197 156.7 362.261 156.54 362.389 156.42C362.525 156.292 362.693 156.228 362.893 156.228C363.085 156.228 363.249 156.292 363.385 156.42C363.521 156.54 363.589 156.7 363.589 156.9C363.589 157.1 363.521 157.268 363.385 157.404C363.249 157.532 363.085 157.596 362.893 157.596ZM367.876 165.144C367.3 165.144 366.788 165.012 366.34 164.748C365.892 164.484 365.54 164.112 365.284 163.632C365.036 163.144 364.912 162.576 364.912 161.928C364.912 161.272 365.04 160.704 365.296 160.224C365.552 159.744 365.904 159.372 366.352 159.108C366.808 158.836 367.324 158.7 367.9 158.7C368.476 158.7 368.988 158.836 369.436 159.108C369.884 159.372 370.232 159.744 370.48 160.224C370.736 160.704 370.864 161.272 370.864 161.928C370.864 162.576 370.736 163.144 370.48 163.632C370.224 164.112 369.868 164.484 369.412 164.748C368.964 165.012 368.452 165.144 367.876 165.144ZM367.876 164.28C368.236 164.28 368.564 164.192 368.86 164.016C369.156 163.84 369.392 163.576 369.568 163.224C369.744 162.872 369.832 162.44 369.832 161.928C369.832 161.4 369.744 160.964 369.568 160.62C369.4 160.268 369.168 160.004 368.872 159.828C368.576 159.652 368.252 159.564 367.9 159.564C367.548 159.564 367.224 159.652 366.928 159.828C366.632 160.004 366.392 160.268 366.208 160.62C366.032 160.964 365.944 161.4 365.944 161.928C365.944 162.44 366.032 162.872 366.208 163.224C366.384 163.576 366.616 163.84 366.904 164.016C367.2 164.192 367.524 164.28 367.876 164.28ZM372.278 165V158.844H373.19L373.25 159.876C373.434 159.508 373.702 159.22 374.054 159.012C374.406 158.804 374.81 158.7 375.266 158.7C375.738 158.7 376.146 158.792 376.49 158.976C376.834 159.16 377.102 159.44 377.294 159.816C377.486 160.184 377.582 160.652 377.582 161.22V165H376.574V161.328C376.574 160.744 376.438 160.304 376.166 160.008C375.894 159.712 375.518 159.564 375.038 159.564C374.718 159.564 374.422 159.644 374.15 159.804C373.886 159.964 373.674 160.196 373.514 160.5C373.362 160.796 373.286 161.164 373.286 161.604V165H372.278ZM381.448 165.144C380.92 165.144 380.468 165.06 380.092 164.892C379.724 164.724 379.436 164.488 379.228 164.184C379.02 163.88 378.892 163.524 378.844 163.116H379.876C379.916 163.324 379.996 163.52 380.116 163.704C380.244 163.88 380.416 164.024 380.632 164.136C380.856 164.24 381.132 164.292 381.46 164.292C381.74 164.292 381.972 164.252 382.156 164.172C382.348 164.084 382.488 163.968 382.576 163.824C382.672 163.672 382.72 163.508 382.72 163.332C382.72 163.076 382.66 162.88 382.54 162.744C382.428 162.608 382.26 162.504 382.036 162.432C381.82 162.352 381.552 162.288 381.232 162.24C380.928 162.192 380.644 162.128 380.38 162.048C380.124 161.96 379.896 161.848 379.696 161.712C379.504 161.576 379.352 161.408 379.24 161.208C379.136 161 379.084 160.752 379.084 160.464C379.084 160.12 379.172 159.816 379.348 159.552C379.532 159.288 379.788 159.08 380.116 158.928C380.452 158.776 380.848 158.7 381.304 158.7C381.96 158.7 382.488 158.856 382.888 159.168C383.288 159.48 383.524 159.928 383.596 160.512H382.6C382.56 160.216 382.424 159.984 382.192 159.816C381.968 159.64 381.668 159.552 381.292 159.552C380.9 159.552 380.604 159.628 380.404 159.78C380.204 159.932 380.104 160.132 380.104 160.38C380.104 160.556 380.152 160.712 380.248 160.848C380.352 160.976 380.512 161.088 380.728 161.184C380.952 161.272 381.232 161.344 381.568 161.4C381.992 161.464 382.368 161.556 382.696 161.676C383.024 161.796 383.284 161.98 383.476 162.228C383.668 162.468 383.76 162.808 383.752 163.248C383.76 163.632 383.668 163.968 383.476 164.256C383.284 164.544 383.016 164.764 382.672 164.916C382.328 165.068 381.92 165.144 381.448 165.144Z" fill="#070815"/>
<rect x="19" y="152" width="83" height="20" rx="10" fill="#F0EDE4"/>
<path d="M27.773 166V157.6H28.781V165.196H32.693V166H27.773ZM36.4954 166.144C35.9194 166.144 35.4074 166.012 34.9594 165.748C34.5114 165.484 34.1594 165.112 33.9034 164.632C33.6554 164.144 33.5314 163.576 33.5314 162.928C33.5314 162.272 33.6594 161.704 33.9154 161.224C34.1714 160.744 34.5234 160.372 34.9714 160.108C35.4274 159.836 35.9434 159.7 36.5194 159.7C37.0954 159.7 37.6074 159.836 38.0554 160.108C38.5034 160.372 38.8514 160.744 39.0994 161.224C39.3554 161.704 39.4834 162.272 39.4834 162.928C39.4834 163.576 39.3554 164.144 39.0994 164.632C38.8434 165.112 38.4874 165.484 38.0314 165.748C37.5834 166.012 37.0714 166.144 36.4954 166.144ZM36.4954 165.28C36.8554 165.28 37.1834 165.192 37.4794 165.016C37.7754 164.84 38.0114 164.576 38.1874 164.224C38.3634 163.872 38.4514 163.44 38.4514 162.928C38.4514 162.4 38.3634 161.964 38.1874 161.62C38.0194 161.268 37.7874 161.004 37.4914 160.828C37.1954 160.652 36.8714 160.564 36.5194 160.564C36.1674 160.564 35.8434 160.652 35.5474 160.828C35.2514 161.004 35.0114 161.268 34.8274 161.62C34.6514 161.964 34.5634 162.4 34.5634 162.928C34.5634 163.44 34.6514 163.872 34.8274 164.224C35.0034 164.576 35.2354 164.84 35.5234 165.016C35.8194 165.192 36.1434 165.28 36.4954 165.28ZM43.0628 168.784C42.5108 168.784 42.0228 168.712 41.5988 168.568C41.1748 168.432 40.8468 168.22 40.6148 167.932C40.3828 167.644 40.2668 167.288 40.2668 166.864C40.2668 166.672 40.3028 166.472 40.3748 166.264C40.4548 166.056 40.5868 165.852 40.7708 165.652C40.9628 165.452 41.2308 165.272 41.5748 165.112L42.2948 165.52C41.8628 165.696 41.5788 165.896 41.4428 166.12C41.3148 166.352 41.2508 166.568 41.2508 166.768C41.2508 167.032 41.3268 167.252 41.4788 167.428C41.6308 167.604 41.8428 167.736 42.1148 167.824C42.3948 167.912 42.7108 167.956 43.0628 167.956C43.4148 167.956 43.7148 167.908 43.9628 167.812C44.2188 167.716 44.4148 167.58 44.5508 167.404C44.6868 167.236 44.7548 167.032 44.7548 166.792C44.7548 166.496 44.6508 166.252 44.4428 166.06C44.2348 165.876 43.8308 165.768 43.2308 165.736C42.7508 165.704 42.3468 165.66 42.0188 165.604C41.6988 165.548 41.4348 165.484 41.2268 165.412C41.0188 165.332 40.8428 165.244 40.6988 165.148C40.5628 165.052 40.4388 164.952 40.3268 164.848V164.572L41.5028 163.42L42.4028 163.732L41.1668 164.812L41.3228 164.368C41.4108 164.432 41.4948 164.492 41.5748 164.548C41.6548 164.604 41.7628 164.656 41.8988 164.704C42.0348 164.744 42.2268 164.784 42.4748 164.824C42.7228 164.856 43.0508 164.888 43.4588 164.92C44.0188 164.96 44.4668 165.056 44.8028 165.208C45.1388 165.36 45.3788 165.568 45.5228 165.832C45.6748 166.088 45.7508 166.396 45.7508 166.756C45.7508 167.1 45.6548 167.424 45.4628 167.728C45.2788 168.04 44.9868 168.292 44.5868 168.484C44.1948 168.684 43.6868 168.784 43.0628 168.784ZM43.0508 164.08C42.5468 164.08 42.1148 163.984 41.7548 163.792C41.4028 163.592 41.1348 163.328 40.9508 163C40.7668 162.672 40.6748 162.304 40.6748 161.896C40.6748 161.48 40.7668 161.112 40.9508 160.792C41.1428 160.464 41.4148 160.2 41.7668 160C42.1188 159.8 42.5468 159.7 43.0508 159.7C43.5628 159.7 43.9948 159.8 44.3468 160C44.6988 160.2 44.9668 160.464 45.1508 160.792C45.3348 161.112 45.4268 161.48 45.4268 161.896C45.4268 162.304 45.3348 162.672 45.1508 163C44.9668 163.328 44.6988 163.592 44.3468 163.792C43.9948 163.984 43.5628 164.08 43.0508 164.08ZM43.0508 163.252C43.4908 163.252 43.8348 163.136 44.0828 162.904C44.3308 162.672 44.4548 162.336 44.4548 161.896C44.4548 161.448 44.3308 161.112 44.0828 160.888C43.8348 160.656 43.4908 160.54 43.0508 160.54C42.6268 160.54 42.2828 160.656 42.0188 160.888C41.7548 161.112 41.6228 161.448 41.6228 161.896C41.6228 162.336 41.7508 162.672 42.0068 162.904C42.2708 163.136 42.6188 163.252 43.0508 163.252ZM44.0588 160.696L43.7588 159.844H46.2308V160.6L44.0588 160.696ZM49.8079 166.144C49.2319 166.144 48.7199 166.012 48.2719 165.748C47.8239 165.484 47.4719 165.112 47.2159 164.632C46.9679 164.144 46.8439 163.576 46.8439 162.928C46.8439 162.272 46.9719 161.704 47.2279 161.224C47.4839 160.744 47.8359 160.372 48.2839 160.108C48.7399 159.836 49.2559 159.7 49.8319 159.7C50.4079 159.7 50.9199 159.836 51.3679 160.108C51.8159 160.372 52.1639 160.744 52.4119 161.224C52.6679 161.704 52.7959 162.272 52.7959 162.928C52.7959 163.576 52.6679 164.144 52.4119 164.632C52.1559 165.112 51.7999 165.484 51.3439 165.748C50.8959 166.012 50.3839 166.144 49.8079 166.144ZM49.8079 165.28C50.1679 165.28 50.4959 165.192 50.7919 165.016C51.0879 164.84 51.3239 164.576 51.4999 164.224C51.6759 163.872 51.7639 163.44 51.7639 162.928C51.7639 162.4 51.6759 161.964 51.4999 161.62C51.3319 161.268 51.0999 161.004 50.8039 160.828C50.5079 160.652 50.1839 160.564 49.8319 160.564C49.4799 160.564 49.1559 160.652 48.8599 160.828C48.5639 161.004 48.3239 161.268 48.1399 161.62C47.9639 161.964 47.8759 162.4 47.8759 162.928C47.8759 163.44 47.9639 163.872 48.1399 164.224C48.3159 164.576 48.5479 164.84 48.8359 165.016C49.1319 165.192 49.4559 165.28 49.8079 165.28ZM57.4566 166V157.6H59.9286C60.9126 157.6 61.7206 157.772 62.3526 158.116C62.9926 158.452 63.4646 158.936 63.7686 159.568C64.0806 160.192 64.2366 160.944 64.2366 161.824C64.2366 162.688 64.0806 163.432 63.7686 164.056C63.4646 164.68 62.9926 165.16 62.3526 165.496C61.7206 165.832 60.9126 166 59.9286 166H57.4566ZM58.4646 165.16H59.9046C60.7206 165.16 61.3686 165.028 61.8486 164.764C62.3286 164.492 62.6726 164.108 62.8806 163.612C63.0886 163.108 63.1926 162.512 63.1926 161.824C63.1926 161.12 63.0886 160.516 62.8806 160.012C62.6726 159.508 62.3286 159.12 61.8486 158.848C61.3686 158.576 60.7206 158.44 59.9046 158.44H58.4646V165.16ZM68.2984 166.144C67.7384 166.144 67.2384 166.012 66.7984 165.748C66.3664 165.476 66.0264 165.1 65.7784 164.62C65.5304 164.132 65.4064 163.568 65.4064 162.928C65.4064 162.28 65.5304 161.716 65.7784 161.236C66.0264 160.748 66.3664 160.372 66.7984 160.108C67.2384 159.836 67.7464 159.7 68.3224 159.7C68.9224 159.7 69.4264 159.836 69.8344 160.108C70.2504 160.372 70.5664 160.724 70.7824 161.164C70.9984 161.604 71.1064 162.084 71.1064 162.604C71.1064 162.684 71.1064 162.768 71.1064 162.856C71.1064 162.944 71.1024 163.044 71.0944 163.156H66.1624V162.376H70.1104C70.0944 161.792 69.9144 161.344 69.5704 161.032C69.2344 160.712 68.8104 160.552 68.2984 160.552C67.9624 160.552 67.6504 160.632 67.3624 160.792C67.0744 160.952 66.8384 161.188 66.6544 161.5C66.4784 161.804 66.3904 162.188 66.3904 162.652V162.988C66.3904 163.492 66.4784 163.916 66.6544 164.26C66.8384 164.604 67.0744 164.864 67.3624 165.04C67.6504 165.208 67.9624 165.292 68.2984 165.292C68.7384 165.292 69.0904 165.204 69.3544 165.028C69.6184 164.844 69.8144 164.588 69.9424 164.26H70.9384C70.8344 164.62 70.6624 164.944 70.4224 165.232C70.1904 165.512 69.8944 165.736 69.5344 165.904C69.1824 166.064 68.7704 166.144 68.2984 166.144ZM74.7587 166.144C74.2307 166.144 73.7787 166.06 73.4027 165.892C73.0347 165.724 72.7467 165.488 72.5387 165.184C72.3307 164.88 72.2027 164.524 72.1547 164.116H73.1867C73.2267 164.324 73.3067 164.52 73.4267 164.704C73.5547 164.88 73.7267 165.024 73.9427 165.136C74.1667 165.24 74.4427 165.292 74.7707 165.292C75.0507 165.292 75.2827 165.252 75.4667 165.172C75.6587 165.084 75.7987 164.968 75.8867 164.824C75.9827 164.672 76.0307 164.508 76.0307 164.332C76.0307 164.076 75.9707 163.88 75.8507 163.744C75.7387 163.608 75.5707 163.504 75.3467 163.432C75.1307 163.352 74.8627 163.288 74.5427 163.24C74.2387 163.192 73.9547 163.128 73.6907 163.048C73.4347 162.96 73.2067 162.848 73.0067 162.712C72.8147 162.576 72.6627 162.408 72.5507 162.208C72.4467 162 72.3947 161.752 72.3947 161.464C72.3947 161.12 72.4827 160.816 72.6587 160.552C72.8427 160.288 73.0987 160.08 73.4267 159.928C73.7627 159.776 74.1587 159.7 74.6147 159.7C75.2707 159.7 75.7987 159.856 76.1987 160.168C76.5987 160.48 76.8347 160.928 76.9067 161.512H75.9107C75.8707 161.216 75.7347 160.984 75.5027 160.816C75.2787 160.64 74.9787 160.552 74.6027 160.552C74.2107 160.552 73.9147 160.628 73.7147 160.78C73.5147 160.932 73.4147 161.132 73.4147 161.38C73.4147 161.556 73.4627 161.712 73.5587 161.848C73.6627 161.976 73.8227 162.088 74.0387 162.184C74.2627 162.272 74.5427 162.344 74.8787 162.4C75.3027 162.464 75.6787 162.556 76.0067 162.676C76.3347 162.796 76.5947 162.98 76.7867 163.228C76.9787 163.468 77.0707 163.808 77.0627 164.248C77.0707 164.632 76.9787 164.968 76.7867 165.256C76.5947 165.544 76.3267 165.764 75.9827 165.916C75.6387 166.068 75.2307 166.144 74.7587 166.144ZM78.6101 166V159.844H79.6181V166H78.6101ZM79.1141 158.596C78.9141 158.596 78.7461 158.532 78.6101 158.404C78.4821 158.268 78.4181 158.1 78.4181 157.9C78.4181 157.7 78.4821 157.54 78.6101 157.42C78.7461 157.292 78.9141 157.228 79.1141 157.228C79.3061 157.228 79.4701 157.292 79.6061 157.42C79.7421 157.54 79.8101 157.7 79.8101 157.9C79.8101 158.1 79.7421 158.268 79.6061 158.404C79.4701 158.532 79.3061 158.596 79.1141 158.596ZM83.8089 168.784C83.2569 168.784 82.7689 168.712 82.3449 168.568C81.9209 168.432 81.5929 168.22 81.3609 167.932C81.1289 167.644 81.0129 167.288 81.0129 166.864C81.0129 166.672 81.0489 166.472 81.1209 166.264C81.2009 166.056 81.3329 165.852 81.5169 165.652C81.7089 165.452 81.9769 165.272 82.3209 165.112L83.0409 165.52C82.6089 165.696 82.3249 165.896 82.1889 166.12C82.0609 166.352 81.9969 166.568 81.9969 166.768C81.9969 167.032 82.0729 167.252 82.2249 167.428C82.3769 167.604 82.5889 167.736 82.8609 167.824C83.1409 167.912 83.4569 167.956 83.8089 167.956C84.1609 167.956 84.4609 167.908 84.7089 167.812C84.9649 167.716 85.1609 167.58 85.2969 167.404C85.4329 167.236 85.5009 167.032 85.5009 166.792C85.5009 166.496 85.3969 166.252 85.1889 166.06C84.9809 165.876 84.5769 165.768 83.9769 165.736C83.4969 165.704 83.0929 165.66 82.7649 165.604C82.4449 165.548 82.1809 165.484 81.9729 165.412C81.7649 165.332 81.5889 165.244 81.4449 165.148C81.3089 165.052 81.1849 164.952 81.0729 164.848V164.572L82.2489 163.42L83.1489 163.732L81.9129 164.812L82.0689 164.368C82.1569 164.432 82.2409 164.492 82.3209 164.548C82.4009 164.604 82.5089 164.656 82.6449 164.704C82.7809 164.744 82.9729 164.784 83.2209 164.824C83.4689 164.856 83.7969 164.888 84.2049 164.92C84.7649 164.96 85.2129 165.056 85.5489 165.208C85.8849 165.36 86.1249 165.568 86.2689 165.832C86.4209 166.088 86.4969 166.396 86.4969 166.756C86.4969 167.1 86.4009 167.424 86.2089 167.728C86.0249 168.04 85.7329 168.292 85.3329 168.484C84.9409 168.684 84.4329 168.784 83.8089 168.784ZM83.7969 164.08C83.2929 164.08 82.8609 163.984 82.5009 163.792C82.1489 163.592 81.8809 163.328 81.6969 163C81.5129 162.672 81.4209 162.304 81.4209 161.896C81.4209 161.48 81.5129 161.112 81.6969 160.792C81.8889 160.464 82.1609 160.2 82.5129 160C82.8649 159.8 83.2929 159.7 83.7969 159.7C84.3089 159.7 84.7409 159.8 85.0929 160C85.4449 160.2 85.7129 160.464 85.8969 160.792C86.0809 161.112 86.1729 161.48 86.1729 161.896C86.1729 162.304 86.0809 162.672 85.8969 163C85.7129 163.328 85.4449 163.592 85.0929 163.792C84.7409 163.984 84.3089 164.08 83.7969 164.08ZM83.7969 163.252C84.2369 163.252 84.5809 163.136 84.8289 162.904C85.0769 162.672 85.2009 162.336 85.2009 161.896C85.2009 161.448 85.0769 161.112 84.8289 160.888C84.5809 160.656 84.2369 160.54 83.7969 160.54C83.3729 160.54 83.0289 160.656 82.7649 160.888C82.5009 161.112 82.3689 161.448 82.3689 161.896C82.3689 162.336 82.4969 162.672 82.7529 162.904C83.0169 163.136 83.3649 163.252 83.7969 163.252ZM84.8049 160.696L84.5049 159.844H86.9769V160.6L84.8049 160.696ZM88.0763 166V159.844H88.9883L89.0483 160.876C89.2323 160.508 89.5003 160.22 89.8523 160.012C90.2043 159.804 90.6083 159.7 91.0643 159.7C91.5363 159.7 91.9443 159.792 92.2883 159.976C92.6323 160.16 92.9003 160.44 93.0923 160.816C93.2843 161.184 93.3803 161.652 93.3803 162.22V166H92.3723V162.328C92.3723 161.744 92.2363 161.304 91.9643 161.008C91.6923 160.712 91.3163 160.564 90.8363 160.564C90.5163 160.564 90.2203 160.644 89.9483 160.804C89.6843 160.964 89.4723 161.196 89.3123 161.5C89.1603 161.796 89.0843 162.164 89.0843 162.604V166H88.0763Z" fill="#070815"/>
<rect x="304" y="299" width="83" height="20" rx="10" fill="#F0EDE4"/>
<path d="M315.503 313V305.428H312.995V304.6H319.019V305.428H316.511V313H315.503ZM320.288 315.64L321.74 312.328H321.392L319.028 306.844H320.12L322.088 311.56L324.14 306.844H325.184L321.332 315.64H320.288ZM326.272 315.64V306.844H327.184L327.28 307.828C327.408 307.628 327.568 307.444 327.76 307.276C327.96 307.108 328.2 306.972 328.48 306.868C328.76 306.756 329.08 306.7 329.44 306.7C330.016 306.7 330.52 306.844 330.952 307.132C331.384 307.412 331.72 307.796 331.96 308.284C332.208 308.764 332.332 309.316 332.332 309.94C332.332 310.556 332.208 311.108 331.96 311.596C331.72 312.076 331.38 312.456 330.94 312.736C330.508 313.008 330.004 313.144 329.428 313.144C328.94 313.144 328.508 313.044 328.132 312.844C327.764 312.644 327.48 312.364 327.28 312.004V315.64H326.272ZM329.308 312.268C329.7 312.268 330.044 312.172 330.34 311.98C330.636 311.788 330.868 311.516 331.036 311.164C331.212 310.812 331.3 310.4 331.3 309.928C331.3 309.448 331.212 309.036 331.036 308.692C330.868 308.34 330.636 308.068 330.34 307.876C330.044 307.676 329.7 307.576 329.308 307.576C328.908 307.576 328.556 307.676 328.252 307.876C327.956 308.068 327.724 308.34 327.556 308.692C327.396 309.036 327.316 309.448 327.316 309.928C327.316 310.4 327.396 310.812 327.556 311.164C327.724 311.516 327.956 311.788 328.252 311.98C328.556 312.172 328.908 312.268 329.308 312.268ZM336.495 313.144C335.919 313.144 335.407 313.012 334.959 312.748C334.511 312.484 334.159 312.112 333.903 311.632C333.655 311.144 333.531 310.576 333.531 309.928C333.531 309.272 333.659 308.704 333.915 308.224C334.171 307.744 334.523 307.372 334.971 307.108C335.427 306.836 335.943 306.7 336.519 306.7C337.095 306.7 337.607 306.836 338.055 307.108C338.503 307.372 338.851 307.744 339.099 308.224C339.355 308.704 339.483 309.272 339.483 309.928C339.483 310.576 339.355 311.144 339.099 311.632C338.843 312.112 338.487 312.484 338.031 312.748C337.583 313.012 337.071 313.144 336.495 313.144ZM336.495 312.28C336.855 312.28 337.183 312.192 337.479 312.016C337.775 311.84 338.011 311.576 338.187 311.224C338.363 310.872 338.451 310.44 338.451 309.928C338.451 309.4 338.363 308.964 338.187 308.62C338.019 308.268 337.787 308.004 337.491 307.828C337.195 307.652 336.871 307.564 336.519 307.564C336.167 307.564 335.843 307.652 335.547 307.828C335.251 308.004 335.011 308.268 334.827 308.62C334.651 308.964 334.563 309.4 334.563 309.928C334.563 310.44 334.651 310.872 334.827 311.224C335.003 311.576 335.235 311.84 335.523 312.016C335.819 312.192 336.143 312.28 336.495 312.28ZM343.063 315.784C342.511 315.784 342.023 315.712 341.599 315.568C341.175 315.432 340.847 315.22 340.615 314.932C340.383 314.644 340.267 314.288 340.267 313.864C340.267 313.672 340.303 313.472 340.375 313.264C340.455 313.056 340.587 312.852 340.771 312.652C340.963 312.452 341.231 312.272 341.575 312.112L342.295 312.52C341.863 312.696 341.579 312.896 341.443 313.12C341.315 313.352 341.251 313.568 341.251 313.768C341.251 314.032 341.327 314.252 341.479 314.428C341.631 314.604 341.843 314.736 342.115 314.824C342.395 314.912 342.711 314.956 343.063 314.956C343.415 314.956 343.715 314.908 343.963 314.812C344.219 314.716 344.415 314.58 344.551 314.404C344.687 314.236 344.755 314.032 344.755 313.792C344.755 313.496 344.651 313.252 344.443 313.06C344.235 312.876 343.831 312.768 343.231 312.736C342.751 312.704 342.347 312.66 342.019 312.604C341.699 312.548 341.435 312.484 341.227 312.412C341.019 312.332 340.843 312.244 340.699 312.148C340.563 312.052 340.439 311.952 340.327 311.848V311.572L341.503 310.42L342.403 310.732L341.167 311.812L341.323 311.368C341.411 311.432 341.495 311.492 341.575 311.548C341.655 311.604 341.763 311.656 341.899 311.704C342.035 311.744 342.227 311.784 342.475 311.824C342.723 311.856 343.051 311.888 343.459 311.92C344.019 311.96 344.467 312.056 344.803 312.208C345.139 312.36 345.379 312.568 345.523 312.832C345.675 313.088 345.751 313.396 345.751 313.756C345.751 314.1 345.655 314.424 345.463 314.728C345.279 315.04 344.987 315.292 344.587 315.484C344.195 315.684 343.687 315.784 343.063 315.784ZM343.051 311.08C342.547 311.08 342.115 310.984 341.755 310.792C341.403 310.592 341.135 310.328 340.951 310C340.767 309.672 340.675 309.304 340.675 308.896C340.675 308.48 340.767 308.112 340.951 307.792C341.143 307.464 341.415 307.2 341.767 307C342.119 306.8 342.547 306.7 343.051 306.7C343.563 306.7 343.995 306.8 344.347 307C344.699 307.2 344.967 307.464 345.151 307.792C345.335 308.112 345.427 308.48 345.427 308.896C345.427 309.304 345.335 309.672 345.151 310C344.967 310.328 344.699 310.592 344.347 310.792C343.995 310.984 343.563 311.08 343.051 311.08ZM343.051 310.252C343.491 310.252 343.835 310.136 344.083 309.904C344.331 309.672 344.455 309.336 344.455 308.896C344.455 308.448 344.331 308.112 344.083 307.888C343.835 307.656 343.491 307.54 343.051 307.54C342.627 307.54 342.283 307.656 342.019 307.888C341.755 308.112 341.623 308.448 341.623 308.896C341.623 309.336 341.751 309.672 342.007 309.904C342.271 310.136 342.619 310.252 343.051 310.252ZM344.059 307.696L343.759 306.844H346.231V307.6L344.059 307.696ZM347.33 313V306.844H348.242L348.326 307.996C348.462 307.716 348.638 307.48 348.854 307.288C349.078 307.096 349.346 306.952 349.658 306.856C349.97 306.752 350.322 306.7 350.714 306.7V307.756H350.246C349.998 307.756 349.758 307.792 349.526 307.864C349.302 307.928 349.098 308.036 348.914 308.188C348.738 308.332 348.598 308.532 348.494 308.788C348.39 309.044 348.338 309.364 348.338 309.748V313H347.33ZM353.752 313.144C353.264 313.144 352.856 313.056 352.528 312.88C352.208 312.704 351.968 312.472 351.808 312.184C351.648 311.896 351.568 311.58 351.568 311.236C351.568 310.828 351.672 310.48 351.88 310.192C352.096 309.904 352.396 309.688 352.78 309.544C353.164 309.392 353.616 309.316 354.136 309.316H355.72C355.72 308.924 355.668 308.6 355.564 308.344C355.46 308.08 355.296 307.884 355.072 307.756C354.856 307.62 354.58 307.552 354.244 307.552C353.868 307.552 353.544 307.648 353.272 307.84C353 308.024 352.832 308.3 352.768 308.668H351.736C351.784 308.244 351.928 307.888 352.168 307.6C352.408 307.304 352.712 307.08 353.08 306.928C353.448 306.776 353.836 306.7 354.244 306.7C354.804 306.7 355.268 306.804 355.636 307.012C356.004 307.212 356.276 307.496 356.452 307.864C356.636 308.224 356.728 308.652 356.728 309.148V313H355.828L355.768 311.92C355.688 312.088 355.584 312.248 355.456 312.4C355.336 312.544 355.192 312.672 355.024 312.784C354.864 312.896 354.676 312.984 354.46 313.048C354.244 313.112 354.008 313.144 353.752 313.144ZM353.896 312.292C354.168 312.292 354.416 312.232 354.64 312.112C354.872 311.992 355.068 311.832 355.228 311.632C355.388 311.432 355.508 311.208 355.588 310.96C355.676 310.704 355.72 310.44 355.72 310.168V310.096H354.22C353.836 310.096 353.524 310.144 353.284 310.24C353.052 310.328 352.884 310.456 352.78 310.624C352.676 310.792 352.624 310.98 352.624 311.188C352.624 311.412 352.672 311.608 352.768 311.776C352.864 311.936 353.008 312.064 353.2 312.16C353.392 312.248 353.624 312.292 353.896 312.292ZM358.299 315.64V306.844H359.211L359.307 307.828C359.435 307.628 359.595 307.444 359.787 307.276C359.987 307.108 360.227 306.972 360.507 306.868C360.787 306.756 361.107 306.7 361.467 306.7C362.043 306.7 362.547 306.844 362.979 307.132C363.411 307.412 363.747 307.796 363.987 308.284C364.235 308.764 364.359 309.316 364.359 309.94C364.359 310.556 364.235 311.108 363.987 311.596C363.747 312.076 363.407 312.456 362.967 312.736C362.535 313.008 362.031 313.144 361.455 313.144C360.967 313.144 360.535 313.044 360.159 312.844C359.791 312.644 359.507 312.364 359.307 312.004V315.64H358.299ZM361.335 312.268C361.727 312.268 362.071 312.172 362.367 311.98C362.663 311.788 362.895 311.516 363.063 311.164C363.239 310.812 363.327 310.4 363.327 309.928C363.327 309.448 363.239 309.036 363.063 308.692C362.895 308.34 362.663 308.068 362.367 307.876C362.071 307.676 361.727 307.576 361.335 307.576C360.935 307.576 360.583 307.676 360.279 307.876C359.983 308.068 359.751 308.34 359.583 308.692C359.423 309.036 359.343 309.448 359.343 309.928C359.343 310.4 359.423 310.812 359.583 311.164C359.751 311.516 359.983 311.788 360.279 311.98C360.583 312.172 360.935 312.268 361.335 312.268ZM365.811 313V304.36H366.819V307.864C367.027 307.504 367.311 307.22 367.671 307.012C368.031 306.804 368.423 306.7 368.847 306.7C369.327 306.7 369.735 306.792 370.071 306.976C370.415 307.16 370.679 307.444 370.863 307.828C371.047 308.204 371.139 308.68 371.139 309.256V313H370.143V309.364C370.143 308.772 370.011 308.324 369.747 308.02C369.483 307.716 369.111 307.564 368.631 307.564C368.303 307.564 367.999 307.648 367.719 307.816C367.447 307.976 367.227 308.212 367.059 308.524C366.899 308.828 366.819 309.204 366.819 309.652V313H365.811ZM373.221 315.64L374.673 312.328H374.325L371.961 306.844H373.053L375.021 311.56L377.073 306.844H378.117L374.265 315.64H373.221Z" fill="#070815"/>
<rect x="103" y="339" width="84" height="20" rx="10" fill="#F0EDE4"/>
<path d="M113.67 353.144C112.862 353.144 112.162 352.964 111.57 352.604C110.986 352.236 110.534 351.728 110.214 351.08C109.894 350.424 109.734 349.664 109.734 348.8C109.734 347.936 109.894 347.18 110.214 346.532C110.534 345.876 110.986 345.368 111.57 345.008C112.162 344.64 112.862 344.456 113.67 344.456C114.63 344.456 115.406 344.684 115.998 345.14C116.598 345.596 116.982 346.24 117.15 347.072H116.046C115.91 346.552 115.646 346.136 115.254 345.824C114.87 345.504 114.342 345.344 113.67 345.344C113.086 345.344 112.574 345.484 112.134 345.764C111.694 346.036 111.354 346.432 111.114 346.952C110.882 347.464 110.766 348.08 110.766 348.8C110.766 349.52 110.882 350.14 111.114 350.66C111.354 351.172 111.694 351.568 112.134 351.848C112.574 352.12 113.086 352.256 113.67 352.256C114.342 352.256 114.87 352.104 115.254 351.8C115.646 351.488 115.91 351.076 116.046 350.564H117.15C116.982 351.372 116.598 352.004 115.998 352.46C115.406 352.916 114.63 353.144 113.67 353.144ZM121.312 353.144C120.736 353.144 120.224 353.012 119.776 352.748C119.328 352.484 118.976 352.112 118.72 351.632C118.472 351.144 118.348 350.576 118.348 349.928C118.348 349.272 118.476 348.704 118.732 348.224C118.988 347.744 119.34 347.372 119.788 347.108C120.244 346.836 120.76 346.7 121.336 346.7C121.912 346.7 122.424 346.836 122.872 347.108C123.32 347.372 123.668 347.744 123.916 348.224C124.172 348.704 124.3 349.272 124.3 349.928C124.3 350.576 124.172 351.144 123.916 351.632C123.66 352.112 123.304 352.484 122.848 352.748C122.4 353.012 121.888 353.144 121.312 353.144ZM121.312 352.28C121.672 352.28 122 352.192 122.296 352.016C122.592 351.84 122.828 351.576 123.004 351.224C123.18 350.872 123.268 350.44 123.268 349.928C123.268 349.4 123.18 348.964 123.004 348.62C122.836 348.268 122.604 348.004 122.308 347.828C122.012 347.652 121.688 347.564 121.336 347.564C120.984 347.564 120.66 347.652 120.364 347.828C120.068 348.004 119.828 348.268 119.644 348.62C119.468 348.964 119.38 349.4 119.38 349.928C119.38 350.44 119.468 350.872 119.644 351.224C119.82 351.576 120.052 351.84 120.34 352.016C120.636 352.192 120.96 352.28 121.312 352.28ZM125.713 353V344.36H126.721V353H125.713ZM131.097 353.144C130.521 353.144 130.009 353.012 129.561 352.748C129.113 352.484 128.761 352.112 128.505 351.632C128.257 351.144 128.133 350.576 128.133 349.928C128.133 349.272 128.261 348.704 128.517 348.224C128.773 347.744 129.125 347.372 129.573 347.108C130.029 346.836 130.545 346.7 131.121 346.7C131.697 346.7 132.209 346.836 132.657 347.108C133.105 347.372 133.453 347.744 133.701 348.224C133.957 348.704 134.085 349.272 134.085 349.928C134.085 350.576 133.957 351.144 133.701 351.632C133.445 352.112 133.089 352.484 132.633 352.748C132.185 353.012 131.673 353.144 131.097 353.144ZM131.097 352.28C131.457 352.28 131.785 352.192 132.081 352.016C132.377 351.84 132.613 351.576 132.789 351.224C132.965 350.872 133.053 350.44 133.053 349.928C133.053 349.4 132.965 348.964 132.789 348.62C132.621 348.268 132.389 348.004 132.093 347.828C131.797 347.652 131.473 347.564 131.121 347.564C130.769 347.564 130.445 347.652 130.149 347.828C129.853 348.004 129.613 348.268 129.429 348.62C129.253 348.964 129.165 349.4 129.165 349.928C129.165 350.44 129.253 350.872 129.429 351.224C129.605 351.576 129.837 351.84 130.125 352.016C130.421 352.192 130.745 352.28 131.097 352.28ZM135.498 353V346.844H136.41L136.494 347.996C136.63 347.716 136.806 347.48 137.022 347.288C137.246 347.096 137.514 346.952 137.826 346.856C138.138 346.752 138.49 346.7 138.882 346.7V347.756H138.414C138.166 347.756 137.926 347.792 137.694 347.864C137.47 347.928 137.266 348.036 137.082 348.188C136.906 348.332 136.766 348.532 136.662 348.788C136.558 349.044 136.506 349.364 136.506 349.748V353H135.498ZM143.199 353V344.6H145.923C146.587 344.6 147.131 344.712 147.555 344.936C147.987 345.152 148.307 345.448 148.515 345.824C148.723 346.2 148.827 346.624 148.827 347.096C148.827 347.56 148.723 347.98 148.515 348.356C148.315 348.732 147.999 349.032 147.567 349.256C147.143 349.48 146.595 349.592 145.923 349.592H144.207V353H143.199ZM144.207 348.74H145.899C146.587 348.74 147.075 348.592 147.363 348.296C147.651 347.992 147.795 347.592 147.795 347.096C147.795 346.576 147.651 346.172 147.363 345.884C147.075 345.588 146.587 345.44 145.899 345.44H144.207V348.74ZM151.787 353.144C151.299 353.144 150.891 353.056 150.563 352.88C150.243 352.704 150.003 352.472 149.843 352.184C149.683 351.896 149.603 351.58 149.603 351.236C149.603 350.828 149.707 350.48 149.915 350.192C150.131 349.904 150.431 349.688 150.815 349.544C151.199 349.392 151.651 349.316 152.171 349.316H153.755C153.755 348.924 153.703 348.6 153.599 348.344C153.495 348.08 153.331 347.884 153.107 347.756C152.891 347.62 152.615 347.552 152.279 347.552C151.903 347.552 151.579 347.648 151.307 347.84C151.035 348.024 150.867 348.3 150.803 348.668H149.771C149.819 348.244 149.963 347.888 150.203 347.6C150.443 347.304 150.747 347.08 151.115 346.928C151.483 346.776 151.871 346.7 152.279 346.7C152.839 346.7 153.303 346.804 153.671 347.012C154.039 347.212 154.311 347.496 154.487 347.864C154.671 348.224 154.763 348.652 154.763 349.148V353H153.863L153.803 351.92C153.723 352.088 153.619 352.248 153.491 352.4C153.371 352.544 153.227 352.672 153.059 352.784C152.899 352.896 152.711 352.984 152.495 353.048C152.279 353.112 152.043 353.144 151.787 353.144ZM151.931 352.292C152.203 352.292 152.451 352.232 152.675 352.112C152.907 351.992 153.103 351.832 153.263 351.632C153.423 351.432 153.543 351.208 153.623 350.96C153.711 350.704 153.755 350.44 153.755 350.168V350.096H152.255C151.871 350.096 151.559 350.144 151.319 350.24C151.087 350.328 150.919 350.456 150.815 350.624C150.711 350.792 150.659 350.98 150.659 351.188C150.659 351.412 150.707 351.608 150.803 351.776C150.899 351.936 151.043 352.064 151.235 352.16C151.427 352.248 151.659 352.292 151.931 352.292ZM156.334 353V344.36H157.342V353H156.334ZM161.646 353.144C161.086 353.144 160.586 353.012 160.146 352.748C159.714 352.476 159.374 352.1 159.126 351.62C158.878 351.132 158.754 350.568 158.754 349.928C158.754 349.28 158.878 348.716 159.126 348.236C159.374 347.748 159.714 347.372 160.146 347.108C160.586 346.836 161.094 346.7 161.67 346.7C162.27 346.7 162.774 346.836 163.182 347.108C163.598 347.372 163.914 347.724 164.13 348.164C164.346 348.604 164.454 349.084 164.454 349.604C164.454 349.684 164.454 349.768 164.454 349.856C164.454 349.944 164.45 350.044 164.442 350.156H159.51V349.376H163.458C163.442 348.792 163.262 348.344 162.918 348.032C162.582 347.712 162.158 347.552 161.646 347.552C161.31 347.552 160.998 347.632 160.71 347.792C160.422 347.952 160.186 348.188 160.002 348.5C159.826 348.804 159.738 349.188 159.738 349.652V349.988C159.738 350.492 159.826 350.916 160.002 351.26C160.186 351.604 160.422 351.864 160.71 352.04C160.998 352.208 161.31 352.292 161.646 352.292C162.086 352.292 162.438 352.204 162.702 352.028C162.966 351.844 163.162 351.588 163.29 351.26H164.286C164.182 351.62 164.01 351.944 163.77 352.232C163.538 352.512 163.242 352.736 162.882 352.904C162.53 353.064 162.118 353.144 161.646 353.144ZM168.039 353C167.679 353 167.367 352.944 167.103 352.832C166.839 352.72 166.635 352.532 166.491 352.268C166.355 351.996 166.287 351.632 166.287 351.176V347.696H165.207V346.844H166.287L166.419 345.344H167.295V346.844H169.059V347.696H167.295V351.176C167.295 351.552 167.371 351.808 167.523 351.944C167.675 352.072 167.943 352.136 168.327 352.136H168.999V353H168.039ZM172.738 353C172.378 353 172.066 352.944 171.802 352.832C171.538 352.72 171.334 352.532 171.19 352.268C171.054 351.996 170.986 351.632 170.986 351.176V347.696H169.906V346.844H170.986L171.118 345.344H171.994V346.844H173.758V347.696H171.994V351.176C171.994 351.552 172.07 351.808 172.222 351.944C172.374 352.072 172.642 352.136 173.026 352.136H173.698V353H172.738ZM177.501 353.144C176.941 353.144 176.441 353.012 176.001 352.748C175.569 352.476 175.229 352.1 174.981 351.62C174.733 351.132 174.609 350.568 174.609 349.928C174.609 349.28 174.733 348.716 174.981 348.236C175.229 347.748 175.569 347.372 176.001 347.108C176.441 346.836 176.949 346.7 177.525 346.7C178.125 346.7 178.629 346.836 179.037 347.108C179.453 347.372 179.769 347.724 179.985 348.164C180.201 348.604 180.309 349.084 180.309 349.604C180.309 349.684 180.309 349.768 180.309 349.856C180.309 349.944 180.305 350.044 180.297 350.156H175.365V349.376H179.313C179.297 348.792 179.117 348.344 178.773 348.032C178.437 347.712 178.013 347.552 177.501 347.552C177.165 347.552 176.853 347.632 176.565 347.792C176.277 347.952 176.041 348.188 175.857 348.5C175.681 348.804 175.593 349.188 175.593 349.652V349.988C175.593 350.492 175.681 350.916 175.857 351.26C176.041 351.604 176.277 351.864 176.565 352.04C176.853 352.208 177.165 352.292 177.501 352.292C177.941 352.292 178.293 352.204 178.557 352.028C178.821 351.844 179.017 351.588 179.145 351.26H180.141C180.037 351.62 179.865 351.944 179.625 352.232C179.393 352.512 179.097 352.736 178.737 352.904C178.385 353.064 177.973 353.144 177.501 353.144Z" fill="#070815"/>
</g>
<defs>
<clipPath id="clip0_106_41">
<rect width="400" height="400" rx="20" fill="white"/>
</clipPath>
<clipPath id="clip1_106_41">
<rect width="329" height="188" fill="white" transform="translate(36 162)"/>
</clipPath>
</defs>
</svg>
