<svg width="401" height="70" viewBox="0 0 401 70" fill="none" xmlns="http://www.w3.org/2000/svg">
<g clip-path="url(#clip0_27_2693)">
<path d="M47.6711 40.9889L47.5412 41.2145C45.5653 44.8536 42.6563 47.9022 39.1124 50.0479C37.5419 50.9881 33.3568 53.2017 28.5218 53.2017C25.7165 53.2317 22.9533 52.5192 20.5128 51.1367C18.0205 49.693 15.9991 47.5601 14.6921 44.995C13.2315 42.2704 12.5021 38.9897 12.5039 35.153V19.0568C12.5039 13.9235 13.0626 10.0225 14.18 7.35386C15.2975 4.68524 16.7958 2.92233 18.675 2.06509C20.5506 1.20679 22.9741 0.779605 25.9456 0.783553H36.7302C37.3182 0.755341 37.9076 0.793098 38.4872 0.8961C38.7951 1.04006 39.0537 1.27132 39.231 1.56109L42.8258 6.69371C42.885 6.7849 42.9655 6.86037 43.0603 6.91365C43.1551 6.96692 43.2615 6.9964 43.3702 6.99956C43.4122 7.00615 43.4551 7.00286 43.4956 6.98993C43.5361 6.97699 43.573 6.95478 43.6034 6.92507C43.6337 6.89536 43.6567 6.85897 43.6705 6.8188C43.6843 6.77863 43.6885 6.73579 43.6828 6.69371V0.407708C43.683 0.300209 43.6405 0.197014 43.5648 0.120648C43.489 0.0442825 43.3862 0.000952259 43.2786 9.91877e-05H25.9456C21.3468 -0.0375065 16.8278 1.20097 12.892 3.57763C8.93331 5.9635 5.68308 9.3609 3.47629 13.4196C1.14596 17.6435 -0.0515713 22.3977 -2.07652e-05 27.2204C-0.0456228 32.0697 1.15108 36.8499 3.47629 41.1068C5.68283 45.2153 8.92943 48.6736 12.892 51.1367C16.8022 53.5852 21.3309 54.8673 25.9456 54.8322C30.5282 54.8619 35.0258 53.5955 38.9184 51.1792C40.661 50.1089 42.2711 48.8366 43.7151 47.389C45.4244 45.6553 46.8885 43.6964 48.0667 41.5666C48.1281 41.4557 48.1783 41.3631 48.2128 41.2974C48.235 41.2586 48.2491 41.2157 48.254 41.1713C48.259 41.1269 48.2547 41.082 48.2416 41.0393C48.2285 40.9966 48.2067 40.957 48.1776 40.923C48.1486 40.8891 48.1128 40.8615 48.0726 40.8419C47.9992 40.8142 47.9182 40.8138 47.8445 40.8407C47.7708 40.8677 47.7092 40.9203 47.6711 40.9889Z" fill="#101010"/>
<path d="M86.9021 24.0342C85.1761 20.9724 82.667 18.4236 79.6315 16.6487C76.6087 14.8449 73.1492 13.9026 69.6284 13.924C66.1191 13.8999 62.671 14.8426 59.663 16.6487C56.6459 18.4329 54.1529 20.9804 52.4355 24.0342C50.6587 27.1619 49.742 30.7037 49.7785 34.2999C49.7447 37.9078 50.661 41.4611 52.4355 44.6034C54.1435 47.6761 56.6377 50.2404 59.663 52.0342C62.672 53.8378 66.1194 54.7803 69.6284 54.7588C73.1489 54.7776 76.6077 53.8355 79.6315 52.0342C82.6753 50.2498 85.1857 47.6841 86.9021 44.6034C88.6742 41.4601 89.5903 37.9074 89.5592 34.2999C89.593 30.7041 88.6765 27.1629 86.9021 24.0342ZM77.8368 40.2106C77.8368 43.9978 77.4846 46.9014 76.7804 48.9213C76.0761 50.9413 75.1509 52.2892 74.0047 52.9652C72.6626 53.6867 71.1512 54.035 69.6284 53.9737C68.1318 54.0298 66.6478 53.6814 65.3329 52.9652C64.1849 52.2946 63.2596 50.9467 62.5572 48.9213C61.8548 46.896 61.5027 43.9924 61.5009 40.2106V28.3144C61.5009 24.5811 61.853 21.7294 62.5572 19.7593C63.2614 17.7893 64.1993 16.4537 65.3706 15.7526C66.6667 15.0193 68.1395 14.6557 69.6284 14.7016C71.138 14.6523 72.6342 15.0001 73.967 15.7101C75.1366 16.3857 76.0744 17.7213 76.7804 19.7168C77.481 21.717 77.8332 24.5829 77.8368 28.3144V40.2106Z" fill="#101010"/>
<path d="M135.824 24.0341C134.099 20.9712 131.59 18.422 128.553 16.6486C125.53 14.8448 122.071 13.9026 118.55 13.924C116.116 13.9057 113.719 14.5233 111.597 15.7154C109.837 16.6912 108.324 18.0561 107.172 19.706C107.124 19.7763 107.054 19.8293 106.973 19.8573C106.892 19.8854 106.805 19.8869 106.723 19.8617C106.641 19.8366 106.57 19.786 106.519 19.7174C106.468 19.6489 106.44 19.5658 106.439 19.4804V14.7284C106.439 14.6565 106.419 14.586 106.382 14.5243C106.345 14.4626 106.292 14.4119 106.229 14.3774C106.166 14.343 106.095 14.326 106.023 14.3282C105.951 14.3305 105.881 14.3519 105.82 14.3903L95.6872 20.7194C95.6298 20.7554 95.5825 20.8052 95.5495 20.8643C95.5165 20.9234 95.499 20.9899 95.4985 21.0575V69.5977C95.4985 69.6506 95.509 69.7031 95.5293 69.752C95.5497 69.8009 95.5794 69.8453 95.617 69.8827C95.6546 69.92 95.6991 69.9496 95.7482 69.9697C95.7972 69.9899 95.8497 70.0001 95.9027 69.9999H106.035C106.142 69.9993 106.244 69.9568 106.32 69.8816C106.395 69.8063 106.438 69.7043 106.439 69.5977V49.2002C106.44 49.1146 106.467 49.0313 106.518 48.9624C106.569 48.8936 106.641 48.8428 106.723 48.8176C106.805 48.7924 106.892 48.7941 106.973 48.8223C107.054 48.8505 107.124 48.9039 107.172 48.9746C108.324 50.6244 109.837 51.9894 111.597 52.9651C113.719 54.1573 116.116 54.7748 118.55 54.7566C122.071 54.778 125.53 53.8357 128.553 52.032C131.598 50.2491 134.109 47.6831 135.824 44.6012C137.596 41.4579 138.512 37.9052 138.481 34.2977C138.514 30.7026 137.598 27.1622 135.824 24.0341ZM126.758 40.2106C126.758 43.9978 126.406 46.9013 125.702 48.9213C124.998 50.9412 124.072 52.2892 122.926 52.9651C121.585 53.6892 120.073 54.0395 118.55 53.9791C115.498 54.0026 112.531 52.9718 110.153 51.0611C107.674 49.1141 106.436 45.4972 106.439 40.2106V28.3143C106.439 23.1279 107.677 19.5629 110.153 17.6194C112.53 15.7063 115.497 14.6752 118.55 14.7015C120.06 14.6508 121.557 15.0006 122.889 15.7154C124.063 16.386 125.001 17.7198 125.702 19.7167C126.408 21.7169 126.76 24.5828 126.758 28.3143V40.2106Z" fill="#101010"/>
<path d="M184.745 24.0343C183.021 20.9714 180.511 18.4222 177.475 16.6488C174.452 14.8451 170.992 13.9028 167.471 13.9242C165.037 13.9066 162.641 14.5241 160.519 15.7157C158.761 16.6943 157.248 18.0588 156.094 19.7062C156.046 19.7769 155.976 19.8302 155.895 19.8585C155.814 19.8867 155.726 19.8884 155.644 19.8631C155.562 19.8379 155.491 19.7872 155.44 19.7184C155.389 19.6495 155.361 19.5662 155.361 19.4806V14.7346C155.361 14.6625 155.341 14.5917 155.304 14.5297C155.267 14.4676 155.215 14.4165 155.152 14.3815C155.089 14.3465 155.017 14.329 154.945 14.3306C154.873 14.3323 154.803 14.3532 154.741 14.391L144.609 20.7201C144.551 20.7561 144.504 20.806 144.471 20.8651C144.438 20.9242 144.42 20.9906 144.42 21.0583V69.5984C144.42 69.6514 144.43 69.7038 144.451 69.7527C144.471 69.8016 144.501 69.846 144.539 69.8834C144.576 69.9208 144.621 69.9504 144.67 69.9705C144.719 69.9906 144.771 70.0009 144.824 70.0007H154.957C155.063 70.0001 155.166 69.9576 155.241 69.8823C155.317 69.807 155.36 69.7051 155.361 69.5984V49.2004C155.361 49.1148 155.389 49.0315 155.44 48.9626C155.491 48.8938 155.562 48.8431 155.644 48.8178C155.726 48.7926 155.814 48.7943 155.895 48.8225C155.976 48.8508 156.046 48.9041 156.094 48.9748C157.251 50.6196 158.763 51.9834 160.519 52.9653C162.641 54.1569 165.037 54.7744 167.471 54.7568C170.992 54.7782 174.452 53.8359 177.475 52.0322C180.52 50.2493 183.03 47.6833 184.745 44.6014C186.517 41.4581 187.433 37.9055 187.402 34.298C187.436 30.7028 186.519 27.1625 184.745 24.0343ZM175.68 40.2108C175.68 43.998 175.328 46.9016 174.623 48.9215C173.919 50.9414 172.994 52.2894 171.848 52.9653C170.506 53.6894 168.995 54.0397 167.471 53.9793C164.42 54.002 161.453 52.9713 159.074 51.0613C156.601 49.1143 155.363 45.4974 155.361 40.2108V28.3146C155.361 23.1281 156.599 19.5631 159.074 17.6196C161.452 15.7075 164.419 14.6765 167.471 14.7017C168.982 14.651 170.479 15.0008 171.81 15.7157C172.985 16.3862 173.923 17.72 174.623 19.717C175.329 21.7172 175.682 24.583 175.68 28.3146V40.2108Z" fill="#101010"/>
<path d="M261.665 14.6909C260.112 14.2211 258.496 13.9897 256.874 14.0044C254.235 13.974 251.631 14.6008 249.296 15.8281C247.597 16.6999 246.157 18.0018 245.119 19.6038C245.072 19.6785 245.003 19.736 244.92 19.7675C244.838 19.7991 244.748 19.803 244.663 19.7786C244.578 19.7543 244.504 19.703 244.451 19.6326C244.398 19.5622 244.37 19.4765 244.37 19.3884V14.7383C244.369 14.665 244.349 14.5932 244.312 14.5302C244.274 14.4673 244.22 14.4156 244.156 14.3805C244.092 14.3455 244.019 14.3283 243.946 14.3308C243.872 14.3333 243.801 14.3554 243.739 14.3948L233.618 20.7184C233.559 20.7546 233.511 20.8053 233.478 20.8654C233.445 20.9256 233.428 20.9933 233.429 21.062V34.4546C233.472 37.8946 232.448 41.2637 230.497 44.0984C228.597 46.9052 226.035 49.2021 223.038 50.7867C220.263 52.3301 217.148 53.1597 213.972 53.2006C212.424 53.2508 210.881 52.9872 209.437 52.4258C207.993 51.8644 206.677 51.0167 205.57 49.9338C203.355 47.7562 202.248 44.5148 202.25 40.2097V38.8904C202.205 37.9835 202.31 37.0754 202.563 36.203C202.648 35.9514 202.797 35.7262 202.995 35.5495C203.194 35.3728 203.435 35.2506 203.694 35.195C204.611 35.0368 205.541 34.972 206.47 35.0017H229.36C229.605 35.0031 229.84 34.9084 230.016 34.7378C230.191 34.5672 230.292 34.3346 230.298 34.0901C230.303 34.0689 230.303 34.0466 230.298 34.0254C230.292 30.5218 229.379 27.0793 227.646 24.0332C225.923 20.9705 223.416 18.4213 220.381 16.6477C217.358 14.8447 213.898 13.9024 210.378 13.9231C206.868 13.8989 203.42 14.8416 200.412 16.6477C197.394 18.4305 194.901 20.9783 193.185 24.0332C191.408 27.161 190.491 30.7028 190.528 34.299C190.528 38.6067 191.53 42.3005 193.535 45.3805C195.463 48.4028 198.198 50.8271 201.431 52.3805C204.678 53.9617 208.247 54.7746 211.86 54.7562C215.034 54.7583 218.18 54.1501 221.124 52.9648C224.086 51.7949 226.753 49.9897 228.939 47.6765C230.546 45.9812 231.804 43.987 232.642 41.8073C232.677 41.7194 232.742 41.6465 232.825 41.601C232.908 41.5555 233.004 41.5404 233.097 41.5581C233.19 41.5758 233.274 41.6252 233.335 41.698C233.395 41.7708 233.429 41.8624 233.429 41.957V54.0357C233.429 54.0894 233.44 54.1425 233.46 54.192C233.481 54.2415 233.511 54.2865 233.549 54.3244C233.587 54.3622 233.632 54.3922 233.682 54.4127C233.732 54.4331 233.785 54.4435 233.839 54.4434H243.96C244.014 54.4435 244.067 54.4331 244.117 54.4127C244.166 54.3922 244.212 54.3622 244.25 54.3244C244.288 54.2865 244.318 54.2415 244.338 54.192C244.359 54.1425 244.37 54.0894 244.37 54.0357V24.737C244.37 22.0393 245.218 19.926 246.914 18.3971C248.561 16.8841 250.729 16.0622 252.966 16.1017C255.082 16.0562 257.14 16.7892 258.749 18.1613C260.366 19.5398 261.175 21.4725 261.175 23.9594C261.167 24.012 261.172 24.0656 261.189 24.1159C261.206 24.1663 261.234 24.212 261.272 24.2494C261.31 24.2869 261.356 24.3151 261.406 24.3318C261.456 24.3484 261.51 24.3531 261.563 24.3455C261.616 24.3533 261.669 24.3487 261.72 24.3321C261.771 24.3156 261.817 24.2875 261.855 24.2501C261.893 24.2127 261.922 24.167 261.94 24.1166C261.957 24.0662 261.963 24.0124 261.956 23.9594V15.0824C261.955 14.9948 261.927 14.9097 261.874 14.8394C261.822 14.769 261.749 14.7171 261.665 14.6909ZM202.25 28.314C202.25 24.5807 202.602 21.729 203.306 19.7589C204.011 17.7889 204.948 16.4533 206.12 15.7522C207.416 15.0182 208.889 14.6545 210.378 14.7011C211.888 14.651 213.385 15.0008 214.716 15.7151C215.886 16.3856 216.823 17.7194 217.53 19.7164C218.236 21.7133 218.586 24.5792 218.581 28.314V33.8171C218.58 33.8707 218.57 33.9238 218.549 33.9733C218.529 34.0229 218.498 34.0678 218.46 34.1057C218.422 34.1436 218.377 34.1735 218.327 34.194C218.278 34.2144 218.225 34.2248 218.171 34.2247H206.47C205.553 34.2025 204.637 34.267 203.732 34.4174C203.435 34.4762 203.151 34.5855 202.891 34.7405C202.83 34.7821 202.759 34.8063 202.685 34.8107C202.611 34.815 202.537 34.7994 202.472 34.7654C202.406 34.7313 202.351 34.6802 202.312 34.6173C202.273 34.5544 202.251 34.4822 202.25 34.4083V28.314Z" fill="#101010"/>
<path d="M284.127 53.9232L269.944 4.32764H274.394L287.673 52.6034L285.379 52.6734L298.38 4.32764H302.76L315.901 52.6734L313.537 52.6034L326.816 4.32764H330.849L316.666 53.9232H312.285L299.701 7.80126H301.161L288.647 53.9232H284.127Z" fill="#101010"/>
<path d="M347.396 54.7567C344.243 54.8463 341.134 54.0005 338.462 52.3261C335.971 50.6931 334.004 48.3779 332.796 45.6572C331.458 42.6415 330.793 39.3708 330.849 36.0726C330.836 34.0469 331.081 32.0278 331.579 30.0639C332.038 28.2532 332.765 26.5209 333.734 24.9237C334.662 23.3981 335.837 22.0368 337.211 20.895C338.584 19.7574 340.15 18.8752 341.834 18.2904C343.647 17.6724 345.551 17.3669 347.466 17.3869C349.49 17.3848 351.5 17.7254 353.41 18.3944C355.353 19.0785 357.122 20.1815 358.59 21.6251C360.23 23.2946 361.426 25.3483 362.067 27.5983C362.854 30.0989 363.109 33.2015 362.831 36.9061H332.587V33.6414H358.868C358.855 31.7844 358.586 29.938 358.068 28.1545C357.638 26.6864 356.904 25.3254 355.912 24.1602C354.961 23.0719 353.755 22.2365 352.401 21.7291C350.818 21.1646 349.145 20.894 347.465 20.9305C345.879 20.901 344.3 21.1597 342.807 21.6941C341.509 22.1749 340.325 22.9201 339.33 23.8824C338.345 24.8482 337.534 25.976 336.932 27.2165C336.289 28.5396 335.822 29.9406 335.541 31.3842C335.236 32.9284 335.085 34.4991 335.089 36.0731C335.061 38.6428 335.496 41.1965 336.375 43.6116C337.154 45.7953 338.541 47.7113 340.373 49.1341C342.181 50.5233 344.545 51.2179 347.465 51.2179C349.766 51.2955 352.049 50.7937 354.104 49.7587C355.956 48.7086 357.374 47.0342 358.102 45.0353H362.414C361.843 46.9728 360.818 48.7467 359.425 50.2104C357.983 51.703 356.225 52.854 354.28 53.5791C352.078 54.3936 349.744 54.7929 347.396 54.7567Z" fill="#101010"/>
<path d="M385.426 54.7567C383.695 54.7535 381.977 54.4481 380.351 53.8543C378.656 53.2373 377.106 52.2798 375.797 51.0408C374.394 49.7159 373.312 48.0887 372.633 46.283L373.051 45.8662V53.9232H368.809V4.32764H373.051V26.278L372.633 25.8607C373.295 24.0363 374.378 22.3941 375.797 21.0684C377.114 19.8484 378.663 18.9039 380.351 18.2905C381.977 17.696 383.695 17.3902 385.426 17.387C388.28 17.3308 391.09 18.0901 393.526 19.5753C395.93 21.1071 397.838 23.3028 399.018 25.8963C400.339 28.6521 401 31.9977 401 35.9332C401.02 38.1197 400.775 40.3005 400.27 42.4281C399.833 44.2736 399.118 46.042 398.149 47.6727C397.271 49.1427 396.155 50.457 394.847 51.562C393.584 52.6208 392.134 53.4337 390.571 53.9587C388.911 54.5038 387.173 54.7734 385.426 54.7567ZM385.079 51.2147C386.498 51.2364 387.906 50.9644 389.215 50.4156C390.436 49.8886 391.545 49.1342 392.483 48.1929C393.45 47.2198 394.249 46.0931 394.847 44.8587C395.494 43.5222 395.973 42.1105 396.272 40.656C396.598 39.1028 396.761 37.5197 396.757 35.9326C396.787 33.3719 396.339 30.828 395.436 28.4313C394.647 26.2905 393.289 24.4051 391.508 22.9783C389.663 21.5776 387.393 20.8541 385.077 20.9295C383.491 20.9 381.912 21.1587 380.418 21.693C379.126 22.1704 377.944 22.9029 376.942 23.8469C375.953 24.7956 375.141 25.9128 374.544 27.146C373.905 28.4583 373.437 29.8473 373.153 31.2787C372.846 32.8109 372.695 34.3701 372.701 35.9326C372.675 38.5128 373.11 41.077 373.987 43.504C374.764 45.708 376.15 47.6469 377.985 49.0959C379.794 50.5088 382.158 51.2151 385.079 51.2147Z" fill="#101010"/>
</g>
<defs>
<clipPath id="clip0_27_2693">
<rect width="401" height="70" fill="white"/>
</clipPath>
</defs>
</svg>
