<svg width="434" height="70" viewBox="0 0 434 70" fill="none" xmlns="http://www.w3.org/2000/svg">
<g clip-path="url(#clip0_26_2502)">
<path d="M47.6721 40.9882L47.5422 41.2144C45.5661 44.8526 42.657 47.9003 39.1132 50.0451C37.5421 50.9853 33.3575 53.1989 28.5224 53.1989C25.7171 53.229 22.9538 52.5168 20.5132 51.1344C18.021 49.6904 15.9997 47.5576 14.6923 44.9927C13.2317 42.2681 12.5023 38.9875 12.5041 35.1507V19.0567C12.5041 13.9233 13.0628 10.0224 14.1803 7.35375C15.2978 4.68513 16.7961 2.92221 18.6753 2.06498C20.551 1.20667 22.9746 0.779311 25.9461 0.7829H36.731C37.319 0.754752 37.9084 0.792682 38.488 0.895977C38.7959 1.03994 39.0545 1.27121 39.2318 1.56098L42.8268 6.69359C42.8859 6.78478 42.9664 6.86025 43.0612 6.91352C43.156 6.96679 43.2624 6.99628 43.3711 6.99944C43.4131 7.00604 43.456 7.00274 43.4965 6.9898C43.537 6.97687 43.5739 6.95466 43.6043 6.92495C43.6347 6.89524 43.6576 6.85884 43.6714 6.81867C43.6852 6.7785 43.6894 6.73567 43.6837 6.69359V0.407592C43.6839 0.300093 43.6414 0.1969 43.5657 0.120534C43.49 0.0441686 43.3871 0.000830183 43.2795 -2.28885e-05H25.9461C21.3472 -0.0376286 16.8281 1.20086 12.8921 3.57751C8.9334 5.96339 5.68312 9.36078 3.47628 13.4195C1.14583 17.6434 -0.051733 22.3975 -0.000107827 27.2203C-0.045711 32.0695 1.15102 36.8498 3.47628 41.1067C5.68305 45.215 8.92964 48.6734 12.8921 51.1366C16.8025 53.5851 21.3313 54.8672 25.9461 54.8321C30.5288 54.8616 35.0264 53.5952 38.9192 51.1791C40.6626 50.1086 42.2736 48.8364 43.7187 47.3889C45.4277 45.655 46.8918 43.6961 48.0704 41.5665C48.1319 41.4556 48.182 41.363 48.2165 41.2973C48.2387 41.2585 48.2528 41.2156 48.2577 41.1712C48.2627 41.1268 48.2585 41.0818 48.2453 41.0391C48.2322 40.9964 48.2104 40.9569 48.1814 40.9229C48.1523 40.889 48.1166 40.8613 48.0764 40.8417C48.0027 40.8131 47.9211 40.8122 47.8467 40.8391C47.7724 40.8661 47.7103 40.919 47.6721 40.9882Z" fill="#101010"/>
<path d="M86.9041 24.0342C85.1781 20.9724 82.669 18.4236 79.6334 16.6487C76.6105 14.8449 73.1509 13.9026 69.63 13.924C66.1206 13.8999 62.6725 14.8426 59.6644 16.6487C56.6472 18.4329 54.1542 20.9804 52.4367 24.0342C50.6599 27.1619 49.7431 30.7037 49.7796 34.3C49.7458 37.9078 50.6622 41.4611 52.4367 44.6034C54.1448 47.6761 56.639 50.2404 59.6644 52.0342C62.6735 53.8378 66.121 54.7803 69.63 54.7588C73.1506 54.7776 76.6095 53.8355 79.6334 52.0342C82.6772 50.2498 85.1877 47.6841 86.9041 44.6034C88.6762 41.4601 89.5924 37.9075 89.5612 34.3C89.5951 30.7041 88.6785 27.1629 86.9041 24.0342ZM77.837 40.2106C77.837 43.9971 77.4848 46.9007 76.7806 48.9213C76.0763 50.942 75.1511 52.29 74.0049 52.9652C72.6627 53.6867 71.1513 54.0351 69.6284 53.9737C68.1318 54.0299 66.6477 53.6814 65.3328 52.9652C64.1829 52.2946 63.2577 50.9467 62.5571 48.9213C61.8564 46.896 61.5043 43.9924 61.5007 40.2106V28.3144C61.5007 24.5811 61.8528 21.7294 62.5571 19.7593C63.2613 17.7893 64.1991 16.4537 65.3705 15.7527C66.6665 15.019 68.1395 14.6554 69.6284 14.7016C71.1381 14.6522 72.6343 15 73.9671 15.7101C75.1367 16.3857 76.0745 17.7211 76.7806 19.7163C77.4813 21.7172 77.8334 24.5832 77.837 28.3144V40.2106Z" fill="#101010"/>
<path d="M135.827 24.0343C134.102 20.9711 131.592 18.4219 128.554 16.6487C125.532 14.845 122.072 13.9027 118.551 13.9241C116.117 13.9058 113.72 14.5234 111.598 15.7156C109.838 16.6911 108.324 18.0559 107.173 19.7056C107.125 19.7759 107.055 19.8289 106.974 19.8569C106.894 19.8849 106.806 19.8865 106.724 19.8614C106.643 19.8363 106.571 19.7859 106.52 19.7174C106.469 19.6489 106.441 19.5659 106.44 19.4805V14.7286C106.44 14.6566 106.42 14.5862 106.383 14.5245C106.346 14.4628 106.293 14.412 106.23 14.3776C106.167 14.3431 106.095 14.3261 106.023 14.3284C105.951 14.3306 105.881 14.352 105.82 14.3904L95.6878 20.7195C95.6304 20.7554 95.583 20.8053 95.5501 20.8644C95.5171 20.9235 95.4996 20.99 95.4991 21.0576V69.5978C95.4992 69.6507 95.5097 69.7031 95.5301 69.752C95.5505 69.8009 95.5803 69.8453 95.6178 69.8826C95.6553 69.92 95.6999 69.9496 95.7489 69.9697C95.7979 69.9899 95.8504 70.0002 95.9034 70H106.036C106.143 69.9995 106.245 69.957 106.321 69.8817C106.396 69.8064 106.439 69.7044 106.44 69.5978V49.2003C106.44 49.1147 106.468 49.0314 106.519 48.9625C106.57 48.8937 106.642 48.843 106.724 48.8178C106.806 48.7925 106.893 48.7942 106.974 48.8224C107.055 48.8507 107.125 48.904 107.173 48.9747C108.324 50.6245 109.838 51.9895 111.598 52.9653C113.72 54.1572 116.117 54.7747 118.551 54.7567C122.072 54.7781 125.532 53.8358 128.554 52.0321C131.599 50.2493 134.11 47.6832 135.825 44.6013C137.597 41.458 138.513 37.9054 138.482 34.2979C138.516 30.7029 137.6 27.1625 135.827 24.0343ZM126.761 40.2107C126.761 43.9972 126.409 46.9007 125.705 48.9214C125.001 50.9421 124.075 52.29 122.929 52.9653C121.588 53.6894 120.076 54.0396 118.553 53.9792C115.501 54.0028 112.534 52.9719 110.155 51.0613C107.676 49.1142 106.438 45.4973 106.442 40.2107V28.3145C106.442 23.128 107.68 19.563 110.155 17.6196C112.533 15.7065 115.5 14.6753 118.553 14.7016C120.063 14.6506 121.56 15.0005 122.891 15.7156C124.066 16.3858 125.004 17.7194 125.705 19.7163C126.406 21.7133 126.758 24.5794 126.761 28.3145V40.2107Z" fill="#101010"/>
<path d="M184.749 24.0342C183.025 20.9713 180.515 18.4221 177.479 16.6487C174.456 14.8449 170.996 13.9027 167.475 13.9241C165.041 13.9065 162.645 14.524 160.523 15.7155C158.764 16.6944 157.25 18.0594 156.096 19.7077C156.048 19.7783 155.978 19.8317 155.897 19.8599C155.816 19.8882 155.728 19.8899 155.647 19.8647C155.565 19.8396 155.493 19.7889 155.442 19.7202C155.391 19.6514 155.363 19.5682 155.363 19.4826V14.7339C155.363 14.6618 155.343 14.5911 155.306 14.529C155.27 14.467 155.217 14.4158 155.154 14.3808C155.091 14.3459 155.019 14.3283 154.947 14.33C154.875 14.3317 154.805 14.3525 154.743 14.3904L144.61 20.7195C144.553 20.7554 144.506 20.8053 144.473 20.8644C144.44 20.9235 144.422 20.9899 144.422 21.0576V69.5978C144.422 69.6507 144.432 69.7031 144.453 69.752C144.473 69.8009 144.503 69.8452 144.54 69.8826C144.578 69.92 144.623 69.9496 144.672 69.9697C144.721 69.9898 144.773 70.0001 144.826 70H154.959C155.066 69.9994 155.168 69.9569 155.243 69.8817C155.319 69.8064 155.362 69.7044 155.363 69.5978V49.2003C155.363 49.1147 155.391 49.0313 155.442 48.9625C155.493 48.8937 155.564 48.8429 155.646 48.8177C155.728 48.7925 155.816 48.7942 155.897 48.8224C155.978 48.8506 156.048 48.904 156.096 48.9747C157.253 50.6195 158.765 51.9833 160.521 52.9652C162.643 54.1565 165.04 54.774 167.474 54.7567C170.995 54.7781 174.454 53.8358 177.477 52.0321C180.522 50.2492 183.033 47.6832 184.748 44.6013C186.52 41.458 187.436 37.9053 187.405 34.2978C187.439 30.7028 186.523 27.1625 184.749 24.0342ZM175.684 40.2107C175.684 43.9972 175.332 46.9007 174.628 48.9214C173.923 50.942 172.998 52.29 171.852 52.9652C170.51 53.6893 168.999 54.0395 167.475 53.9792C164.423 54.0019 161.457 52.9712 159.078 51.0612C156.604 49.1142 155.366 45.4973 155.365 40.2107V28.3145C155.365 23.128 156.602 19.563 159.078 17.6195C161.456 15.7073 164.423 14.6763 167.475 14.7016C168.986 14.6506 170.483 15.0004 171.814 15.7155C172.989 16.3857 173.927 17.7193 174.628 19.7163C175.328 21.7133 175.68 24.5793 175.684 28.3145V40.2107Z" fill="#101010"/>
<path d="M261.672 14.6908C260.119 14.2208 258.503 13.9893 256.88 14.0043C254.242 13.9739 251.637 14.6007 249.302 15.828C247.603 16.6998 246.163 18.0017 245.125 19.6037C245.079 19.6784 245.009 19.7359 244.927 19.7674C244.844 19.799 244.754 19.8029 244.669 19.7785C244.585 19.7542 244.51 19.7029 244.457 19.6325C244.404 19.5621 244.376 19.4764 244.376 19.3883V14.7393C244.376 14.666 244.356 14.5941 244.318 14.5312C244.28 14.4683 244.227 14.4166 244.162 14.3815C244.098 14.3464 244.025 14.3293 243.952 14.3318C243.879 14.3342 243.807 14.3563 243.745 14.3957L233.624 20.7194C233.565 20.7556 233.517 20.8062 233.484 20.8664C233.451 20.9266 233.434 20.9943 233.435 21.063V34.4556C233.478 37.8956 232.454 41.2646 230.503 44.0994C228.603 46.9062 226.041 49.2031 223.044 50.7877C220.269 52.331 217.153 53.1603 213.978 53.201C212.429 53.2513 210.886 52.9878 209.442 52.4265C207.998 51.8651 206.683 51.0175 205.575 49.9347C203.36 47.7572 202.253 44.5158 202.255 40.2107V38.8914C202.21 37.9845 202.316 37.0763 202.568 36.204C202.653 35.9524 202.802 35.7272 203 35.5505C203.199 35.3738 203.44 35.2516 203.7 35.196C204.616 35.0377 205.546 34.973 206.475 35.0026H229.366C229.61 35.0041 229.846 34.9093 230.022 34.7388C230.197 34.5682 230.298 34.3356 230.303 34.091C230.309 34.0698 230.309 34.0476 230.303 34.0264C230.298 30.5228 229.385 27.0802 227.652 24.0342C225.929 20.9715 223.422 18.4223 220.386 16.6487C217.363 14.8456 213.904 13.9034 210.383 13.924C206.874 13.8999 203.425 14.8426 200.417 16.6487C197.399 18.4314 194.906 20.9793 193.19 24.0342C191.413 27.1619 190.496 30.7037 190.533 34.3C190.533 38.6077 191.535 42.3013 193.54 45.381C195.468 48.4033 198.203 50.8277 201.436 52.381C204.684 53.9622 208.252 54.775 211.865 54.7567C215.04 54.7585 218.185 54.1503 221.13 52.9652C224.091 51.7954 226.759 49.9901 228.945 47.677C230.552 45.9816 231.81 43.9875 232.648 41.8077C232.683 41.7198 232.748 41.6469 232.831 41.6014C232.914 41.5559 233.01 41.5408 233.104 41.5585C233.197 41.5763 233.281 41.6259 233.341 41.6988C233.401 41.7717 233.435 41.8633 233.435 41.958V54.0367C233.435 54.0904 233.446 54.1435 233.466 54.193C233.487 54.2425 233.517 54.2875 233.555 54.3254C233.593 54.3632 233.638 54.3932 233.688 54.4136C233.738 54.4341 233.791 54.4445 233.845 54.4443H243.966C244.02 54.4445 244.073 54.4341 244.123 54.4136C244.173 54.3932 244.218 54.3632 244.256 54.3254C244.294 54.2875 244.324 54.2425 244.345 54.193C244.365 54.1435 244.376 54.0904 244.376 54.0367V24.7369C244.376 22.0388 245.224 19.9255 246.92 18.397C248.568 16.884 250.735 16.0621 252.973 16.1016C255.088 16.0561 257.146 16.7891 258.756 18.1612C260.373 19.5397 261.181 21.4722 261.181 23.9588C261.174 24.0114 261.179 24.0651 261.195 24.1155C261.212 24.1659 261.241 24.2116 261.278 24.2492C261.316 24.2867 261.362 24.3149 261.412 24.3316C261.463 24.3483 261.517 24.3531 261.569 24.3454C261.622 24.3531 261.676 24.3484 261.727 24.3318C261.778 24.3152 261.824 24.287 261.862 24.2496C261.9 24.2122 261.929 24.1665 261.947 24.116C261.964 24.0656 261.97 24.0118 261.963 23.9588V15.0823C261.962 14.9946 261.933 14.9095 261.881 14.8392C261.829 14.7688 261.755 14.7169 261.672 14.6908ZM202.255 28.3139C202.255 24.5805 202.607 21.7289 203.312 19.7588C204.016 17.7888 204.954 16.4532 206.125 15.7521C207.421 15.0178 208.894 14.6542 210.383 14.701C211.893 14.6507 213.39 15.0005 214.722 15.715C215.891 16.3852 216.829 17.7188 217.535 19.7157C218.236 21.7167 218.586 24.5827 218.586 28.3139V33.8153C218.586 33.869 218.575 33.9221 218.555 33.9716C218.534 34.0212 218.504 34.0661 218.466 34.104C218.428 34.1418 218.383 34.1718 218.333 34.1923C218.283 34.2127 218.23 34.2231 218.177 34.223H206.475C205.559 34.2008 204.642 34.2653 203.737 34.4157C203.441 34.4745 203.156 34.5837 202.897 34.7388C202.835 34.7804 202.764 34.8046 202.69 34.809C202.616 34.8133 202.542 34.7976 202.477 34.7635C202.411 34.7294 202.356 34.6782 202.317 34.6152C202.278 34.5523 202.256 34.48 202.255 34.406V28.3139Z" fill="#101010"/>
<path d="M270.055 53.9232V4.32764H289.175C293.3 4.32764 296.545 5.39271 298.909 7.52287C301.273 9.65302 302.455 12.5248 302.455 16.1383C302.486 18.0298 302.094 19.9043 301.307 21.6252C300.54 23.249 299.382 24.6572 297.936 25.7234C296.293 26.9061 294.423 27.734 292.443 28.1546L292.651 27.8073C294.978 27.8971 297.251 28.5272 299.291 29.6477C301.151 30.6757 302.709 32.1726 303.81 33.9893C304.911 35.836 305.477 37.9514 305.446 40.1003C305.518 42.7062 304.829 45.2769 303.464 47.4983C302.093 49.601 300.135 51.2554 297.832 52.2561C295.077 53.432 292.101 54.0013 289.107 53.9253L270.055 53.9232ZM274.296 26.208H288.758C290.545 26.2565 292.316 25.8502 293.903 25.0272C295.323 24.2562 296.483 23.0843 297.24 21.658C298.056 20.082 298.462 18.3266 298.422 16.5529C298.422 13.8214 297.518 11.7144 295.711 10.2319C293.903 8.7493 291.307 8.00838 287.924 8.0091H274.296V26.208ZM274.296 50.2417H288.827C291.055 50.2947 293.27 49.8807 295.328 49.0264C297.057 48.3006 298.533 47.08 299.569 45.5183C300.585 43.9221 301.105 42.061 301.064 40.1698C301.101 38.2629 300.569 36.3883 299.535 34.7852C298.481 33.2053 297.014 31.9441 295.293 31.1387C293.336 30.2267 291.195 29.7752 289.036 29.8189H274.296V50.2417Z" fill="#101010"/>
<path d="M311.84 53.9232V18.22H316.082V27.6667L315.804 27.5278C316.125 25.5495 316.898 23.6717 318.063 22.0404C319.019 20.7664 320.289 19.7614 321.748 19.123C323.143 18.525 324.646 18.2178 326.164 18.22H328.388V22.3877H325.819C323.992 22.3504 322.201 22.8976 320.708 23.9492C319.221 25.0246 318.045 26.4748 317.301 28.1519C316.465 30.0308 316.05 32.0696 316.084 34.1256V53.9221L311.84 53.9232Z" fill="#101010"/>
<path d="M341.251 54.7567C338.006 54.7567 335.329 53.8772 333.221 52.1182C331.112 50.3592 330.058 47.8586 330.057 44.6164C330.016 42.9174 330.462 41.2421 331.343 39.7885C332.296 38.3369 333.616 37.1629 335.17 36.3855C337.147 35.3905 339.271 34.7219 341.462 34.4055L349.944 33.0163C351.614 32.7385 352.75 32.2754 353.352 31.6271C353.983 30.8971 354.306 29.9516 354.255 28.9886V28.9154C354.26 27.5512 353.939 26.2054 353.317 24.9911C352.651 23.7239 351.622 22.6839 350.362 22.0042C348.752 21.1785 346.955 20.7835 345.147 20.8578C342.272 20.8578 340.048 21.5178 338.472 22.8378C337.005 23.9692 336.033 25.6247 335.761 27.4567H331.38C331.568 25.6451 332.24 23.9175 333.327 22.4555C334.538 20.849 336.142 19.5811 337.986 18.774C340.243 17.7948 342.687 17.3207 345.147 17.3848C348.112 17.3848 350.581 17.8825 352.551 18.8779C354.424 19.7833 355.976 21.2371 357.001 23.0456C358.029 24.9541 358.544 27.0961 358.496 29.2627V53.9242H354.255V45.171L354.742 45.3099C353.814 47.9495 352.632 49.9407 351.196 51.2836C349.864 52.5661 348.242 53.5082 346.468 54.0298C344.771 54.5126 343.015 54.7573 341.251 54.7567ZM342.155 51.3531C343.778 51.3623 345.386 51.0434 346.882 50.4156C348.35 49.8017 349.667 48.8773 350.742 47.7061C351.858 46.4814 352.731 45.0562 353.315 43.5061C353.96 41.7735 354.278 39.9365 354.252 38.0881V33.8488L355.157 34.8907C354.485 35.1447 353.8 35.3649 353.106 35.5503C352.341 35.7592 351.286 35.9793 349.942 36.2105L341.738 37.5997C339.842 37.8474 338.038 38.5636 336.488 39.6835C335.074 40.7493 334.367 42.3008 334.368 44.338C334.368 46.6534 335.098 48.4014 336.558 49.5821C338.159 50.809 340.139 51.4358 342.155 51.3531Z" fill="#101010"/>
<path d="M366.28 53.9231V18.2199H370.521V26.5553L370.174 26.0707C370.799 24.3371 371.742 22.7353 372.955 21.3473C374.111 20.0527 375.55 19.0425 377.161 18.3954C378.944 17.6988 380.845 17.3566 382.758 17.388C384.496 17.3765 386.224 17.6583 387.868 18.2215C389.448 18.766 390.91 19.6026 392.18 20.6877C393.489 21.824 394.513 23.2516 395.17 24.8554C395.929 26.7655 396.296 28.8088 396.248 30.8635V53.9247H392.005V31.626C392.074 29.5893 391.657 27.5654 390.788 25.7217C390.032 24.2044 388.815 22.9645 387.312 22.1792C385.639 21.3551 383.79 20.9504 381.926 21C379.961 20.993 378.029 21.5084 376.329 22.4931C374.588 23.493 373.139 24.9296 372.125 26.6608C371.025 28.5703 370.472 30.745 370.525 32.9474V53.9247L366.28 53.9231Z" fill="#101010"/>
<path d="M417.313 54.7567C414.478 54.8063 411.688 54.0343 409.283 52.5339C406.862 50.9593 404.953 48.7139 403.789 46.0724C402.468 43.248 401.808 39.8675 401.808 35.931C401.787 33.7555 402.032 31.5855 402.538 29.4695C402.974 27.6512 403.677 25.9074 404.624 24.2949C405.478 22.8479 406.585 21.5656 407.892 20.5089C409.18 19.4838 410.64 18.6957 412.204 18.1817C413.853 17.6419 415.579 17.3722 417.314 17.3832C419.069 17.3822 420.81 17.688 422.459 18.2867C424.147 18.9004 425.695 19.8448 427.013 21.0646C428.431 22.3908 429.515 24.0328 430.177 25.8569L429.759 26.2737V4.32764H434.001V53.9232H429.759V45.9351L430.177 46.3519C429.502 48.1499 428.419 49.7669 427.013 51.0753C425.695 52.2954 424.147 53.2401 422.459 53.8537C420.81 54.4521 419.068 54.7577 417.313 54.7567ZM417.661 51.2142C419.262 51.2422 420.853 50.9714 422.354 50.4156C423.663 49.9201 424.858 49.1638 425.865 48.1929C426.851 47.2272 427.662 46.0992 428.264 44.8582C428.91 43.5249 429.377 42.1129 429.655 40.6582C429.958 39.1021 430.11 37.5202 430.106 35.9348C430.137 33.3762 429.701 30.8335 428.82 28.4308C428.04 26.2672 426.652 24.3741 424.822 22.9778C423.015 21.6115 420.628 20.9284 417.661 20.9284C416.245 20.9072 414.839 21.1669 413.524 21.6925C412.315 22.1898 411.215 22.9219 410.291 23.8463C409.337 24.8101 408.55 25.9251 407.962 27.146C407.321 28.4611 406.843 29.8487 406.536 31.2787C406.207 32.8081 406.045 34.3684 406.051 35.9326C406.024 38.5159 406.472 41.0821 407.372 43.5039C408.153 45.6785 409.496 47.6076 411.266 49.0953C413.076 50.5408 415.344 51.2923 417.66 51.2142H417.661Z" fill="#101010"/>
</g>
<defs>
<clipPath id="clip0_26_2502">
<rect width="434" height="70" fill="white"/>
</clipPath>
</defs>
</svg>
