<svg width="400" height="70" viewBox="0 0 400 70" fill="none" xmlns="http://www.w3.org/2000/svg">
<g clip-path="url(#clip0_28_2829)">
<path d="M269.919 54.2979V4.70239H301.311V8.38385H274.155V26.0992H299.366V29.5723H274.155V54.3006L269.919 54.2979Z" fill="#231F20"/>
<path d="M306.727 54.2979V4.70239H310.963V54.2979H306.727Z" fill="#231F20"/>
<path d="M333.605 55.1315C330.488 55.2027 327.417 54.3832 324.75 52.7693C322.213 51.1803 320.178 48.9043 318.881 46.2055C317.438 43.1583 316.725 39.8168 316.798 36.4459C316.782 34.3491 317.039 32.2592 317.562 30.2288C318.031 28.3994 318.781 26.6539 319.785 25.0542C320.727 23.5597 321.912 22.2333 323.292 21.1299C324.683 20.0283 326.258 19.1815 327.945 18.6287C329.772 18.0359 331.684 17.7428 333.605 17.7607C336.733 17.6808 339.819 18.5005 342.495 20.1224C345.012 21.7157 347.023 23.9926 348.294 26.6868C349.714 29.7404 350.415 33.0789 350.343 36.4459C350.359 38.5426 350.102 40.6324 349.579 42.6629C349.111 44.4869 348.374 46.2309 347.391 47.8376C346.468 49.336 345.293 50.6638 343.918 51.7624C342.527 52.8644 340.952 53.711 339.266 54.263C337.438 54.8559 335.526 55.1492 333.605 55.1315ZM333.605 51.589C335.192 51.6193 336.771 51.3484 338.258 50.7905C339.56 50.2843 340.751 49.5299 341.766 48.5693C342.771 47.6063 343.605 46.4787 344.231 45.2352C344.894 43.9177 345.373 42.5151 345.655 41.0669C345.959 39.5229 346.111 37.9524 346.107 36.3786C346.137 33.8177 345.689 31.2736 344.787 28.8767C343.976 26.7015 342.568 24.7994 340.724 23.3892C338.894 22 336.521 21.3054 333.605 21.3054C332.009 21.2781 330.422 21.5369 328.917 22.0695C327.6 22.5497 326.394 23.2944 325.375 24.2578C324.379 25.2074 323.556 26.324 322.945 27.5569C322.298 28.8685 321.82 30.2568 321.523 31.6886C321.194 33.2296 321.031 34.8013 321.035 36.3769C321.013 38.9373 321.46 41.48 322.356 43.8788C323.161 46.0948 324.583 48.0348 326.453 49.4707C328.303 50.8836 330.687 51.5897 333.605 51.589Z" fill="#231F20"/>
<path d="M362.774 54.298L351.731 18.5947H356.248L366.18 52.492H364.305L374.236 18.5947H377.987L387.918 52.492H386.044L395.974 18.5947H400.003L389.029 54.298H384.998L374.65 19.7077H377.568L367.221 54.2996L362.774 54.298Z" fill="#231F20"/>
<path d="M47.6198 40.9881L47.4906 41.2142C45.5166 44.8526 42.6105 47.9004 39.0703 50.045C37.5015 50.9873 33.3215 53.1999 28.4917 53.1999C25.6893 53.2301 22.9288 52.5178 20.4908 51.1354C18.0014 49.6912 15.9823 47.5585 14.6763 44.9937C13.2172 42.2691 12.4886 38.9884 12.4904 35.1517V19.0565C12.4904 13.9232 13.0485 10.0222 14.1648 7.35362C15.281 4.68501 16.7779 2.92209 18.6554 2.06486C20.5283 1.20655 22.9492 0.779188 25.9182 0.782778H36.6912C37.2787 0.75463 37.8674 0.79256 38.4464 0.895855C38.7539 1.04009 39.0122 1.27153 39.1893 1.56139L42.7803 6.69401C42.8394 6.78526 42.9197 6.86078 43.0145 6.91406C43.1092 6.96734 43.2155 6.99679 43.3241 6.99986C43.366 7.00648 43.4089 7.00319 43.4493 6.99025C43.4898 6.97732 43.5266 6.9551 43.5569 6.92537C43.5872 6.89565 43.6101 6.85924 43.6238 6.81906C43.6375 6.77889 43.6416 6.73606 43.6358 6.69401V0.40747C43.636 0.300156 43.5937 0.197124 43.5183 0.120789C43.4429 0.0444535 43.3404 0.000990543 43.2331 -0.000144959H25.9182C21.3244 -0.0377506 16.8103 1.20074 12.8786 3.57739C8.92392 5.96309 5.67699 9.36051 3.47253 13.4194C1.14526 17.6435 -0.05059 22.3975 0.00103901 27.2202C-0.044251 32.0694 1.15114 36.8496 3.4736 41.1065C5.67769 45.2149 8.92057 48.6733 12.8786 51.1365C16.7846 53.585 21.3085 54.8671 25.9182 54.8319C30.4959 54.8615 34.9885 53.595 38.8771 51.179C40.6186 50.1085 42.2278 48.8363 43.6713 47.3888C45.3784 45.6549 46.8407 43.696 48.0177 41.5664C48.0796 41.4555 48.1297 41.3629 48.1641 41.2972C48.1871 41.2613 48.2025 41.2212 48.2094 41.1792C48.2163 41.1373 48.2147 41.0943 48.2045 41.053C48.1944 41.0117 48.1759 40.9729 48.1503 40.939C48.1247 40.905 48.0924 40.8766 48.0555 40.8555C48.0186 40.8344 47.9778 40.821 47.9355 40.8161C47.8932 40.8113 47.8505 40.8151 47.8097 40.8273C47.769 40.8395 47.7311 40.8598 47.6985 40.8871C47.6658 40.9144 47.6391 40.948 47.6198 40.9859V40.9881Z" fill="#101010"/>
<path d="M86.8087 24.0342C85.0846 20.9724 82.5782 18.4236 79.5459 16.6487C76.5248 14.8649 73.0807 13.9241 69.5724 13.9241C66.0641 13.9241 62.62 14.8649 59.5989 16.6487C56.5852 18.433 54.0951 20.9805 52.3797 24.0342C50.6046 27.1618 49.6888 30.7037 49.7255 34.3C49.6914 37.9078 50.6068 41.4612 52.3797 44.6034C54.0857 47.6761 56.577 50.2404 59.5989 52.0342C62.62 53.8179 66.0641 54.7588 69.5724 54.7588C73.0807 54.7588 76.5248 53.8179 79.5459 52.0342C82.5865 50.2498 85.0941 47.6842 86.8087 44.6034C88.5793 41.4602 89.4947 37.9075 89.4635 34.3C89.4974 30.704 88.5816 27.1628 86.8087 24.0342ZM77.7536 40.2107C77.7536 43.9971 77.4019 46.9007 76.6984 48.9213C75.9949 50.942 75.0705 52.29 73.9252 52.9652C72.5846 53.6868 71.0748 54.0351 69.5536 53.9737C68.0587 54.0299 66.5765 53.6814 65.2632 52.9652C64.1146 52.2946 63.1902 50.9467 62.49 48.9213C61.7897 46.896 61.4382 43.9925 61.4353 40.2107V28.3144C61.4353 24.5811 61.7869 21.7294 62.49 19.7593C63.1931 17.7893 64.1301 16.4537 65.3009 15.7527C66.5955 15.019 68.0668 14.6554 69.5541 14.7016C71.0621 14.6522 72.5567 15 73.8881 15.7101C75.0567 16.3861 75.9937 17.7215 76.699 19.7163C77.3981 21.7172 77.7499 24.5832 77.7542 28.3144L77.7536 40.2107Z" fill="#101010"/>
<path d="M135.678 24.0341C133.955 20.9711 131.449 18.4219 128.415 16.6486C125.396 14.845 121.94 13.9027 118.423 13.924C115.991 13.9058 113.597 14.5233 111.478 15.7154C109.72 16.691 108.208 18.0558 107.058 19.7054C107.01 19.7756 106.94 19.8285 106.859 19.8564C106.779 19.8844 106.691 19.8859 106.61 19.8609C106.528 19.8358 106.457 19.7854 106.405 19.717C106.354 19.6486 106.326 19.5657 106.326 19.4804V14.7284C106.325 14.6565 106.305 14.586 106.268 14.5243C106.232 14.4626 106.179 14.4118 106.116 14.3774C106.053 14.3429 105.981 14.3259 105.91 14.3281C105.838 14.3304 105.768 14.3519 105.707 14.3903L95.5854 20.7194C95.5279 20.7552 95.4805 20.805 95.4475 20.8641C95.4144 20.9233 95.3969 20.9898 95.3964 21.0575V69.5977C95.3965 69.6506 95.407 69.703 95.4273 69.7519C95.4477 69.8008 95.4774 69.8451 95.5149 69.8825C95.5524 69.9199 95.5969 69.9495 95.6459 69.9696C95.6948 69.9897 95.7473 70 95.8002 69.9999H105.922C106.028 69.9993 106.131 69.9568 106.206 69.8816C106.282 69.8063 106.325 69.7043 106.326 69.5977V49.2002C106.326 49.1144 106.353 49.0309 106.404 48.9619C106.455 48.8929 106.527 48.8421 106.609 48.8168C106.691 48.7916 106.779 48.7933 106.859 48.8217C106.94 48.8501 107.01 48.9037 107.058 48.9746C108.208 50.6244 109.72 51.9894 111.478 52.9651C113.597 54.157 115.991 54.7745 118.423 54.7566C121.94 54.7778 125.396 53.8356 128.415 52.032C131.457 50.2493 133.965 47.6832 135.678 44.6012C137.448 41.458 138.363 37.9053 138.332 34.2977C138.366 30.7025 137.45 27.1621 135.678 24.0341ZM126.622 40.2106C126.622 43.9971 126.27 46.9006 125.567 48.9213C124.864 50.9419 123.94 52.2899 122.795 52.9651C121.455 53.6892 119.945 54.0394 118.423 53.9791C115.374 54.0026 112.411 52.9718 110.034 51.0611C107.558 49.1141 106.321 45.4972 106.325 40.2106V28.3144C106.325 23.1279 107.562 19.5629 110.034 17.6194C112.409 15.706 115.374 14.6743 118.423 14.6999C119.932 14.6488 121.427 14.9987 122.756 15.7138C123.93 16.384 124.867 17.7176 125.567 19.7146C126.268 21.7116 126.619 24.5776 126.622 28.3127V40.2106Z" fill="#101010"/>
<path d="M184.547 24.0343C182.824 20.9716 180.318 18.4226 177.284 16.6488C174.265 14.8451 170.809 13.9028 167.292 13.9242C164.86 13.9066 162.467 14.5241 160.347 15.7157C158.59 16.6941 157.079 18.0584 155.926 19.7057C155.878 19.7763 155.808 19.8297 155.727 19.8579C155.647 19.8862 155.559 19.8878 155.477 19.8627C155.395 19.8376 155.324 19.7869 155.273 19.7182C155.222 19.6494 155.194 19.5662 155.194 19.4806V14.734C155.194 14.6619 155.174 14.5912 155.138 14.5291C155.101 14.4671 155.048 14.4159 154.985 14.3809C154.922 14.3459 154.851 14.3283 154.779 14.33C154.707 14.3317 154.637 14.3526 154.575 14.3905L144.454 20.7196C144.397 20.7557 144.35 20.8056 144.317 20.8647C144.284 20.9237 144.266 20.9901 144.266 21.0577V69.5979C144.266 69.6508 144.276 69.7032 144.297 69.7521C144.317 69.801 144.347 69.8454 144.384 69.8827C144.422 69.9201 144.466 69.9497 144.515 69.9698C144.564 69.99 144.617 70.0003 144.67 70.0001H154.791C154.898 69.9995 155 69.957 155.076 69.8818C155.151 69.8065 155.194 69.7045 155.195 69.5979V49.2004C155.195 49.1148 155.223 49.0315 155.274 48.9626C155.325 48.8938 155.396 48.8431 155.478 48.8178C155.56 48.7926 155.648 48.7943 155.728 48.8225C155.809 48.8508 155.879 48.9041 155.927 48.9748C157.083 50.6196 158.594 51.9835 160.348 52.9653C162.468 54.1566 164.862 54.7741 167.293 54.7568C170.81 54.7782 174.266 53.8359 177.285 52.0322C180.327 50.249 182.835 47.6831 184.548 44.6014C186.318 41.458 187.233 37.9054 187.202 34.298C187.235 30.7027 186.319 27.1624 184.547 24.0343ZM175.492 40.2108C175.492 43.9973 175.14 46.9008 174.436 48.9215C173.732 50.9422 172.808 52.2901 171.664 52.9653C170.324 53.6894 168.814 54.0397 167.292 53.9793C164.243 54.0022 161.28 52.9714 158.904 51.0613C156.432 49.1143 155.195 45.4974 155.194 40.2108V28.3146C155.194 23.1281 156.431 19.5631 158.904 17.6197C161.279 15.7073 164.243 14.6763 167.292 14.7017C168.801 14.6507 170.296 15.0006 171.626 15.7157C172.8 16.3859 173.736 17.7195 174.436 19.7164C175.141 21.7173 175.493 24.5834 175.492 28.3146V40.2108Z" fill="#101010"/>
<path d="M261.386 14.6908C257.273 13.4765 252.852 13.8834 249.03 15.828C247.333 16.7001 245.894 18.002 244.857 19.6037C244.811 19.6786 244.741 19.7362 244.659 19.7678C244.577 19.7995 244.486 19.8034 244.402 19.779C244.317 19.7546 244.243 19.7033 244.19 19.6328C244.137 19.5623 244.109 19.4764 244.109 19.3883V14.7393C244.109 14.666 244.089 14.5941 244.051 14.5312C244.014 14.4684 243.96 14.4167 243.895 14.3816C243.831 14.3466 243.758 14.3294 243.685 14.3318C243.612 14.3343 243.541 14.3564 243.479 14.3957L233.368 20.7194C233.309 20.7555 233.261 20.8061 233.228 20.8663C233.195 20.9266 233.178 20.9943 233.179 21.063V34.4556C233.222 37.8956 232.199 41.2645 230.25 44.0994C228.352 46.906 225.793 49.2028 222.799 50.7877C220.027 52.3306 216.915 53.1596 213.743 53.2C212.196 53.2502 210.655 52.9867 209.213 52.4253C207.77 51.864 206.456 51.0164 205.35 49.9337C203.137 47.7561 202.031 44.5148 202.033 40.2096V38.8903C201.988 37.9834 202.093 37.0752 202.346 36.2029C202.431 35.9512 202.58 35.726 202.778 35.5493C202.976 35.3726 203.217 35.2504 203.477 35.1949C204.392 35.0367 205.321 34.9719 206.25 35.0016H229.114C229.359 35.0032 229.594 34.9085 229.77 34.7379C229.945 34.5673 230.046 34.3345 230.051 34.09C230.057 34.0688 230.057 34.0465 230.051 34.0253C230.046 30.5216 229.134 27.079 227.402 24.0331C225.682 20.9707 223.177 18.4219 220.145 16.6487C217.126 14.8457 213.67 13.9034 210.153 13.924C206.648 13.8998 203.203 14.8426 200.198 16.6487C197.183 18.4314 194.692 20.9792 192.978 24.0342C191.203 27.162 190.288 30.7038 190.324 34.3C190.324 38.6077 191.326 42.3013 193.329 45.381C195.254 48.4034 197.986 50.8278 201.215 52.381C204.46 53.9621 208.025 54.775 211.634 54.7567C214.805 54.7584 217.947 54.1502 220.888 52.9652C223.846 51.7954 226.511 49.9901 228.695 47.677C230.3 45.9815 231.557 43.9874 232.394 41.8077C232.429 41.7198 232.493 41.6469 232.576 41.6014C232.659 41.5559 232.756 41.5408 232.849 41.5585C232.942 41.5763 233.025 41.6259 233.086 41.6988C233.146 41.7717 233.179 41.8633 233.18 41.958V54.0367C233.18 54.0903 233.19 54.1434 233.211 54.193C233.231 54.2425 233.261 54.2875 233.299 54.3253C233.337 54.3632 233.382 54.3932 233.432 54.4136C233.482 54.434 233.535 54.4445 233.588 54.4443H243.7C243.753 54.4445 243.806 54.4341 243.856 54.4136C243.906 54.3932 243.951 54.3632 243.989 54.3254C244.027 54.2875 244.057 54.2425 244.078 54.193C244.098 54.1435 244.109 54.0904 244.109 54.0367V24.7369C244.109 22.0388 244.956 19.9256 246.649 18.397C248.295 16.8836 250.46 16.0611 252.695 16.1C254.809 16.0545 256.865 16.7875 258.472 18.1596C260.087 19.538 260.895 21.4706 260.895 23.9572C260.888 24.0098 260.892 24.0633 260.909 24.1137C260.926 24.164 260.954 24.2098 260.992 24.2473C261.029 24.2848 261.075 24.3131 261.126 24.3298C261.176 24.3466 261.23 24.3514 261.282 24.3438C261.335 24.3516 261.389 24.347 261.44 24.3304C261.491 24.3138 261.537 24.2857 261.575 24.2482C261.613 24.2108 261.642 24.165 261.659 24.1145C261.677 24.0641 261.683 24.0102 261.676 23.9572V15.0823C261.675 14.9947 261.646 14.9097 261.594 14.8394C261.542 14.7691 261.469 14.7171 261.386 14.6908ZM202.034 28.3139C202.034 24.5806 202.386 21.7289 203.09 19.7588C203.794 17.7888 204.731 16.4532 205.9 15.7521C207.194 15.0179 208.666 14.6543 210.153 14.701C211.662 14.6507 213.157 15.0005 214.487 15.715C215.655 16.3852 216.592 17.7188 217.297 19.7157C217.997 21.7167 218.347 24.5827 218.347 28.3139V33.8153C218.347 33.869 218.336 33.9221 218.315 33.9716C218.295 34.0212 218.265 34.0661 218.227 34.104C218.189 34.1418 218.144 34.1718 218.094 34.1923C218.044 34.2127 217.991 34.2231 217.938 34.223H206.249C205.333 34.2008 204.417 34.2654 203.514 34.4157C203.217 34.4745 202.933 34.5838 202.674 34.7388C202.613 34.7804 202.541 34.8046 202.468 34.809C202.394 34.8133 202.32 34.7976 202.254 34.7635C202.189 34.7294 202.133 34.6782 202.095 34.6152C202.056 34.5523 202.034 34.48 202.033 34.406L202.034 28.3139Z" fill="#101010"/>
</g>
<defs>
<clipPath id="clip0_28_2829">
<rect width="400" height="70" fill="white"/>
</clipPath>
</defs>
</svg>
