<svg width="200" height="200" viewBox="0 0 200 200" fill="none" xmlns="http://www.w3.org/2000/svg">
<g clip-path="url(#clip0_106_690)">
<path d="M50 100C77.6142 100 100 77.6142 100 50C100 22.3858 77.6142 0 50 0C22.3858 0 0 22.3858 0 50C0 77.6142 22.3858 100 50 100Z" fill="white"/>
<path d="M150 100C177.614 100 200 77.6142 200 50C200 22.3858 177.614 0 150 0C122.386 0 100 22.3858 100 50C100 77.6142 122.386 100 150 100Z" fill="white"/>
<path d="M50 200C77.6142 200 100 177.614 100 150C100 122.386 77.6142 100 50 100C22.3858 100 0 122.386 0 150C0 177.614 22.3858 200 50 200Z" fill="white"/>
<path d="M150 0H200V50C199.999 36.7396 194.73 24.0227 185.354 14.6461C175.977 5.26959 163.26 0.00132584 150 0Z" fill="white"/>
<path d="M0 50V0H50C36.7396 0.00132584 24.0227 5.26959 14.6461 14.6461C5.26959 24.0227 0.00132584 36.7396 0 50Z" fill="white"/>
<path d="M50 200H0V150C0.00132584 163.26 5.26959 175.977 14.6461 185.354C24.0227 194.73 36.7396 199.999 50 200Z" fill="white"/>
<path d="M150 200C177.614 200 200 177.614 200 150C200 122.386 177.614 100 150 100C122.386 100 100 122.386 100 150C100 177.614 122.386 200 150 200Z" fill="white"/>
<path d="M200 150V200H150C163.26 199.999 175.977 194.73 185.354 185.354C194.73 175.977 199.999 163.26 200 150Z" fill="white"/>
</g>
<defs>
<clipPath id="clip0_106_690">
<rect width="200" height="200" fill="white"/>
</clipPath>
</defs>
</svg>
