<svg width="200" height="200" viewBox="0 0 200 200" fill="none" xmlns="http://www.w3.org/2000/svg">
<g clip-path="url(#clip0_106_728)">
<path d="M62.1452 34.8574V64.0241H32.9785C40.714 64.0241 48.1326 60.9511 53.6025 55.4813C59.0723 50.0115 62.1452 42.5929 62.1452 34.8574Z" fill="white"/>
<path d="M62.1452 98.1909V127.358H32.9785C40.714 127.358 48.1326 124.285 53.6025 118.815C59.0723 113.345 62.1452 105.926 62.1452 98.1909Z" fill="white"/>
<path d="M125.478 34.8574V64.0241H96.3115C104.047 64.0241 111.466 60.9511 116.935 55.4813C122.405 50.0115 125.478 42.5929 125.478 34.8574Z" fill="white"/>
<path d="M96.3117 64.0241H67.145V34.8574C67.145 42.5929 70.2179 50.0115 75.6877 55.4813C81.1575 60.9511 88.5762 64.0241 96.3117 64.0241Z" fill="white"/>
<path d="M125.478 98.1909V127.358H96.3115C104.047 127.358 111.466 124.285 116.935 118.815C122.405 113.345 125.478 105.926 125.478 98.1909Z" fill="white"/>
<path d="M96.3117 127.358H67.145V98.1909C67.145 105.926 70.2179 113.345 75.6877 118.815C81.1575 124.285 88.5762 127.358 96.3117 127.358Z" fill="white"/>
<path d="M159.645 64.0241H130.479V34.8574C130.479 42.5929 133.551 50.0115 139.021 55.4813C144.491 60.9511 151.91 64.0241 159.645 64.0241Z" fill="white"/>
<path d="M159.645 127.358H130.479V98.1909C130.479 105.926 133.551 113.345 139.021 118.815C144.491 124.285 151.91 127.358 159.645 127.358Z" fill="white"/>
<path d="M130.479 98.1908V69.0242H159.645C151.91 69.0242 144.491 72.097 139.021 77.5669C133.551 83.0367 130.479 90.4554 130.479 98.1908Z" fill="white"/>
<path d="M130.479 161.524V132.357H159.645C151.91 132.357 144.491 135.43 139.021 140.9C133.551 146.37 130.479 153.789 130.479 161.524Z" fill="white"/>
<path d="M96.3115 69.0242H125.478V98.1908C125.478 90.4554 122.405 83.0367 116.935 77.5669C111.466 72.097 104.047 69.0242 96.3115 69.0242Z" fill="white"/>
<path d="M67.145 98.1908V69.0242H96.3117C88.5762 69.0242 81.1575 72.097 75.6877 77.5669C70.2179 83.0367 67.145 90.4554 67.145 98.1908Z" fill="white"/>
<path d="M96.3115 132.357H125.478V161.524C125.478 153.789 122.405 146.37 116.935 140.9C111.466 135.43 104.047 132.357 96.3115 132.357Z" fill="white"/>
<path d="M67.145 161.524V132.357H96.3117C88.5762 132.357 81.1575 135.43 75.6877 140.9C70.2179 146.37 67.145 153.789 67.145 161.524Z" fill="white"/>
<path d="M32.9785 69.0242H62.1452V98.1908C62.1452 90.4554 59.0723 83.0367 53.6025 77.5669C48.1326 72.097 40.714 69.0242 32.9785 69.0242Z" fill="white"/>
<path d="M32.9785 132.357H62.1452V161.524C62.1452 153.789 59.0723 146.37 53.6025 140.9C48.1326 135.43 40.714 132.357 32.9785 132.357Z" fill="white"/>
<path d="M67.145 0H62.145V200H67.145V0Z" fill="white"/>
<path d="M200 132.358V127.358L0 127.358V132.358H200Z" fill="white"/>
<path d="M130.479 16.6667H125.479V183.333H130.479V16.6667Z" fill="white"/>
<path d="M16.6665 64.0249V69.0249L183.333 69.0249V64.0249L16.6665 64.0249Z" fill="white"/>
</g>
<defs>
<clipPath id="clip0_106_728">
<rect width="200" height="200" fill="white"/>
</clipPath>
</defs>
</svg>
