<svg width="200" height="76" viewBox="0 0 200 76" fill="none" xmlns="http://www.w3.org/2000/svg">
<g clip-path="url(#clip0_106_720)">
<path d="M200 0L100 48.227L0 0L76.4195 17.0418L90.1796 24.4903L96.292 12.4915L100 9.56425L103.708 12.4915L109.82 24.4903L123.581 17.0418L200 0Z" fill="white"/>
<path d="M109.386 48.8037L117.199 45.4272L133.517 59.3041L118.679 60.3678L109.386 48.8037Z" fill="white"/>
<path d="M111.066 66.66L100.405 75.4707L99.9998 75.7895L99.5942 75.4707L99.9998 53.5598L103.824 51.8499L111.066 66.66Z" fill="white"/>
<path d="M91.0196 48.8037L83.2067 45.4272L66.8887 59.3041L81.7264 60.3678L91.0196 48.8037Z" fill="white"/>
<path d="M100.406 75.4707L100 75.7895L99.5946 75.4707L88.9341 66.66L96.1763 51.8499L100 53.5598L100.406 75.4707Z" fill="white"/>
</g>
<defs>
<clipPath id="clip0_106_720">
<rect width="200" height="75.7895" fill="white"/>
</clipPath>
</defs>
</svg>
