<svg width="200" height="122" viewBox="0 0 200 122" fill="none" xmlns="http://www.w3.org/2000/svg">
<g clip-path="url(#clip0_106_715)">
<path d="M8.51996 121.866H32.6841C34.9437 121.866 37.1108 120.969 38.7086 119.373C40.3064 117.776 41.204 115.611 41.204 113.353V80.0696C41.2043 78.1962 41.823 76.3753 42.9642 74.8889C44.1054 73.4026 45.7054 72.3339 47.5162 71.8484C49.327 71.363 51.2476 71.488 52.9801 72.2039C54.7127 72.9199 56.1606 74.1868 57.0993 75.8085L81.3062 117.628C82.0543 118.921 83.1296 119.994 84.4241 120.74C85.7186 121.487 87.1869 121.88 88.6814 121.88H110.907C112.402 121.88 113.871 121.487 115.166 120.74C116.461 119.993 117.536 118.919 118.284 117.626L160.875 43.9332C161.622 42.6391 162.698 41.5646 163.993 40.8178C165.288 40.071 166.757 39.6782 168.253 39.6789H191.494C193.753 39.6783 195.92 38.7812 197.517 37.1848C199.115 35.5884 200.013 33.4235 200.014 31.1658V8.51108C200.013 6.25346 199.115 4.08848 197.517 2.4921C195.92 0.895721 193.753 -0.00135389 191.494 -0.00195312H145.165C143.665 -0.00141297 142.192 0.39472 140.894 1.14648C139.596 1.89823 138.52 2.97897 137.774 4.27943L107.364 57.3018C106.62 58.5999 105.547 59.6791 104.253 60.4309C102.958 61.1826 101.489 61.5802 99.9916 61.5836C98.4946 61.587 97.0231 61.1962 95.7254 60.4504C94.4277 59.7047 93.3496 58.6303 92.5998 57.3357L61.832 4.24553C61.0839 2.95405 60.0092 1.8818 58.7155 1.1363C57.4218 0.390802 55.9547 -0.00173021 54.4613 -0.00195312H8.51996C6.26032 -0.00195312 4.09323 0.894936 2.49542 2.49144C0.897619 4.08795 0 6.25328 0 8.51108V113.36C0.00179909 115.617 0.900161 117.78 2.49777 119.375C4.09538 120.97 6.26149 121.866 8.51996 121.866Z" fill="white"/>
<path d="M179.087 121.701C190.638 121.701 200.002 112.344 200.002 100.803C200.002 89.2608 190.638 79.9043 179.087 79.9043C167.536 79.9043 158.171 89.2608 158.171 100.803C158.171 112.344 167.536 121.701 179.087 121.701Z" fill="white"/>
</g>
<defs>
<clipPath id="clip0_106_715">
<rect width="200" height="121.875" fill="white"/>
</clipPath>
</defs>
</svg>
