<svg width="30" height="30" viewBox="0 0 30 30" fill="none" xmlns="http://www.w3.org/2000/svg">
<path d="M14.4065 2.86886C14.4613 2.75819 14.5459 2.66503 14.6509 2.59989C14.7558 2.53476 14.8768 2.50024 15.0003 2.50024C15.1238 2.50024 15.2448 2.53476 15.3497 2.59989C15.4546 2.66503 15.5393 2.75819 15.594 2.86886L18.4815 8.71761C18.6718 9.10257 18.9526 9.43562 19.2998 9.68818C19.6471 9.94073 20.0505 10.1053 20.4753 10.1676L26.9328 11.1126C27.0552 11.1303 27.1701 11.182 27.2647 11.2616C27.3592 11.3413 27.4296 11.4458 27.4678 11.5634C27.5061 11.6809 27.5106 11.8069 27.481 11.9269C27.4514 12.0469 27.3888 12.1563 27.3003 12.2426L22.6303 16.7901C22.3223 17.0902 22.0919 17.4607 21.9588 17.8696C21.8258 18.2786 21.7941 18.7137 21.8665 19.1376L22.969 25.5626C22.9906 25.6849 22.9774 25.8108 22.9309 25.926C22.8844 26.0411 22.8065 26.1409 22.706 26.2139C22.6055 26.2868 22.4865 26.3301 22.3626 26.3387C22.2387 26.3474 22.1149 26.321 22.0053 26.2626L16.2328 23.2276C15.8524 23.0279 15.4293 22.9235 14.9997 22.9235C14.5701 22.9235 14.1469 23.0279 13.7665 23.2276L7.9953 26.2626C7.88571 26.3206 7.76204 26.3467 7.63836 26.3379C7.51468 26.3291 7.39594 26.2858 7.29567 26.2129C7.19539 26.14 7.11759 26.0403 7.07112 25.9254C7.02465 25.8104 7.01137 25.6847 7.0328 25.5626L8.13405 19.1389C8.20679 18.7148 8.17528 18.2794 8.04222 17.8702C7.90916 17.461 7.67856 17.0903 7.3703 16.7901L2.7003 12.2439C2.61104 12.1577 2.54779 12.0481 2.51775 11.9277C2.48771 11.8073 2.49209 11.6809 2.53039 11.5628C2.5687 11.4448 2.63938 11.3399 2.73439 11.2601C2.8294 11.1803 2.94493 11.1287 3.0678 11.1114L9.52405 10.1676C9.94937 10.1057 10.3533 9.94143 10.701 9.68885C11.0488 9.43626 11.3299 9.10295 11.5203 8.71761L14.4065 2.86886Z" stroke="white" stroke-width="2" stroke-linecap="round" stroke-linejoin="round"/>
</svg>
