<svg width="30" height="30" viewBox="0 0 30 30" fill="none" xmlns="http://www.w3.org/2000/svg">
<path d="M18.7498 15L7.03358 26.7162C6.78735 26.9626 6.49502 27.158 6.17327 27.2913C5.85153 27.4246 5.50667 27.4933 5.15839 27.4933C4.45502 27.4935 3.7804 27.2142 3.28295 26.7169C2.7855 26.2196 2.50598 25.5451 2.50586 24.8417C2.50574 24.1383 2.78505 23.4637 3.28233 22.9662L14.9998 11.25" stroke="white" stroke-width="2" stroke-linecap="round" stroke-linejoin="round"/>
<path d="M22.5 18.75L27.5 13.75" stroke="white" stroke-width="2" stroke-linecap="round" stroke-linejoin="round"/>
<path d="M26.875 14.375L24.4825 11.9825C24.0136 11.5138 23.7501 10.878 23.75 10.215V9.785C23.7499 9.12201 23.4864 8.48623 23.0175 8.0175L20.9462 5.94625C19.5402 4.54039 17.6333 3.75042 15.645 3.75H11.25L12.8038 5.30375C14.2099 6.71015 14.9999 8.61747 15 10.6062V12.5L17.5 15H18.965C19.628 15.0001 20.2638 15.2636 20.7325 15.7325L23.125 18.125" stroke="white" stroke-width="2" stroke-linecap="round" stroke-linejoin="round"/>
</svg>
