<svg width="136" height="21" viewBox="0 0 136 21" fill="none" xmlns="http://www.w3.org/2000/svg">
<path d="M92.0234 10.1017C91.7558 9.73534 91.3999 9.44249 90.9887 9.25041C90.567 9.05087 90.1238 8.9003 89.6679 8.80163L87.792 8.38401C87.3776 8.2887 86.9713 8.16143 86.5766 8.00334C86.2559 7.88054 85.9738 7.67421 85.7598 7.40574C85.552 7.11146 85.4488 6.75608 85.4666 6.39632C85.4559 6.00863 85.5897 5.63078 85.842 5.33617C86.116 5.03199 86.4653 4.80524 86.8547 4.6787C87.3013 4.52611 87.7707 4.45041 88.2427 4.45483C88.7426 4.44015 89.2404 4.52649 89.7061 4.7087C90.0772 4.85961 90.3993 5.11035 90.6365 5.43311C90.8686 5.76757 91.0106 6.15612 91.0489 6.56135H91.9944C91.9863 6.18391 91.9073 5.81135 91.7615 5.4631C91.6102 5.11058 91.385 4.79463 91.1011 4.5366C90.7733 4.24447 90.387 4.02544 89.9679 3.89407C89.429 3.72806 88.8668 3.64985 88.303 3.66244C87.8145 3.65968 87.3276 3.72017 86.8547 3.84242C86.4241 3.95082 86.0154 4.13264 85.6467 4.3799C85.3081 4.607 85.0259 4.90845 84.8217 5.26124C84.6161 5.63088 84.5125 6.04853 84.5216 6.47137C84.5047 6.90355 84.5976 7.33298 84.7916 7.7196C84.9611 8.0311 85.2031 8.29724 85.4972 8.49554C85.7843 8.68848 86.0976 8.83922 86.4276 8.94316C86.7578 9.04824 87.073 9.13552 87.373 9.20501L89.5339 9.68378C89.9291 9.75818 90.3077 9.90263 90.652 10.1103C90.9137 10.2696 91.1303 10.4932 91.2811 10.7598C91.4173 11.012 91.4871 11.2946 91.4839 11.5811C91.4839 12.1394 91.3441 12.5878 91.0645 12.9262C90.7697 13.2739 90.3818 13.5304 89.9464 13.6657C89 13.9561 87.9909 13.9741 87.0347 13.7175C86.6722 13.6152 86.3333 13.4428 86.0371 13.21C85.7745 12.9996 85.5576 12.7378 85.3999 12.4406C85.2438 12.1444 85.1395 11.8237 85.0917 11.4923H84.1462C84.1678 11.9047 84.2726 12.3086 84.4544 12.6794C84.648 13.0749 84.9214 13.426 85.2574 13.7107C85.6453 14.0348 86.0939 14.2783 86.5771 14.427C87.666 14.7487 88.821 14.7746 89.9232 14.5021C90.3805 14.3879 90.8148 14.1959 91.207 13.9346C91.5965 13.6774 91.9134 13.3246 92.1274 12.9099C92.3415 12.4952 92.4454 12.0325 92.4294 11.5662C92.429 10.9591 92.2937 10.471 92.0234 10.1017Z" fill="#070815"/>
<path d="M95.0843 6.83043V7.56271H97.2151V6.83043H95.0843ZM96.3299 13.7473C96.0501 13.7579 95.7767 13.6618 95.5652 13.4785C95.3643 13.2998 95.2643 13.031 95.2651 12.6723V4.75391H94.3497V12.926C94.3497 13.4243 94.5174 13.8127 94.8526 14.0912C95.2061 14.3769 95.6508 14.5256 96.1051 14.51H97.2151V13.7471L96.3299 13.7473ZM92.7891 6.83043V7.56271H94.5293V6.83043H92.7891Z" fill="#070815"/>
<path d="M103.592 6.83008V11.3718C103.601 11.8179 103.491 12.2583 103.273 12.648C103.056 13.0377 102.739 13.3628 102.355 13.5902C102.003 13.8009 101.601 13.9122 101.192 13.912C100.808 13.9205 100.429 13.8329 100.089 13.6572C99.772 13.4872 99.5155 13.2238 99.354 12.9028C99.1667 12.5145 99.0764 12.0866 99.091 11.6558V6.83008H98.1757V11.7753C98.1657 12.2165 98.2421 12.6554 98.4004 13.0673C98.5375 13.4115 98.7506 13.7203 99.0238 13.9706C99.2869 14.2093 99.5955 14.3925 99.931 14.5094C100.274 14.6288 100.634 14.6892 100.997 14.6881C101.657 14.6881 102.21 14.5289 102.655 14.2106C103.065 13.9064 103.389 13.4999 103.592 13.0316V14.5094H104.508V6.83008H103.592Z" fill="#070815"/>
<path d="M111.8 3.84229V8.26402C111.66 7.95344 111.458 7.67416 111.208 7.44267C110.923 7.1801 110.589 6.97694 110.224 6.84508C109.868 6.71656 109.493 6.651 109.114 6.65132C108.74 6.64866 108.367 6.70631 108.011 6.82203C107.323 7.04503 106.741 7.51308 106.376 8.13708C106.172 8.48374 106.02 8.85896 105.926 9.25039C105.816 9.70514 105.763 10.1716 105.768 10.6393C105.768 11.4861 105.911 12.2132 106.196 12.8208C106.439 13.3883 106.848 13.8697 107.368 14.2027C107.888 14.5356 108.497 14.7048 109.114 14.6884C109.493 14.6888 109.868 14.6232 110.224 14.4946C110.589 14.3628 110.923 14.1596 111.208 13.897C111.456 13.6681 111.658 13.3927 111.8 13.0863V14.5099H112.715V3.84229H111.8ZM111.778 11.6556C111.718 11.9689 111.617 12.273 111.478 12.5601C111.347 12.8266 111.172 13.0688 110.96 13.2764C110.742 13.4855 110.485 13.6483 110.202 13.7552C109.878 13.8746 109.535 13.9328 109.19 13.927C108.69 13.9437 108.2 13.7822 107.808 13.4714C107.427 13.1512 107.138 12.7362 106.968 12.2681C106.774 11.7473 106.678 11.1951 106.683 10.6393C106.682 10.3031 106.717 9.96772 106.789 9.63918C106.855 9.33138 106.958 9.03272 107.096 8.74973C107.223 8.4872 107.393 8.24749 107.599 8.04027C107.799 7.84165 108.036 7.68425 108.296 7.57701C108.58 7.46468 108.884 7.40905 109.19 7.41326C109.829 7.41326 110.344 7.55995 110.735 7.85334C111.129 8.15339 111.429 8.56073 111.597 9.02653C111.788 9.54268 111.882 10.0893 111.875 10.6393C111.876 10.9804 111.843 11.3208 111.778 11.6556Z" fill="#070815"/>
<path d="M114.531 6.83025V14.5098H115.447V6.83025H114.531ZM114.456 3.84229V5.1563H115.522V3.8424L114.456 3.84229Z" fill="#070815"/>
<path d="M123.587 8.57122C123.312 7.99074 122.877 7.50083 122.333 7.15923C121.755 6.80994 121.089 6.63377 120.414 6.65163C119.998 6.64786 119.585 6.71041 119.19 6.83693C118.826 6.95592 118.486 7.13832 118.185 7.37569C117.887 7.61239 117.631 7.89748 117.428 8.21904C117.211 8.56288 117.048 8.93845 116.947 9.33223C116.834 9.76888 116.779 10.2183 116.782 10.6693C116.766 11.3946 116.92 12.1136 117.232 12.7689C117.513 13.3498 117.953 13.8394 118.501 14.1808C119.077 14.5278 119.741 14.7038 120.414 14.6883C120.828 14.6923 121.241 14.6292 121.636 14.5015C122 14.383 122.341 14.201 122.642 13.9639C122.938 13.7275 123.192 13.4419 123.392 13.1195C123.604 12.7738 123.763 12.3986 123.864 12.0062C123.977 11.5697 124.033 11.1202 124.03 10.6693C124.045 9.94528 123.893 9.22747 123.587 8.57122ZM123.017 11.664C122.955 11.9754 122.852 12.2769 122.709 12.5604C122.573 12.8278 122.393 13.07 122.176 13.2767C121.957 13.4838 121.699 13.6464 121.418 13.7555C121.097 13.8754 120.756 13.9337 120.414 13.9273C119.783 13.9273 119.268 13.7755 118.868 13.4717C118.464 13.1632 118.157 12.7457 117.983 12.2684C117.79 11.7526 117.693 11.2057 117.698 10.6549C117.697 10.3161 117.732 9.97812 117.802 9.64666C117.867 9.33879 117.97 9.04034 118.11 8.75838C118.242 8.49244 118.42 8.25189 118.635 8.04786C118.856 7.8412 119.117 7.6811 119.401 7.57709C119.726 7.46321 120.069 7.40777 120.414 7.41333C121.044 7.41333 121.556 7.56292 121.951 7.8621C122.349 8.1648 122.654 8.57392 122.829 9.04223C123.024 9.5573 123.121 10.1043 123.114 10.6549C123.115 10.9937 123.083 11.3317 123.017 11.664Z" fill="#070815"/>
<path d="M36.9521 11.711L36.9243 11.7596C36.4995 12.5422 35.8741 13.1977 35.1122 13.659C34.7746 13.8612 33.875 14.3373 32.8355 14.3373C32.2324 14.3438 31.6384 14.1906 31.1137 13.8932C30.578 13.5827 30.1434 13.1239 29.8624 12.5723C29.5484 11.9863 29.3916 11.2807 29.392 10.4555V6.99393C29.392 5.88985 29.5121 5.05082 29.7523 4.47685C29.9926 3.90289 30.3147 3.52371 30.7186 3.33934C31.1219 3.15473 31.6429 3.06282 32.2816 3.06359H34.6001C34.7265 3.05754 34.8532 3.06569 34.9778 3.08791C35.044 3.11887 35.0996 3.16862 35.1377 3.23094L35.9105 4.33487C35.9232 4.35448 35.9405 4.37071 35.9609 4.38217C35.9813 4.39363 36.0042 4.39997 36.0275 4.40065C36.0366 4.40207 36.0458 4.40136 36.0545 4.39858C36.0632 4.39579 36.0711 4.39102 36.0777 4.38463C36.0842 4.37824 36.0891 4.37041 36.0921 4.36177C36.0951 4.35313 36.096 4.34392 36.0947 4.33487V2.98287C36.0948 2.95975 36.0856 2.93755 36.0694 2.92113C36.0531 2.9047 36.031 2.89538 36.0078 2.8952H32.2816C31.293 2.88711 30.3215 3.15349 29.4754 3.66466C28.6244 4.17781 27.9257 4.90853 27.4513 5.78148C26.9503 6.68996 26.6929 7.71248 26.704 8.74977C26.6942 9.79275 26.9514 10.8209 27.4513 11.7365C27.9257 12.6201 28.6236 13.3639 29.4754 13.8937C30.3161 14.4118 31.284 14.6869 32.2717 14.6885C33.2593 14.6901 34.2281 14.4182 35.0705 13.9029C35.4453 13.6727 35.7916 13.399 36.1023 13.0876C36.4697 12.7148 36.7845 12.2934 37.0377 11.8354C37.0511 11.8115 37.0618 11.7916 37.0691 11.7775C37.0738 11.7698 37.0768 11.7612 37.0781 11.7523C37.0794 11.7435 37.0789 11.7344 37.0767 11.7257C37.0744 11.717 37.0704 11.7089 37.065 11.7017C37.0595 11.6946 37.0527 11.6886 37.0449 11.6841C37.0371 11.6797 37.0285 11.6768 37.0196 11.6757C37.0106 11.6747 37.0016 11.6754 36.993 11.6778C36.9843 11.6803 36.9762 11.6844 36.9692 11.69C36.9622 11.6957 36.9564 11.7026 36.9521 11.7105V11.711Z" fill="#070815"/>
<path d="M45.3857 8.06463C45.0147 7.4061 44.4753 6.85791 43.8227 6.47614C43.1726 6.0925 42.4314 5.89014 41.6764 5.89014C40.9213 5.89014 40.1801 6.0925 39.53 6.47614C38.8814 6.85991 38.3454 7.40781 37.9762 8.06463C37.6016 8.74175 37.405 9.50287 37.405 10.2767C37.405 11.0504 37.6016 11.8116 37.9762 12.4887C38.3434 13.1495 38.8796 13.7011 39.53 14.0869C40.1801 14.4705 40.9213 14.6729 41.6764 14.6729C42.4314 14.6729 43.1726 14.4705 43.8227 14.0869C44.4771 13.7031 45.0167 13.1513 45.3857 12.4887C45.7604 11.8116 45.9569 11.0504 45.9569 10.2767C45.9569 9.50287 45.7604 8.74175 45.3857 8.06463ZM43.4374 11.5439C43.4374 12.3583 43.3617 12.9828 43.2103 13.4174C43.0589 13.852 42.86 14.1419 42.6136 14.2871C42.3251 14.4423 42.0001 14.5172 41.6728 14.5041C41.351 14.5161 41.032 14.4412 40.7493 14.2871C40.5022 14.1429 40.3032 13.853 40.1526 13.4174C40.002 12.9818 39.9263 12.3573 39.9255 11.5439V8.98523C39.9255 8.18226 40.0012 7.56891 40.1526 7.14519C40.304 6.72147 40.5056 6.43422 40.7574 6.28343C41.036 6.12564 41.3527 6.04744 41.6728 6.05736C41.9973 6.04674 42.3189 6.12154 42.6055 6.27428C42.8569 6.41959 43.0585 6.7068 43.2103 7.13593C43.3609 7.56629 43.4366 8.18272 43.4374 8.98523V11.5439Z" fill="#070815"/>
<path d="M55.9026 8.06472C55.532 7.406 54.9927 6.85773 54.3401 6.47623C53.6902 6.08828 52.9465 5.88562 52.1896 5.89022C51.6663 5.8863 51.1511 6.01912 50.695 6.27553C50.3166 6.48535 49.9912 6.77889 49.7437 7.1337C49.7333 7.14882 49.7183 7.16022 49.701 7.16625C49.6836 7.17228 49.6648 7.17262 49.6472 7.16722C49.6296 7.16182 49.6142 7.15097 49.6033 7.13624C49.5923 7.12151 49.5863 7.10366 49.5862 7.08529V6.06325C49.586 6.04777 49.5818 6.03262 49.5738 6.01935C49.5659 6.00608 49.5545 5.99517 49.5409 5.98775C49.5273 5.98034 49.512 5.97669 49.4965 5.97717C49.4811 5.97766 49.466 5.98226 49.4529 5.99051L47.2747 7.35178C47.2623 7.35951 47.2522 7.37023 47.2451 7.38295C47.238 7.39566 47.2342 7.40995 47.2341 7.42451V17.8646C47.2341 17.8759 47.2364 17.8872 47.2408 17.8977C47.2452 17.9082 47.2516 17.9178 47.2596 17.9258C47.2677 17.9339 47.2773 17.9402 47.2878 17.9446C47.2984 17.9489 47.3096 17.9511 47.321 17.9511H49.4993C49.5222 17.951 49.5442 17.9418 49.5605 17.9256C49.5767 17.9094 49.586 17.8875 49.5862 17.8646V13.4775C49.5862 13.459 49.5921 13.4411 49.6031 13.4263C49.6141 13.4115 49.6295 13.4006 49.6471 13.3952C49.6647 13.3898 49.6836 13.3901 49.701 13.3962C49.7183 13.4023 49.7333 13.4137 49.7437 13.4289C49.9912 13.7838 50.3166 14.0774 50.695 14.2872C51.1511 14.5436 51.6663 14.6764 52.1896 14.6725C52.9465 14.6771 53.6902 14.4745 54.3401 14.0865C54.9947 13.7031 55.5344 13.1512 55.9031 12.4883C56.2777 11.8112 56.4743 11.0501 56.4743 10.2763C56.4743 9.5025 56.2777 8.74138 55.9031 8.06426L55.9026 8.06472ZM53.9538 11.544C53.9538 12.3584 53.8781 12.9829 53.7267 13.4175C53.5753 13.8521 53.3764 14.142 53.13 14.2872C52.8416 14.443 52.5167 14.5183 52.1892 14.5053C51.5331 14.5104 50.8953 14.2887 50.384 13.8777C49.851 13.4589 49.5849 12.681 49.5857 11.544V8.98532C49.5857 7.86981 49.8518 7.10305 50.384 6.68504C50.8951 6.27357 51.533 6.0518 52.1892 6.05745C52.5139 6.04648 52.8357 6.12173 53.1219 6.27553C53.3745 6.41968 53.5761 6.70651 53.7267 7.13602C53.8773 7.56553 53.953 8.18196 53.9538 8.98532V11.544Z" fill="#070815"/>
<path d="M66.4197 8.06472C66.049 7.40593 65.5095 6.85766 64.8567 6.47623C64.2068 6.08828 63.4631 5.88561 62.7062 5.89022C62.183 5.88643 61.6678 6.01925 61.2116 6.27552C60.8336 6.48598 60.5084 6.7794 60.2603 7.1337C60.25 7.14889 60.235 7.16037 60.2176 7.16644C60.2002 7.17252 60.1813 7.17288 60.1637 7.16747C60.1461 7.16207 60.1307 7.15117 60.1197 7.13639C60.1088 7.1216 60.1028 7.10369 60.1028 7.08529V6.0644C60.1027 6.04889 60.0985 6.03368 60.0906 6.02033C60.0827 6.00698 60.0714 5.99598 60.0578 5.98846C60.0442 5.98093 60.0289 5.97716 60.0134 5.97752C59.9979 5.97788 59.9827 5.98236 59.9695 5.99051L57.7913 7.35177C57.779 7.35951 57.7688 7.37023 57.7617 7.38294C57.7546 7.39565 57.7508 7.40995 57.7507 7.4245V17.8646C57.7507 17.8759 57.753 17.8872 57.7574 17.8977C57.7618 17.9082 57.7682 17.9178 57.7762 17.9258C57.7843 17.9339 57.7939 17.9402 57.8044 17.9446C57.815 17.9489 57.8262 17.9511 57.8376 17.9511H60.0159C60.0388 17.9509 60.0608 17.9418 60.0771 17.9256C60.0933 17.9094 60.1026 17.8875 60.1028 17.8646V13.4775C60.1028 13.459 60.1087 13.4411 60.1197 13.4263C60.1307 13.4115 60.1461 13.4006 60.1637 13.3952C60.1813 13.3897 60.2002 13.3901 60.2176 13.3962C60.235 13.4022 60.2499 13.4137 60.2603 13.4289C60.509 13.7827 60.8341 14.076 61.2116 14.2872C61.6678 14.5434 62.183 14.6763 62.7062 14.6725C63.4631 14.6771 64.2068 14.4745 64.8567 14.0865C65.5113 13.7031 66.051 13.1512 66.4197 12.4883C66.7943 11.8112 66.9909 11.0501 66.9909 10.2763C66.9909 9.50249 66.7943 8.74137 66.4197 8.06425V8.06472ZM64.4708 11.544C64.4708 12.3584 64.3951 12.9829 64.2437 13.4175C64.0924 13.8521 63.8934 14.142 63.647 14.2872C63.3587 14.443 63.0337 14.5183 62.7062 14.5053C62.0502 14.5102 61.4125 14.2885 60.9011 13.8777C60.3693 13.4589 60.1032 12.681 60.1028 11.544V8.98531C60.1028 7.8698 60.3689 7.10304 60.9011 6.68504C61.4122 6.27376 62.0501 6.05201 62.7062 6.05745C63.0309 6.04648 63.3528 6.12172 63.6389 6.27552C63.8915 6.41967 64.0931 6.7065 64.2437 7.13601C64.3944 7.56552 64.4701 8.18196 64.4708 8.98531V11.544Z" fill="#070815"/>
<path d="M82.9557 6.05515C82.0706 5.79398 81.1191 5.8815 80.2966 6.29975C79.9314 6.48725 79.6218 6.76726 79.3987 7.11183C79.3886 7.12789 79.3737 7.14025 79.356 7.14704C79.3383 7.15382 79.3189 7.15466 79.3007 7.14942C79.2825 7.14418 79.2665 7.13316 79.2551 7.11802C79.2437 7.10287 79.2376 7.08444 79.2376 7.0655V6.06557C79.2375 6.04981 79.2332 6.03436 79.2252 6.02083C79.2171 6.0073 79.2055 5.99618 79.1917 5.98863C79.1778 5.98108 79.1622 5.97739 79.1464 5.97793C79.1307 5.97846 79.1154 5.98321 79.1021 5.99169L76.9261 7.35179C76.9136 7.35957 76.9033 7.37046 76.8962 7.38341C76.889 7.39635 76.8854 7.41091 76.8856 7.42568V10.3062C76.8949 11.0461 76.6747 11.7707 76.2553 12.3804C75.8469 12.9841 75.2962 13.4781 74.6517 13.8189C74.0553 14.1508 73.3855 14.3292 72.7029 14.338C72.37 14.3488 72.0383 14.2921 71.7279 14.1714C71.4174 14.0506 71.1346 13.8683 70.8966 13.6354C70.4204 13.1671 70.1825 12.4699 70.1829 11.544V11.2602C70.1731 11.0652 70.1958 10.8698 70.2501 10.6822C70.2683 10.6281 70.3004 10.5797 70.343 10.5417C70.3857 10.5037 70.4375 10.4774 70.4934 10.4654C70.6904 10.4314 70.8903 10.4175 71.0901 10.4238H76.0108C76.0634 10.4242 76.1141 10.4038 76.1518 10.3671C76.1895 10.3304 76.2113 10.2804 76.2124 10.2278C76.2136 10.2232 76.2136 10.2184 76.2124 10.2139C76.2113 9.4603 76.0149 8.71988 75.6424 8.06473C75.2721 7.40601 74.733 6.85773 74.0805 6.47625C73.4306 6.08845 72.687 5.8858 71.9301 5.89023C71.1757 5.88504 70.4344 6.0878 69.7878 6.47625C69.1389 6.85969 68.6029 7.40768 68.234 8.06473C67.8521 8.73745 67.655 9.49923 67.6628 10.2727C67.6628 11.1992 67.8783 11.9936 68.3093 12.656C68.7238 13.3061 69.3117 13.8275 70.0067 14.1616C70.7049 14.5017 71.4721 14.6765 72.2487 14.6725C72.9312 14.6729 73.6074 14.5421 74.2404 14.2872C74.877 14.0356 75.4505 13.6474 75.9204 13.1498C76.2659 12.7852 76.5363 12.3563 76.7164 11.8875C76.724 11.8686 76.7379 11.8529 76.7558 11.8431C76.7736 11.8333 76.7943 11.8301 76.8143 11.8339C76.8343 11.8377 76.8524 11.8484 76.8654 11.864C76.8784 11.8797 76.8855 11.8994 76.8856 11.9198V14.5177C76.8856 14.5292 76.8879 14.5407 76.8923 14.5513C76.8968 14.562 76.9033 14.5716 76.9114 14.5798C76.9196 14.5879 76.9293 14.5944 76.94 14.5988C76.9507 14.6032 76.9621 14.6054 76.9736 14.6054H79.1496C79.1611 14.6054 79.1725 14.6032 79.1832 14.5988C79.1939 14.5944 79.2036 14.5879 79.2118 14.5798C79.22 14.5716 79.2264 14.562 79.2309 14.5513C79.2353 14.5407 79.2376 14.5292 79.2376 14.5177V8.21587C79.2376 7.63557 79.4199 7.18104 79.7845 6.85229C80.1387 6.52687 80.6046 6.3501 81.0857 6.35858C81.5404 6.34879 81.9829 6.50645 82.3289 6.80156C82.6765 7.09804 82.8503 7.5137 82.8503 8.04852C82.8486 8.05984 82.8497 8.07137 82.8533 8.08221C82.8569 8.09305 82.8631 8.1029 82.8712 8.11097C82.8792 8.11904 82.8891 8.12512 82.9 8.12871C82.9108 8.1323 82.9224 8.13332 82.9337 8.13167C82.9451 8.13332 82.9567 8.13232 82.9676 8.12874C82.9785 8.12517 82.9884 8.11912 82.9966 8.11107C83.0048 8.10302 83.011 8.09318 83.0148 8.08233C83.0185 8.07148 83.0197 8.05991 83.0183 8.04852V6.13935C83.0181 6.1205 83.0119 6.1022 83.0007 6.08707C82.9895 6.07194 82.9737 6.06076 82.9557 6.05515ZM70.1829 8.98521C70.1829 8.18225 70.2586 7.5689 70.41 7.14518C70.5613 6.72146 70.763 6.43421 71.0148 6.28342C71.2933 6.12549 71.61 6.04727 71.9301 6.05735C72.2548 6.04652 72.5766 6.12176 72.8628 6.27543C73.1142 6.41958 73.3158 6.70641 73.4676 7.13592C73.6182 7.56628 73.6935 8.18271 73.6935 8.98521V10.1685C73.6935 10.18 73.6912 10.1914 73.6868 10.2021C73.6824 10.2127 73.6759 10.2224 73.6677 10.2306C73.6595 10.2387 73.6498 10.2451 73.6391 10.2495C73.6285 10.2539 73.617 10.2562 73.6055 10.2561H71.0901C70.893 10.2514 70.6959 10.2653 70.5015 10.2976C70.4377 10.3102 70.3766 10.3337 70.3207 10.3671C70.3076 10.376 70.2922 10.3812 70.2763 10.3822C70.2604 10.3831 70.2446 10.3797 70.2304 10.3724C70.2163 10.3651 70.2044 10.354 70.1961 10.3405C70.1877 10.327 70.1831 10.3114 70.1829 10.2955V8.98521Z" fill="#070815"/>
<path d="M6.34644 14.3304V4.7614H2.84155V3.99414H10.7493V4.7614H7.24438V14.3304H6.34644Z" fill="#070815"/>
<path d="M11.7048 14.3304V3.99414H12.5883V8.64113L12.5159 8.56874C12.6198 8.17387 12.8158 7.80922 13.0879 7.50466C13.3331 7.23675 13.6384 7.03087 13.9787 6.90394C14.3218 6.77763 14.6848 6.71388 15.0504 6.71574C15.4974 6.71416 15.9378 6.8236 16.3321 7.03423C16.7409 7.25439 17.0815 7.58232 17.3169 7.98238C17.5726 8.40224 17.7006 8.93066 17.7008 9.56763V14.3304H16.8173V9.68344C16.8173 8.94039 16.617 8.38545 16.2162 8.01863C15.8862 7.71116 15.464 7.5211 15.0149 7.4779C14.5658 7.43471 14.1151 7.54079 13.7325 7.77971C13.3823 8.00021 13.0974 8.31004 12.9069 8.67726C12.6849 9.10876 12.5753 9.58926 12.5883 10.0743V14.3304H11.7048Z" fill="#070815"/>
<path d="M22.3063 14.5038C21.6494 14.5225 21.0018 14.3462 20.4451 13.9971C19.9263 13.6569 19.5165 13.1744 19.2648 12.6074C18.9861 11.9788 18.8477 11.2971 18.8593 10.6096C18.8566 10.1875 18.9077 9.7667 19.0113 9.35745C19.107 8.98008 19.2583 8.61904 19.4603 8.28618C19.6536 7.96822 19.8983 7.68449 20.1844 7.44653C20.4704 7.20947 20.7967 7.02562 21.1476 6.90372C21.5252 6.77499 21.9219 6.71135 22.3207 6.71552C22.7424 6.71506 23.1611 6.78601 23.559 6.92538C23.9931 7.07411 24.3844 7.3266 24.6987 7.66088C25.013 7.99516 25.2409 8.40112 25.3625 8.84347C25.5266 9.36463 25.5797 10.0112 25.5218 10.7833H19.2217V10.1029H24.6963C24.6937 9.71587 24.6376 9.33102 24.5297 8.95928C24.4402 8.65333 24.2873 8.36968 24.0807 8.12682C23.8826 7.90004 23.6314 7.72594 23.3494 7.62014C23.0196 7.50251 22.6711 7.4461 22.3211 7.45371C21.9907 7.44758 21.6619 7.50154 21.3507 7.61296C21.0803 7.71314 20.8337 7.86841 20.6266 8.06891C20.4214 8.27019 20.2523 8.50524 20.1269 8.76379C19.9931 9.03955 19.8957 9.33153 19.8372 9.63238C19.7736 9.95422 19.7421 10.2816 19.7431 10.6096C19.7371 11.145 19.8279 11.6771 20.011 12.1803C20.1732 12.6354 20.4621 13.0347 20.8438 13.3312C21.2204 13.6207 21.7128 13.7655 22.3211 13.7655C22.8003 13.7817 23.2759 13.6772 23.7042 13.4615C24.0899 13.2426 24.3851 12.8937 24.537 12.4771H25.4349C25.3159 12.8809 25.1024 13.2505 24.8122 13.5555C24.5118 13.8666 24.1456 14.1066 23.7404 14.2577C23.2817 14.4277 22.7954 14.5111 22.3063 14.5038Z" fill="#070815"/>
<circle cx="127.5" cy="4.3" r="2.3" fill="none" stroke="#070815" stroke-width="0.45"/>
<text x="127.5" y="5.25" font-family="Arial, Helvetica, sans-serif" font-size="2.5" font-weight="700" fill="#070815" text-anchor="middle">R</text>
</svg>
