<svg width="930" height="180" viewBox="0 0 930 180" fill="none" xmlns="http://www.w3.org/2000/svg">
<path d="M593.76 87.2261C591.45 84.0623 588.379 81.5337 584.83 79.8751C581.191 78.1522 577.366 76.852 573.43 76.0001L557.24 72.3941C553.664 71.5711 550.156 70.4722 546.75 69.1071C543.982 68.0468 541.548 66.2652 539.7 63.9471C537.906 61.4061 537.016 58.3375 537.17 55.2311C537.077 51.8835 538.232 48.6209 540.41 46.0771C542.775 43.4506 545.789 41.4927 549.15 40.4001C553.005 39.0825 557.056 38.4289 561.13 38.4671C565.445 38.3403 569.74 39.0858 573.76 40.6591C576.963 41.9621 579.743 44.1272 581.79 46.9141C583.793 49.8021 585.019 53.157 585.35 56.6561H593.51C593.44 53.397 592.759 50.1801 591.5 47.1731C590.194 44.1292 588.251 41.4011 585.8 39.1731C582.971 36.6507 579.637 34.7594 576.02 33.6251C571.368 32.1916 566.516 31.5163 561.65 31.6251C557.434 31.6012 553.232 32.1235 549.15 33.1791C545.432 34.115 541.904 35.6853 538.72 37.8211C535.798 39.7819 533.362 42.3849 531.6 45.4311C529.825 48.6228 528.931 52.229 529.01 55.8801C528.864 59.6119 529.666 63.3198 531.34 66.6581C532.803 69.3478 534.892 71.6459 537.43 73.3581C539.908 75.024 542.612 76.3256 545.46 77.2231C548.31 78.1304 551.03 78.8841 553.62 79.4841L572.27 83.6181C575.68 84.2583 578.948 85.5033 581.92 87.2941C584.179 88.6696 586.048 90.6001 587.35 92.9021C588.526 95.0812 589.129 97.5239 589.1 100C589.1 104.821 587.893 108.692 585.48 111.614C582.936 114.617 579.588 116.832 575.83 118C567.662 120.508 558.952 120.663 550.7 118.448C547.571 117.565 544.646 116.076 542.09 114.066C539.823 112.249 537.952 109.988 536.59 107.422C535.243 104.864 534.343 102.095 533.93 99.2341H525.77C525.956 102.795 526.861 106.282 528.43 109.484C530.101 112.899 532.46 115.931 535.36 118.389C538.708 121.188 542.58 123.29 546.75 124.574C556.148 127.351 566.117 127.575 575.63 125.222C579.577 124.236 583.325 122.579 586.71 120.322C590.072 118.101 592.807 115.055 594.654 111.474C596.502 107.894 597.399 103.899 597.26 99.8721C597.26 94.6294 596.093 90.4141 593.76 87.2261Z" fill="#F0EDE4"/>
<path d="M620.18 58.9771V65.3001H638.57V58.9771H620.18ZM630.93 118.7C628.515 118.791 626.156 117.962 624.33 116.379C622.597 114.836 621.733 112.515 621.74 109.417V41.0471H613.84V111.61C613.84 115.913 615.287 119.266 618.18 121.671C621.231 124.138 625.069 125.422 628.99 125.287H638.57V118.7H630.93ZM600.37 58.9771V65.3001H615.39V58.9771H600.37Z" fill="#F0EDE4"/>
<path d="M693.61 58.9771V98.1931C693.682 102.045 692.732 105.847 690.856 109.212C688.98 112.577 686.245 115.385 682.93 117.348C679.897 119.168 676.427 120.128 672.89 120.127C669.583 120.201 666.31 119.444 663.37 117.927C660.637 116.459 658.424 114.184 657.03 111.413C655.413 108.06 654.634 104.365 654.76 100.645V58.9771H646.86V101.677C646.774 105.487 647.433 109.276 648.8 112.833C649.983 115.805 651.822 118.471 654.18 120.633C656.451 122.694 659.114 124.276 662.01 125.285C664.967 126.316 668.078 126.838 671.21 126.828C676.91 126.828 681.68 125.454 685.52 122.705C689.062 120.079 691.851 116.568 693.61 112.525V125.285H701.51V58.9771H693.61Z" fill="#F0EDE4"/>
<path d="M764.45 33.178V71.358C763.238 68.6763 761.5 66.2648 759.34 64.266C756.881 61.9987 753.995 60.2446 750.85 59.106C747.778 57.9963 744.537 57.4302 741.27 57.433C738.038 57.41 734.824 57.9077 731.75 58.907C725.813 60.8325 720.791 64.8739 717.64 70.262C715.873 73.2552 714.562 76.4951 713.75 79.875C712.806 83.8015 712.349 87.8296 712.39 91.868C712.39 99.1793 713.62 105.458 716.08 110.704C718.183 115.604 721.708 119.761 726.198 122.636C730.689 125.511 735.94 126.972 741.27 126.83C744.537 126.833 747.778 126.267 750.85 125.157C753.995 124.018 756.881 122.264 759.34 119.997C761.485 118.02 763.221 115.642 764.45 112.997V125.289H772.35V33.178H764.45ZM764.26 100.643C763.741 103.348 762.87 105.974 761.67 108.453C760.543 110.754 759.031 112.846 757.2 114.638C755.322 116.443 753.097 117.849 750.66 118.772C747.864 119.803 744.9 120.306 741.92 120.256C737.606 120.4 733.381 119.006 730 116.322C726.711 113.557 724.21 109.973 722.75 105.932C721.075 101.434 720.241 96.6671 720.29 91.868C720.277 88.9647 720.583 86.0688 721.2 83.232C721.77 80.5743 722.66 77.9955 723.85 75.552C724.95 73.2851 726.416 71.2153 728.19 69.426C729.915 67.711 731.961 66.352 734.21 65.426C736.663 64.456 739.283 63.9757 741.92 64.012C747.44 64.012 751.887 65.2786 755.26 67.812C758.663 70.4028 761.246 73.92 762.7 77.942C764.343 82.3988 765.156 87.1185 765.1 91.868C765.107 94.8134 764.826 97.7523 764.26 100.643Z" fill="#F0EDE4"/>
<path d="M788.02 58.977V125.287H795.92V58.977H788.02ZM787.37 33.177V44.523H796.57V33.178L787.37 33.177Z" fill="#F0EDE4"/>
<path d="M866.18 74.008C863.809 68.9958 860.055 64.7656 855.36 61.816C850.37 58.8 844.619 57.2788 838.79 57.433C835.207 57.4005 831.642 57.9406 828.23 59.033C825.088 60.0605 822.153 61.6354 819.56 63.685C816.988 65.7289 814.777 68.1905 813.02 70.967C811.146 73.936 809.746 77.1789 808.87 80.579C807.897 84.3493 807.42 88.2303 807.45 92.124C807.313 98.3869 808.641 104.595 811.33 110.253C813.756 115.269 817.552 119.496 822.28 122.445C827.257 125.441 832.983 126.96 838.79 126.827C842.371 126.861 845.933 126.316 849.34 125.214C852.484 124.19 855.423 122.619 858.02 120.572C860.582 118.531 862.774 116.065 864.5 113.281C866.325 110.296 867.697 107.056 868.57 103.668C869.547 99.8997 870.028 96.0199 870 92.127C870.131 85.8745 868.824 79.6754 866.18 74.008ZM861.26 100.713C860.728 103.402 859.833 106.005 858.6 108.453C857.43 110.762 855.874 112.853 854 114.638C852.108 116.426 849.887 117.83 847.46 118.772C844.689 119.808 841.748 120.311 838.79 120.256C833.35 120.256 828.903 118.945 825.45 116.322C821.965 113.658 819.314 110.053 817.81 105.932C816.143 101.478 815.309 96.7556 815.35 92C815.342 89.0744 815.643 86.1561 816.25 83.294C816.811 80.6357 817.704 78.0586 818.91 75.624C820.046 73.3278 821.58 71.2507 823.44 69.489C825.349 67.7045 827.596 66.3221 830.05 65.424C832.857 64.4407 835.816 63.962 838.79 64.01C844.23 64.01 848.653 65.3017 852.06 67.885C855.497 70.4987 858.125 74.0314 859.64 78.075C861.322 82.5224 862.157 87.2455 862.1 92C862.109 94.925 861.827 97.8436 861.26 100.713Z" fill="#F0EDE4"/>
<path d="M118.45 101.121L118.209 101.541C114.543 108.298 109.145 113.958 102.57 117.941C99.656 119.687 91.891 123.798 82.92 123.798C77.7151 123.854 72.5882 122.531 68.06 119.964C63.4361 117.282 59.6856 113.321 57.26 108.558C54.55 103.498 53.1967 97.4054 53.2 90.2801V60.3911C53.2 50.8577 54.2367 43.6131 56.31 38.6571C58.3834 33.7011 61.1634 30.4271 64.65 28.8351C68.13 27.2411 72.6267 26.4474 78.14 26.4541H98.15C99.2411 26.4018 100.335 26.4722 101.41 26.6641C101.981 26.9314 102.461 27.3609 102.79 27.8991L109.46 37.4311C109.57 37.6004 109.719 37.7406 109.895 37.8395C110.071 37.9385 110.268 37.9932 110.47 37.9991C110.548 38.0113 110.628 38.0052 110.703 37.9812C110.778 37.9572 110.846 37.9159 110.903 37.8607C110.959 37.8056 111.002 37.738 111.027 37.6634C111.053 37.5888 111.061 37.5092 111.05 37.4311V25.7571C111.05 25.5574 110.972 25.3658 110.831 25.224C110.691 25.0821 110.5 25.0017 110.3 25.0001H78.14C69.6074 24.9302 61.2228 27.2303 53.92 31.6441C46.5751 36.075 40.5446 42.3844 36.45 49.9221C32.1262 57.7664 29.9043 66.5955 30 75.5521C29.9154 84.5578 32.1358 93.4355 36.45 101.341C40.5444 108.971 46.5681 115.393 53.92 119.968C61.1761 124.442 69.5297 126.817 78.0539 126.831C86.5781 126.845 94.9394 124.497 102.21 120.047C105.445 118.059 108.434 115.697 111.115 113.008C114.286 109.788 117.003 106.15 119.189 102.195C119.303 101.989 119.396 101.817 119.46 101.695C119.5 101.629 119.526 101.555 119.538 101.478C119.549 101.401 119.544 101.323 119.525 101.248C119.505 101.173 119.471 101.103 119.424 101.041C119.377 100.979 119.318 100.928 119.251 100.889C119.183 100.851 119.109 100.826 119.032 100.817C118.955 100.807 118.877 100.813 118.802 100.835C118.728 100.856 118.658 100.892 118.598 100.94C118.537 100.989 118.487 101.049 118.45 101.117V101.121Z" fill="#F0EDE4"/>
<path d="M191.24 69.6351C188.037 63.9489 183.382 59.2155 177.75 55.9191C172.138 52.6065 165.741 50.8591 159.225 50.8591C152.709 50.8591 146.311 52.6065 140.7 55.9191C135.102 59.2327 130.476 63.9637 127.29 69.6351C124.056 75.4818 122.36 82.0537 122.36 88.7351C122.36 95.4164 124.056 101.988 127.29 107.835C130.459 113.541 135.087 118.304 140.7 121.635C146.311 124.948 152.709 126.695 159.225 126.695C165.741 126.695 172.138 124.948 177.75 121.635C183.397 118.321 188.055 113.556 191.24 107.835C194.474 101.988 196.17 95.4164 196.17 88.7351C196.17 82.0537 194.474 75.4818 191.24 69.6351ZM174.42 99.6771C174.42 106.709 173.767 112.101 172.46 115.854C171.153 119.607 169.437 122.11 167.31 123.364C164.82 124.704 162.015 125.351 159.19 125.237C156.413 125.341 153.66 124.694 151.22 123.364C149.09 122.119 147.373 119.615 146.07 115.854C144.767 112.093 144.113 106.7 144.11 99.6771V77.5841C144.11 70.6507 144.763 65.3547 146.07 61.6961C147.377 58.0374 149.117 55.5571 151.29 54.2551C153.695 52.8926 156.427 52.2174 159.19 52.3031C161.991 52.2113 164.767 52.8572 167.24 54.1761C169.41 55.4307 171.15 57.9107 172.46 61.6161C173.76 65.3321 174.413 70.6547 174.42 77.5841V99.6771Z" fill="#F0EDE4"/>
<path d="M282.01 69.6349C278.81 63.9465 274.154 59.2124 268.52 55.9189C262.911 52.5691 256.493 50.8191 249.96 50.8589C245.444 50.825 240.997 51.9719 237.06 54.1859C233.794 55.9976 230.986 58.5322 228.85 61.5959C228.76 61.7264 228.631 61.8249 228.481 61.8769C228.331 61.929 228.168 61.9319 228.017 61.8853C227.865 61.8387 227.732 61.745 227.638 61.6178C227.543 61.4906 227.491 61.3365 227.49 61.1779V52.3529C227.489 52.2193 227.452 52.0884 227.383 51.9739C227.315 51.8593 227.217 51.7651 227.099 51.701C226.982 51.637 226.85 51.6055 226.716 51.6097C226.583 51.6139 226.453 51.6536 226.34 51.7249L207.54 63.4789C207.433 63.5457 207.346 63.6382 207.284 63.748C207.223 63.8578 207.191 63.9812 207.19 64.1069V154.253C207.19 154.351 207.21 154.449 207.247 154.539C207.285 154.63 207.34 154.712 207.41 154.782C207.48 154.851 207.562 154.906 207.653 154.944C207.744 154.981 207.842 155 207.94 155H226.74C226.938 154.999 227.128 154.92 227.268 154.78C227.408 154.64 227.488 154.451 227.49 154.253V116.372C227.49 116.213 227.541 116.058 227.636 115.93C227.731 115.802 227.864 115.708 228.016 115.661C228.168 115.615 228.331 115.618 228.481 115.67C228.631 115.723 228.76 115.822 228.85 115.953C230.986 119.017 233.794 121.552 237.06 123.364C240.997 125.577 245.444 126.724 249.96 126.691C256.493 126.731 262.911 124.981 268.52 121.631C274.17 118.32 278.828 113.554 282.01 107.831C285.244 101.984 286.94 95.4122 286.94 88.7309C286.94 82.0495 285.244 75.4776 282.01 69.6309V69.6349ZM265.19 99.6769C265.19 106.709 264.537 112.101 263.23 115.854C261.923 119.607 260.207 122.11 258.08 123.364C255.591 124.709 252.787 125.359 249.96 125.247C244.297 125.291 238.793 123.376 234.38 119.828C229.78 116.212 227.483 109.495 227.49 99.6769V77.5839C227.49 67.9519 229.787 61.3312 234.38 57.7219C238.79 54.1679 244.296 52.2519 249.96 52.2999C252.763 52.2051 255.54 52.8549 258.01 54.1829C260.19 55.4275 261.93 57.9042 263.23 61.6129C264.53 65.3215 265.183 70.6442 265.19 77.5809V99.6769Z" fill="#F0EDE4"/>
<path d="M372.78 69.6351C369.58 63.9467 364.924 59.2126 359.29 55.9191C353.681 52.5693 347.263 50.8193 340.73 50.8591C336.214 50.8264 331.767 51.9732 327.83 54.1861C324.568 56.0033 321.761 58.5369 319.62 61.5961C319.53 61.7273 319.401 61.8264 319.251 61.8788C319.101 61.9313 318.938 61.9344 318.786 61.8877C318.634 61.841 318.501 61.747 318.406 61.6193C318.312 61.4916 318.261 61.337 318.26 61.1781V52.3631C318.259 52.2292 318.223 52.0978 318.155 51.9826C318.087 51.8673 317.989 51.7723 317.872 51.7074C317.755 51.6424 317.622 51.6098 317.488 51.6129C317.355 51.616 317.224 51.6547 317.11 51.7251L298.31 63.4791C298.204 63.5459 298.116 63.6384 298.054 63.7482C297.993 63.858 297.961 63.9814 297.96 64.1071V154.253C297.96 154.351 297.98 154.449 298.017 154.539C298.055 154.63 298.11 154.713 298.18 154.782C298.25 154.851 298.332 154.906 298.423 154.944C298.514 154.981 298.612 155 298.71 155H317.51C317.708 154.999 317.898 154.92 318.038 154.78C318.178 154.641 318.258 154.451 318.26 154.253V116.372C318.26 116.213 318.311 116.058 318.406 115.93C318.501 115.803 318.634 115.708 318.786 115.662C318.938 115.615 319.101 115.618 319.251 115.67C319.401 115.723 319.53 115.822 319.62 115.953C321.766 119.008 324.572 121.54 327.83 123.364C331.767 125.576 336.214 126.723 340.73 126.691C347.263 126.731 353.681 124.981 359.29 121.631C364.94 118.32 369.598 113.555 372.78 107.831C376.014 101.984 377.71 95.4124 377.71 88.7311C377.71 82.0497 376.014 75.4778 372.78 69.6311V69.6351ZM355.96 99.6771C355.96 106.709 355.307 112.101 354 115.854C352.693 119.607 350.977 122.11 348.85 123.364C346.361 124.709 343.557 125.359 340.73 125.247C335.067 125.289 329.564 123.375 325.15 119.828C320.56 116.212 318.263 109.495 318.26 99.6771V77.5841C318.26 67.9521 320.557 61.3314 325.15 57.7221C329.561 54.1698 335.066 52.254 340.73 52.3001C343.533 52.2053 346.31 52.855 348.78 54.1831C350.96 55.4277 352.7 57.9044 354 61.6131C355.3 65.3217 355.953 70.6444 355.96 77.5811V99.6771Z" fill="#F0EDE4"/>
<path d="M515.5 52.283C507.86 50.0294 499.648 50.7869 492.55 54.4C489.397 56.019 486.725 58.4368 484.8 61.412C484.713 61.5507 484.584 61.6574 484.431 61.716C484.278 61.7746 484.111 61.7818 483.954 61.7366C483.797 61.6914 483.659 61.5962 483.56 61.4654C483.462 61.3347 483.409 61.1755 483.41 61.012V52.373C483.409 52.2369 483.372 52.1035 483.302 51.9866C483.232 51.8698 483.133 51.7738 483.013 51.7086C482.894 51.6435 482.759 51.6115 482.623 51.6162C482.487 51.6208 482.355 51.6618 482.24 51.735L463.46 63.479C463.351 63.5462 463.262 63.6402 463.201 63.752C463.14 63.8638 463.108 63.9895 463.11 64.117V88.989C463.19 95.3776 461.29 101.634 457.67 106.899C454.145 112.112 449.392 116.377 443.83 119.32C438.682 122.186 432.901 123.726 427.01 123.802C424.136 123.895 421.274 123.406 418.594 122.364C415.915 121.321 413.474 119.747 411.42 117.736C407.31 113.692 405.256 107.672 405.26 99.677V97.227C405.176 95.5427 405.372 93.8561 405.84 92.236C405.998 91.7688 406.274 91.3505 406.642 91.0224C407.01 90.6942 407.458 90.4673 407.94 90.364C409.64 90.0702 411.365 89.9499 413.09 90.005H455.56C456.014 90.0077 456.451 89.8317 456.777 89.515C457.102 89.1982 457.29 88.7661 457.3 88.312C457.31 88.2726 457.31 88.2314 457.3 88.192C457.29 81.6852 455.595 75.2919 452.38 69.635C449.184 63.9471 444.531 59.2129 438.9 55.919C433.291 52.5706 426.872 50.8207 420.34 50.859C413.828 50.8141 407.431 52.5649 401.85 55.919C396.25 59.2299 391.623 63.9615 388.44 69.635C385.143 75.4437 383.442 82.0213 383.51 88.7C383.51 96.7 385.37 103.56 389.09 109.279C392.667 114.892 397.741 119.394 403.74 122.279C409.766 125.215 416.387 126.725 423.09 126.691C428.98 126.694 434.816 125.565 440.28 123.364C445.774 121.191 450.724 117.839 454.78 113.543C457.761 110.394 460.095 106.691 461.65 102.643C461.715 102.48 461.835 102.344 461.989 102.26C462.143 102.175 462.322 102.147 462.495 102.18C462.668 102.213 462.823 102.305 462.936 102.441C463.048 102.576 463.109 102.746 463.11 102.922V125.354C463.11 125.454 463.13 125.552 463.168 125.644C463.206 125.736 463.262 125.82 463.333 125.89C463.403 125.96 463.487 126.016 463.579 126.054C463.671 126.092 463.77 126.111 463.87 126.111H482.65C482.749 126.111 482.848 126.092 482.94 126.054C483.032 126.016 483.116 125.96 483.187 125.89C483.257 125.82 483.313 125.736 483.352 125.644C483.39 125.552 483.41 125.454 483.41 125.354V70.94C483.41 65.9293 484.983 62.0047 488.13 59.166C491.187 56.355 495.208 54.8276 499.36 54.9C503.285 54.8155 507.103 56.1768 510.09 58.725C513.09 61.285 514.59 64.874 514.59 69.492C514.576 69.5897 514.585 69.6893 514.616 69.7829C514.647 69.8765 514.7 69.9615 514.77 70.0312C514.84 70.1009 514.925 70.1534 515.019 70.1844C515.112 70.2154 515.212 70.2242 515.31 70.21C515.408 70.2242 515.508 70.2155 515.602 70.1847C515.696 70.1538 515.782 70.1016 515.853 70.0321C515.924 69.9625 515.977 69.8776 516.01 69.7839C516.042 69.6903 516.052 69.5903 516.04 69.492V53.01C516.038 52.8473 515.985 52.6892 515.888 52.5586C515.791 52.4279 515.655 52.3314 515.5 52.283ZM405.26 77.583C405.26 70.6497 405.913 65.3537 407.22 61.695C408.526 58.0363 410.266 55.556 412.44 54.254C414.844 52.8903 417.577 52.215 420.34 52.302C423.142 52.2084 425.92 52.8581 428.39 54.185C430.56 55.4297 432.3 57.9063 433.61 61.615C434.92 65.3237 435.57 70.6463 435.56 77.583V87.8C435.56 87.8996 435.54 87.9982 435.502 88.0902C435.463 88.1822 435.407 88.2657 435.337 88.336C435.266 88.4064 435.182 88.462 435.09 88.5C434.998 88.5379 434.899 88.5573 434.8 88.557H413.09C411.389 88.5158 409.688 88.6357 408.01 88.915C407.459 89.0241 406.932 89.227 406.45 89.515C406.336 89.5922 406.204 89.6372 406.066 89.6453C405.929 89.6534 405.792 89.6242 405.67 89.5609C405.549 89.4975 405.446 89.4024 405.374 89.2855C405.301 89.1686 405.262 89.0344 405.26 88.897V77.583Z" fill="#F0EDE4"/>
<circle cx="885" cy="36" r="18" fill="none" stroke="#F0EDE4" stroke-width="3.5"/>
<text x="885" y="43" font-family="Arial, Helvetica, sans-serif" font-size="20" font-weight="700" fill="#F0EDE4" text-anchor="middle">R</text>
</svg>
