<svg width="102" height="102" viewBox="0 0 102 102" fill="none" xmlns="http://www.w3.org/2000/svg">
<path d="M50.75 100.75C78.3642 100.75 100.75 78.3642 100.75 50.75C100.75 23.1358 78.3642 0.75 50.75 0.75C23.1358 0.75 0.75 23.1358 0.75 50.75C0.75 78.3642 23.1358 100.75 50.75 100.75Z" stroke="#504F4F" stroke-width="1.5" stroke-linecap="round" stroke-dasharray="4 5"/>
<path d="M50.7503 78.25C65.9381 78.25 78.2503 65.9378 78.2503 50.75C78.2503 35.5622 65.9381 23.25 50.7503 23.25C35.5625 23.25 23.2503 35.5622 23.2503 50.75C23.2503 65.9378 35.5625 78.25 50.7503 78.25Z" stroke="#EE7A1D" stroke-width="1.5" stroke-linecap="round"/>
<path d="M50.75 23.25V13.25" stroke="#EE7A1D" stroke-width="1.5" stroke-linecap="round"/>
<path d="M50.75 78.2505V88.2505" stroke="#EE7A1D" stroke-width="1.5" stroke-linecap="round"/>
<path d="M23.25 50.75H13.25" stroke="#EE7A1D" stroke-width="1.5" stroke-linecap="round"/>
<path d="M78.2498 50.75H88.2498" stroke="#EE7A1D" stroke-width="1.5" stroke-linecap="round"/>
<path d="M31.2499 31.25L24.2499 24.25" stroke="#EE7A1D" stroke-width="1.5" stroke-linecap="round"/>
<path d="M70.2487 70.25L77.2487 77.25" stroke="#EE7A1D" stroke-width="1.5" stroke-linecap="round"/>
<path d="M70.2487 31.25L77.2487 24.25" stroke="#EE7A1D" stroke-width="1.5" stroke-linecap="round"/>
<path d="M31.2499 70.25L24.2499 77.25" stroke="#EE7A1D" stroke-width="1.5" stroke-linecap="round"/>
<path d="M50.7495 58.2505C54.8916 58.2505 58.2495 54.8926 58.2495 50.7505C58.2495 46.6084 54.8916 43.2505 50.7495 43.2505C46.6073 43.2505 43.2495 46.6084 43.2495 50.7505C43.2495 54.8926 46.6073 58.2505 50.7495 58.2505Z" stroke="#504F4F" stroke-width="1.5" stroke-linecap="round"/>
<path d="M54.4998 38.25L48.2498 50.75H54.4998L46.9998 63.25" stroke="#504F4F" stroke-width="1.5" stroke-linecap="round"/>
</svg>
