<svg width="1440" height="1024" viewBox="0 0 1440 1024" fill="none" xmlns="http://www.w3.org/2000/svg">
<g clip-path="url(#clip0_106_752)">
<rect width="1440" height="1024" fill="white"/>
<rect width="1440" height="1024" fill="#F0EDE4"/>
<g filter="url(#filter0_f_106_752)">
<ellipse cx="714" cy="-160.5" rx="990" ry="434.5" fill="white"/>
</g>
<g filter="url(#filter1_f_106_752)">
<ellipse cx="658.5" cy="826.5" rx="1045.5" ry="426.5" fill="#E47317"/>
</g>
<g filter="url(#filter2_f_106_752)">
<ellipse cx="706" cy="1110" rx="794" ry="218" fill="#C55418"/>
</g>
<g filter="url(#filter3_f_106_752)">
<ellipse cx="706" cy="1137" rx="794" ry="191" fill="#5A1A14"/>
</g>
<rect width="103" height="1024" fill="url(#paint0_linear_106_752)" fill-opacity="0.6" style="mix-blend-mode:overlay"/>
<rect x="517" width="102" height="1024" fill="url(#paint1_linear_106_752)" fill-opacity="0.6" style="mix-blend-mode:overlay"/>
<rect x="103" width="102" height="1024" fill="url(#paint2_linear_106_752)" fill-opacity="0.6" style="mix-blend-mode:overlay"/>
<rect x="619" width="102" height="1024" fill="url(#paint3_linear_106_752)" fill-opacity="0.6" style="mix-blend-mode:overlay"/>
<rect x="205" width="102" height="1024" fill="url(#paint4_linear_106_752)" fill-opacity="0.6" style="mix-blend-mode:overlay"/>
<rect x="307" width="103" height="1024" fill="url(#paint5_linear_106_752)" fill-opacity="0.6" style="mix-blend-mode:overlay"/>
<rect x="721" width="103" height="1024" fill="url(#paint6_linear_106_752)" fill-opacity="0.6" style="mix-blend-mode:overlay"/>
<rect x="824" width="102" height="1024" fill="url(#paint7_linear_106_752)" fill-opacity="0.6" style="mix-blend-mode:overlay"/>
<rect x="414" width="103" height="1024" fill="url(#paint8_linear_106_752)" fill-opacity="0.6" style="mix-blend-mode:overlay"/>
<rect x="926" width="103" height="1024" fill="url(#paint9_linear_106_752)" fill-opacity="0.6" style="mix-blend-mode:overlay"/>
<rect x="1029" width="102" height="1024" fill="url(#paint10_linear_106_752)" fill-opacity="0.6" style="mix-blend-mode:overlay"/>
<rect x="1130" width="104" height="1024" fill="url(#paint11_linear_106_752)" fill-opacity="0.6" style="mix-blend-mode:overlay"/>
<rect x="1234" width="102" height="1024" fill="url(#paint12_linear_106_752)" fill-opacity="0.6" style="mix-blend-mode:overlay"/>
<rect x="1336" width="104" height="1024" fill="url(#paint13_linear_106_752)" fill-opacity="0.6" style="mix-blend-mode:overlay"/>
<path d="M262.056 864.531L261.345 865.774C250.482 885.784 234.49 902.546 215.009 914.341C206.375 919.511 183.373 931.685 156.792 931.685C141.372 931.851 126.183 927.934 112.767 920.331C99.0683 912.39 87.957 900.66 80.7708 886.554C72.742 871.57 68.7325 853.527 68.7424 832.427V743.915C68.7424 715.684 71.8137 694.23 77.9563 679.553C84.0989 664.877 92.335 655.181 102.665 650.467C112.975 645.746 126.297 643.396 142.631 643.416H201.914C205.146 643.261 208.386 643.47 211.572 644.038C213.264 644.829 214.686 646.101 215.66 647.695L235.421 675.923C235.747 676.424 236.189 676.839 236.71 677.132C237.231 677.425 237.816 677.587 238.414 677.605C238.645 677.641 238.881 677.623 239.103 677.552C239.326 677.48 239.528 677.358 239.695 677.195C239.862 677.032 239.989 676.831 240.065 676.61C240.14 676.39 240.163 676.154 240.132 675.923V641.352C240.133 640.761 239.9 640.193 239.483 639.773C239.067 639.353 238.501 639.115 237.91 639.11H142.631C117.352 638.903 92.511 645.714 70.8755 658.785C49.1149 671.907 31.2486 690.591 19.1179 712.913C6.30781 736.142 -0.274974 762.289 0.00880137 788.812C-0.241872 815.481 6.33631 841.771 19.1179 865.182C31.2482 887.777 49.0943 906.796 70.8755 920.343C92.3726 933.591 117.122 940.625 142.376 940.667C167.63 940.708 192.402 933.754 213.942 920.577C223.527 914.691 232.382 907.694 240.325 899.732C249.72 890.198 257.768 879.424 264.245 867.711C264.586 867.101 264.861 866.592 265.048 866.231C265.167 866.034 265.245 865.815 265.278 865.588C265.311 865.361 265.298 865.129 265.24 864.907C265.183 864.685 265.081 864.476 264.941 864.294C264.802 864.111 264.627 863.959 264.428 863.845C264.228 863.73 264.008 863.657 263.78 863.63C263.552 863.602 263.321 863.62 263.1 863.683C262.879 863.745 262.673 863.852 262.493 863.995C262.314 864.139 262.165 864.317 262.056 864.519V864.531Z" fill="#F0EDE4" fill-opacity="0.9"/>
<path d="M477.693 771.292C468.206 754.453 454.413 740.436 437.727 730.674C421.102 720.864 402.149 715.69 382.844 715.69C363.538 715.69 344.586 720.864 327.961 730.674C311.376 740.487 297.672 754.497 288.231 771.292C278.651 788.606 273.625 808.068 273.625 827.854C273.625 847.64 278.651 867.101 288.231 884.415C297.62 901.314 311.331 915.417 327.961 925.282C344.586 935.092 363.538 940.266 382.844 940.266C402.149 940.266 421.102 935.092 437.727 925.282C454.459 915.469 468.258 901.358 477.693 884.415C487.273 867.101 492.299 847.64 492.299 827.854C492.299 808.068 487.273 788.606 477.693 771.292ZM427.873 860.257C427.873 881.081 425.938 897.05 422.066 908.162C418.195 919.275 413.109 926.689 406.809 930.402C399.431 934.371 391.123 936.286 382.752 935.949C374.525 936.257 366.368 934.341 359.14 930.402C352.819 926.714 347.733 919.301 343.882 908.162C340.03 897.024 338.095 881.055 338.075 860.257V794.832C338.075 774.3 340.011 758.616 343.882 747.782C347.753 736.947 352.908 729.602 359.347 725.747C366.471 721.712 374.568 719.712 382.752 719.966C391.051 719.694 399.275 721.607 406.601 725.513C413.03 729.228 418.185 736.572 422.066 747.545C425.918 758.549 427.853 774.312 427.873 794.832V860.257Z" fill="#F0EDE4" fill-opacity="0.9"/>
<path d="M746.632 771.291C737.156 754.447 723.366 740.428 706.678 730.673C690.061 720.753 671.045 715.571 651.691 715.689C638.31 715.588 625.136 718.985 613.473 725.541C603.797 730.906 595.477 738.412 589.149 747.485C588.882 747.871 588.499 748.163 588.055 748.317C587.611 748.471 587.13 748.48 586.681 748.342C586.232 748.204 585.838 747.926 585.557 747.55C585.277 747.173 585.123 746.716 585.12 746.247V720.113C585.116 719.717 585.007 719.33 584.804 718.99C584.601 718.651 584.31 718.372 583.963 718.183C583.616 717.993 583.224 717.9 582.828 717.912C582.433 717.924 582.048 718.042 581.713 718.253L526.015 753.061C525.699 753.259 525.439 753.533 525.258 753.858C525.077 754.183 524.98 754.548 524.978 754.921V1021.87C524.978 1022.17 525.036 1022.45 525.148 1022.72C525.26 1022.99 525.424 1023.24 525.63 1023.44C525.837 1023.65 526.081 1023.81 526.351 1023.92C526.62 1024.03 526.909 1024.09 527.2 1024.09H582.898C583.485 1024.08 584.047 1023.85 584.462 1023.44C584.878 1023.02 585.114 1022.46 585.12 1021.87V909.695C585.121 909.224 585.272 908.766 585.553 908.388C585.833 908.009 586.227 907.73 586.677 907.591C587.127 907.453 587.61 907.462 588.055 907.617C588.5 907.772 588.883 908.066 589.149 908.455C595.477 917.528 603.797 925.035 613.473 930.401C625.136 936.956 638.31 940.352 651.691 940.253C671.045 940.371 690.061 935.189 706.678 925.269C723.416 915.464 737.217 901.352 746.644 884.402C756.224 867.088 761.25 847.627 761.25 827.841C761.25 808.055 756.224 788.593 746.644 771.279L746.632 771.291ZM696.8 860.256C696.8 881.08 694.864 897.048 690.993 908.161C687.122 919.274 682.036 926.688 675.736 930.401C668.362 934.383 660.053 936.309 651.679 935.977C634.902 936.107 618.596 930.438 605.521 919.93C591.892 909.222 585.088 889.33 585.108 860.256V794.831C585.108 766.307 591.912 746.701 605.521 736.012C618.588 725.491 634.9 719.82 651.679 719.965C659.982 719.684 668.211 721.608 675.528 725.541C681.987 729.227 687.142 736.561 690.993 747.544C694.845 758.527 696.78 774.289 696.8 794.831V860.256Z" fill="#F0EDE4" fill-opacity="0.9"/>
<path d="M1015.54 771.291C1006.06 754.446 992.27 740.426 975.577 730.673C958.961 720.753 939.944 715.571 920.59 715.689C907.21 715.592 894.036 718.988 882.372 725.541C872.708 730.922 864.391 738.425 858.049 747.485C857.783 747.873 857.4 748.166 856.955 748.322C856.511 748.477 856.028 748.486 855.578 748.348C855.128 748.21 854.734 747.931 854.453 747.553C854.173 747.175 854.021 746.717 854.019 746.247V720.142C854.017 719.746 853.91 719.357 853.708 719.016C853.506 718.674 853.216 718.393 852.869 718.201C852.522 718.008 852.13 717.912 851.734 717.921C851.337 717.93 850.95 718.045 850.612 718.253L794.914 753.061C794.599 753.258 794.339 753.533 794.157 753.858C793.976 754.183 793.88 754.548 793.877 754.92V1021.87C793.878 1022.17 793.936 1022.45 794.048 1022.72C794.159 1022.99 794.323 1023.24 794.53 1023.44C794.736 1023.65 794.981 1023.81 795.25 1023.92C795.52 1024.03 795.808 1024.09 796.099 1024.09H851.797C852.384 1024.08 852.946 1023.85 853.362 1023.44C853.778 1023.02 854.014 1022.46 854.019 1021.87V909.695C854.02 909.224 854.172 908.766 854.452 908.387C854.732 908.009 855.126 907.73 855.577 907.591C856.027 907.453 856.51 907.462 856.955 907.617C857.399 907.772 857.783 908.066 858.049 908.454C864.408 917.5 872.721 925.001 882.372 930.401C894.037 936.953 907.21 940.349 920.59 940.253C939.944 940.371 958.961 935.189 975.577 925.269C992.315 915.464 1006.12 901.352 1015.54 884.402C1025.12 867.088 1030.15 847.626 1030.15 827.841C1030.15 808.055 1025.12 788.593 1015.54 771.279V771.291ZM965.711 860.256C965.711 881.08 963.776 897.048 959.905 908.161C956.033 919.274 950.947 926.687 944.647 930.401C937.274 934.383 928.964 936.309 920.59 935.977C903.814 936.102 887.509 930.434 874.432 919.93C860.833 909.221 854.029 889.33 854.019 860.256V794.831C854.019 766.307 860.823 746.701 874.432 736.012C887.503 725.496 903.812 719.826 920.59 719.965C928.893 719.684 937.122 721.608 944.439 725.541C950.898 729.227 956.053 736.561 959.905 747.544C963.756 758.526 965.692 774.289 965.711 794.831V860.256Z" fill="#F0EDE4" fill-opacity="0.9"/>
<path d="M1438.38 719.906C1415.75 713.228 1391.42 715.466 1370.39 726.16C1361.05 730.955 1353.14 738.115 1347.43 746.925C1347.18 747.336 1346.79 747.652 1346.34 747.826C1345.89 747.999 1345.39 748.02 1344.93 747.887C1344.46 747.753 1344.05 747.471 1343.76 747.084C1343.47 746.696 1343.31 746.225 1343.31 745.741V720.172C1343.31 719.769 1343.2 719.374 1342.99 719.028C1342.79 718.682 1342.49 718.398 1342.14 718.205C1341.78 718.012 1341.38 717.918 1340.98 717.931C1340.58 717.945 1340.19 718.067 1339.85 718.283L1284.21 753.061C1283.89 753.26 1283.62 753.539 1283.44 753.87C1283.26 754.201 1283.17 754.573 1283.17 754.951V828.605C1283.41 847.524 1277.78 866.052 1267.05 881.643C1256.61 897.079 1242.53 909.711 1226.05 918.426C1210.8 926.913 1193.67 931.475 1176.22 931.699C1167.71 931.975 1159.23 930.526 1151.29 927.439C1143.35 924.351 1136.12 919.69 1130.03 913.735C1117.86 901.759 1111.77 883.933 1111.78 860.256V853.001C1111.53 848.013 1112.11 843.018 1113.5 838.221C1113.97 836.837 1114.79 835.599 1115.88 834.627C1116.97 833.655 1118.29 832.983 1119.72 832.677C1124.76 831.807 1129.87 831.451 1134.98 831.614H1260.8C1262.15 831.622 1263.44 831.101 1264.41 830.163C1265.37 829.225 1265.93 827.945 1265.96 826.6C1265.99 826.484 1265.99 826.362 1265.96 826.245C1265.93 806.976 1260.91 788.043 1251.38 771.291C1241.91 754.448 1228.13 740.428 1211.45 730.673C1194.83 720.758 1175.81 715.576 1156.46 715.689C1137.17 715.556 1118.21 720.741 1101.68 730.673C1085.09 740.478 1071.38 754.49 1061.95 771.291C1052.18 788.493 1047.14 807.971 1047.34 827.749C1047.34 851.44 1052.85 871.754 1063.88 888.691C1074.47 905.313 1089.51 918.646 1107.28 927.188C1125.13 935.884 1144.75 940.355 1164.61 940.254C1182.06 940.264 1199.35 936.919 1215.53 930.401C1231.81 923.968 1246.48 914.039 1258.49 901.318C1267.33 891.994 1274.24 881.027 1278.85 869.039C1279.04 868.556 1279.39 868.155 1279.85 867.905C1280.31 867.655 1280.84 867.571 1281.35 867.669C1281.86 867.767 1282.32 868.039 1282.66 868.44C1282.99 868.841 1283.17 869.345 1283.17 869.866V936.294C1283.17 936.59 1283.23 936.882 1283.34 937.154C1283.46 937.426 1283.62 937.674 1283.83 937.882C1284.04 938.09 1284.29 938.255 1284.56 938.367C1284.84 938.48 1285.13 938.537 1285.42 938.536H1341.06C1341.36 938.537 1341.65 938.48 1341.92 938.367C1342.2 938.255 1342.44 938.09 1342.65 937.882C1342.86 937.674 1343.03 937.426 1343.14 937.154C1343.25 936.882 1343.31 936.59 1343.31 936.294V775.156C1343.31 760.317 1347.97 748.695 1357.3 740.289C1366.35 731.968 1378.27 727.448 1390.57 727.665C1402.2 727.414 1413.51 731.446 1422.36 738.992C1431.24 746.573 1435.69 757.201 1435.69 770.877C1435.65 771.166 1435.67 771.461 1435.77 771.738C1435.86 772.015 1436.02 772.267 1436.22 772.474C1436.43 772.68 1436.68 772.835 1436.96 772.927C1437.24 773.019 1437.53 773.045 1437.82 773.003C1438.11 773.045 1438.41 773.019 1438.69 772.928C1438.97 772.837 1439.22 772.682 1439.43 772.476C1439.64 772.27 1439.8 772.019 1439.9 771.741C1439.99 771.464 1440.02 771.168 1439.98 770.877V722.059C1439.98 721.577 1439.82 721.109 1439.54 720.722C1439.25 720.335 1438.85 720.049 1438.38 719.906ZM1111.78 794.828C1111.78 774.296 1113.72 758.613 1117.59 747.778C1121.46 736.944 1126.61 729.598 1133.05 725.743C1140.18 721.705 1148.27 719.705 1156.46 719.962C1164.76 719.685 1172.99 721.609 1180.31 725.538C1186.74 729.224 1191.89 736.559 1195.77 747.541C1199.62 758.546 1201.55 774.308 1201.55 794.828V825.084C1201.55 825.379 1201.49 825.671 1201.38 825.944C1201.26 826.216 1201.1 826.463 1200.89 826.672C1200.68 826.88 1200.43 827.045 1200.16 827.157C1199.89 827.269 1199.59 827.327 1199.3 827.326H1134.98C1129.94 827.204 1124.9 827.559 1119.93 828.386C1118.3 828.709 1116.73 829.31 1115.31 830.163C1114.97 830.391 1114.58 830.525 1114.17 830.549C1113.77 830.573 1113.36 830.486 1113 830.299C1112.64 830.111 1112.33 829.829 1112.12 829.483C1111.9 829.137 1111.79 828.74 1111.78 828.333V794.828Z" fill="#F0EDE4" fill-opacity="0.9"/>
</g>
<defs>
<filter id="filter0_f_106_752" x="-876" y="-1195" width="3180" height="2069" filterUnits="userSpaceOnUse" color-interpolation-filters="sRGB">
<feFlood flood-opacity="0" result="BackgroundImageFix"/>
<feBlend mode="normal" in="SourceGraphic" in2="BackgroundImageFix" result="shape"/>
<feGaussianBlur stdDeviation="300" result="effect1_foregroundBlur_106_752"/>
</filter>
<filter id="filter1_f_106_752" x="-837" y="-50" width="2991" height="1753" filterUnits="userSpaceOnUse" color-interpolation-filters="sRGB">
<feFlood flood-opacity="0" result="BackgroundImageFix"/>
<feBlend mode="normal" in="SourceGraphic" in2="BackgroundImageFix" result="shape"/>
<feGaussianBlur stdDeviation="225" result="effect1_foregroundBlur_106_752"/>
</filter>
<filter id="filter2_f_106_752" x="-388" y="592" width="2188" height="1036" filterUnits="userSpaceOnUse" color-interpolation-filters="sRGB">
<feFlood flood-opacity="0" result="BackgroundImageFix"/>
<feBlend mode="normal" in="SourceGraphic" in2="BackgroundImageFix" result="shape"/>
<feGaussianBlur stdDeviation="150" result="effect1_foregroundBlur_106_752"/>
</filter>
<filter id="filter3_f_106_752" x="-388" y="646" width="2188" height="982" filterUnits="userSpaceOnUse" color-interpolation-filters="sRGB">
<feFlood flood-opacity="0" result="BackgroundImageFix"/>
<feBlend mode="normal" in="SourceGraphic" in2="BackgroundImageFix" result="shape"/>
<feGaussianBlur stdDeviation="150" result="effect1_foregroundBlur_106_752"/>
</filter>
<linearGradient id="paint0_linear_106_752" x1="0" y1="512" x2="103" y2="512" gradientUnits="userSpaceOnUse">
<stop stop-color="#D9D9D9" stop-opacity="0"/>
<stop offset="0.95" stop-color="#060606" stop-opacity="0.77"/>
<stop offset="1" stop-color="white"/>
</linearGradient>
<linearGradient id="paint1_linear_106_752" x1="517" y1="512" x2="619" y2="512" gradientUnits="userSpaceOnUse">
<stop stop-color="#D9D9D9" stop-opacity="0"/>
<stop offset="0.95" stop-color="#060606" stop-opacity="0.77"/>
<stop offset="1" stop-color="white"/>
</linearGradient>
<linearGradient id="paint2_linear_106_752" x1="103" y1="512" x2="205" y2="512" gradientUnits="userSpaceOnUse">
<stop stop-color="#D9D9D9" stop-opacity="0"/>
<stop offset="0.95" stop-color="#060606" stop-opacity="0.77"/>
<stop offset="1" stop-color="white"/>
</linearGradient>
<linearGradient id="paint3_linear_106_752" x1="619" y1="512" x2="721" y2="512" gradientUnits="userSpaceOnUse">
<stop stop-color="#D9D9D9" stop-opacity="0"/>
<stop offset="0.95" stop-color="#060606" stop-opacity="0.77"/>
<stop offset="1" stop-color="white"/>
</linearGradient>
<linearGradient id="paint4_linear_106_752" x1="205" y1="512" x2="307" y2="512" gradientUnits="userSpaceOnUse">
<stop stop-color="#D9D9D9" stop-opacity="0"/>
<stop offset="0.95" stop-color="#060606" stop-opacity="0.77"/>
<stop offset="1" stop-color="white"/>
</linearGradient>
<linearGradient id="paint5_linear_106_752" x1="307" y1="512" x2="410" y2="512" gradientUnits="userSpaceOnUse">
<stop stop-color="#D9D9D9" stop-opacity="0"/>
<stop offset="0.95" stop-color="#060606" stop-opacity="0.77"/>
<stop offset="1" stop-color="white"/>
</linearGradient>
<linearGradient id="paint6_linear_106_752" x1="721" y1="512" x2="824" y2="512" gradientUnits="userSpaceOnUse">
<stop stop-color="#D9D9D9" stop-opacity="0"/>
<stop offset="0.95" stop-color="#060606" stop-opacity="0.77"/>
<stop offset="1" stop-color="white"/>
</linearGradient>
<linearGradient id="paint7_linear_106_752" x1="824" y1="512" x2="926" y2="512" gradientUnits="userSpaceOnUse">
<stop stop-color="#D9D9D9" stop-opacity="0"/>
<stop offset="0.95" stop-color="#060606" stop-opacity="0.77"/>
<stop offset="1" stop-color="white"/>
</linearGradient>
<linearGradient id="paint8_linear_106_752" x1="414" y1="512" x2="517" y2="512" gradientUnits="userSpaceOnUse">
<stop stop-color="#D9D9D9" stop-opacity="0"/>
<stop offset="0.95" stop-color="#060606" stop-opacity="0.77"/>
<stop offset="1" stop-color="white"/>
</linearGradient>
<linearGradient id="paint9_linear_106_752" x1="926" y1="512" x2="1029" y2="512" gradientUnits="userSpaceOnUse">
<stop stop-color="#D9D9D9" stop-opacity="0"/>
<stop offset="0.95" stop-color="#060606" stop-opacity="0.77"/>
<stop offset="1" stop-color="white"/>
</linearGradient>
<linearGradient id="paint10_linear_106_752" x1="1029" y1="512" x2="1131" y2="512" gradientUnits="userSpaceOnUse">
<stop stop-color="#D9D9D9" stop-opacity="0"/>
<stop offset="0.95" stop-color="#060606" stop-opacity="0.77"/>
<stop offset="1" stop-color="white"/>
</linearGradient>
<linearGradient id="paint11_linear_106_752" x1="1130" y1="512" x2="1234" y2="512" gradientUnits="userSpaceOnUse">
<stop stop-color="#D9D9D9" stop-opacity="0"/>
<stop offset="0.95" stop-color="#060606" stop-opacity="0.77"/>
<stop offset="1" stop-color="white"/>
</linearGradient>
<linearGradient id="paint12_linear_106_752" x1="1234" y1="512" x2="1336" y2="512" gradientUnits="userSpaceOnUse">
<stop stop-color="#D9D9D9" stop-opacity="0"/>
<stop offset="0.95" stop-color="#060606" stop-opacity="0.77"/>
<stop offset="1" stop-color="white"/>
</linearGradient>
<linearGradient id="paint13_linear_106_752" x1="1336" y1="512" x2="1440" y2="512" gradientUnits="userSpaceOnUse">
<stop stop-color="#D9D9D9" stop-opacity="0"/>
<stop offset="0.95" stop-color="#060606" stop-opacity="0.77"/>
<stop offset="1" stop-color="white"/>
</linearGradient>
<clipPath id="clip0_106_752">
<rect width="1440" height="1024" fill="white"/>
</clipPath>
</defs>
</svg>
